<svg width="37" height="37" viewBox="0 0 37 37" fill="none" xmlns="http://www.w3.org/2000/svg">
<circle cx="18.7412" cy="18.1401" r="18" fill="#FF2D55"/>
<path fill-rule="evenodd" clip-rule="evenodd" d="M17.039 9.10937C17.3332 8.81779 17.3354 8.34292 17.0438 8.04872C16.7522 7.75451 16.2774 7.75238 15.9832 8.04395L12.9188 11.0809C12.6246 11.3725 12.6225 11.8473 12.9141 12.1415C13.2057 12.4357 13.6805 12.4379 13.9747 12.1463L17.039 9.10937ZM20.769 8.07416C21.0619 7.78127 21.5368 7.78127 21.8297 8.07417L24.9213 11.1658C25.2142 11.4587 25.2142 11.9336 24.9213 12.2265C24.6284 12.5194 24.1535 12.5194 23.8606 12.2265L20.769 9.13482C20.4761 8.84192 20.4761 8.36705 20.769 8.07416ZM8.74122 13.1895C8.52273 13.1895 8.31511 13.2847 8.17263 13.4504C8.03015 13.616 7.96699 13.8355 7.99964 14.0516L9.77803 25.8163C9.83347 26.183 10.1487 26.4542 10.5196 26.4542H26.7166C27.0817 26.4542 27.3938 26.1912 27.4557 25.8314L29.4804 14.0667C29.5179 13.8487 29.4573 13.6253 29.3148 13.4562C29.1723 13.2871 28.9624 13.1895 28.7412 13.1895H8.74122ZM11.1648 24.9542L9.61311 14.6895H27.8511L26.0846 24.9542H11.1648ZM14.4868 22.1631C14.0726 22.1631 13.7368 22.4989 13.7368 22.9131C13.7368 23.3273 14.0726 23.6631 14.4868 23.6631H22.9957C23.4099 23.6631 23.7457 23.3273 23.7457 22.9131C23.7457 22.4989 23.4099 22.1631 22.9957 22.1631H14.4868ZM13.4629 19.9854C13.4629 19.5711 13.7987 19.2354 14.2129 19.2354H23.2416C23.6558 19.2354 23.9916 19.5711 23.9916 19.9854C23.9916 20.3996 23.6558 20.7354 23.2416 20.7354H14.2129C13.7987 20.7354 13.4629 20.3996 13.4629 19.9854ZM13.9126 16.3081C13.4984 16.3081 13.1626 16.6439 13.1626 17.0581C13.1626 17.4723 13.4984 17.8081 13.9126 17.8081H23.5706C23.9848 17.8081 24.3206 17.4723 24.3206 17.0581C24.3206 16.6439 23.9848 16.3081 23.5706 16.3081H13.9126Z" fill="white"/>
</svg>
