<svg width="24" height="24" viewBox="0 0 24 24" fill="none" xmlns="http://www.w3.org/2000/svg">
<path d="M3.98438 20.9062L20.0156 20.9062C20.2517 20.9058 20.478 20.8119 20.6449 20.6449C20.8119 20.478 20.9058 20.2517 20.9062 20.0156V14.0781H19.7188V19.7188L4.28125 19.7188L4.28125 4.28125L19.7188 4.28125L19.7188 10.2188H20.9063V3.98438C20.9058 3.7483 20.8119 3.52201 20.6449 3.35507C20.478 3.18814 20.2517 3.09417 20.0156 3.09375L3.98438 3.09375C3.7483 3.09417 3.52201 3.18814 3.35507 3.35507C3.18814 3.52201 3.09417 3.7483 3.09375 3.98438L3.09375 20.0156C3.09417 20.2517 3.18814 20.478 3.35507 20.6449C3.52201 20.8119 3.7483 20.9058 3.98438 20.9062V20.9062Z" />
<path d="M13.7298 8.01789L12.8898 7.17793L7.89441 12.1733L12.8898 17.1688L13.7298 16.3288L10.1673 12.7663L20.9055 12.7663V11.5788L10.1673 11.5788L13.7298 8.0163V8.01789Z" />
</svg>
