<svg width="24" height="25" viewBox="0 0 24 25" fill="none" xmlns="http://www.w3.org/2000/svg">
<path d="M22.9164 18.7773H1.08429C0.756484 18.7773 0.494141 19.0426 0.494141 19.3743C0.494141 19.7059 0.756484 19.9712 1.08429 19.9712H22.9164C23.2442 19.9712 23.5064 19.7059 23.5064 19.3743C23.5064 19.0426 23.2442 18.7773 22.9164 18.7773Z" fill="#FF2D55"/>
<path d="M1.76577 17.8626H22.2351C22.5786 17.8626 22.8534 17.5879 22.8534 17.2444C22.8534 17.1757 22.8534 17.1758 22.8534 17.1071C22.7848 11.7493 18.8007 7.35306 13.6489 6.52879C13.7176 6.32272 13.7865 6.04806 13.7865 5.7733C13.7865 4.81165 12.9621 3.9873 12.0005 3.9873C11.0388 3.9873 10.2145 4.81165 10.2145 5.7733C10.2145 6.04806 10.2833 6.25403 10.352 6.52879C5.13156 7.35306 1.14746 11.8179 1.14746 17.1757C1.14746 17.5878 1.42232 17.8626 1.76577 17.8626ZM11.3823 5.84189C11.3823 5.49844 11.657 5.22375 12.0005 5.22375C12.3439 5.22375 12.6186 5.49844 12.6186 5.84189C12.6186 6.18534 12.3439 6.4602 12.0005 6.4602C11.657 6.4602 11.3823 6.11665 11.3823 5.84189ZM12.0005 7.62789C17.0835 7.62789 21.2736 11.612 21.617 16.6263H2.38391C2.72736 11.612 6.91742 7.62789 12.0005 7.62789Z" fill="#FF2D55"/>
</svg>
