<svg width="24" height="25" viewBox="0 0 24 25" xmlns="http://www.w3.org/2000/svg">
<path fill-rule="evenodd" clip-rule="evenodd" d="M1.77246 5.76127C1.77246 4.20506 3.04344 2.93408 4.59965 2.93408H9.72331C10.6551 2.93408 11.4847 3.38976 12.0003 4.08951C12.516 3.38976 13.3456 2.93408 14.2774 2.93408H19.401C20.9573 2.93408 22.2282 4.20506 22.2282 5.76127V17.1472C22.2282 18.7034 20.9573 19.9744 19.401 19.9744H14.2774C13.3372 19.9744 12.5641 20.739 12.5504 21.6761L12.5505 21.7016V22.2709H12.5502H11.4505H11.4502V21.7016L11.4503 21.6761C11.4365 20.739 10.6635 19.9744 9.72331 19.9744H4.59965C3.04344 19.9744 1.77246 18.7034 1.77246 17.1472V5.76127ZM12.55 5.76127H12.5502H12.5505L12.5504 5.73573C12.5642 4.79864 13.3372 4.03408 14.2774 4.03408H19.401C20.3497 4.03408 21.1282 4.81257 21.1282 5.76127V17.1472C21.1282 18.0959 20.3497 18.8744 19.401 18.8744H14.2774C13.6281 18.8744 13.0284 19.0956 12.55 19.4666V5.76127ZM11.4502 5.76123L11.4503 5.73569C11.4365 4.79862 10.6635 4.03408 9.72331 4.03408H4.59965C3.65095 4.03408 2.87246 4.81257 2.87246 5.76127V17.1472C2.87246 18.0959 3.65095 18.8744 4.59965 18.8744H9.72331C10.3723 18.8744 10.9717 19.0954 11.45 19.466V5.76123H11.4502Z"/>
</svg>
