<svg width="24" height="25" viewBox="0 0 24 25" fill="none" xmlns="http://www.w3.org/2000/svg">
<path d="M12 6.15723V20.6743" stroke="#FF2D55" stroke-width="1.1" stroke-miterlimit="10"/>
<path d="M12.0003 6.15707C12.0003 4.90462 10.9756 3.87988 9.72312 3.87988H4.59945C3.347 3.87988 2.32227 4.90462 2.32227 6.15707V17.543C2.32227 18.7954 3.347 19.8202 4.59945 19.8202H9.72312C10.9756 19.8202 12.0003 20.8449 12.0003 22.0974V22.6667" stroke="#FF2D55" stroke-width="1.1" stroke-miterlimit="10"/>
<path d="M12 6.15707C12 4.90462 13.0247 3.87988 14.2772 3.87988H19.4009C20.6533 3.87988 21.678 4.90462 21.678 6.15707V17.543C21.678 18.7954 20.6533 19.8202 19.4009 19.8202H14.2772C13.0247 19.8202 12 20.8449 12 22.0974V22.6667" stroke="#FF2D55" stroke-width="1.1" stroke-miterlimit="10"/>
</svg>
