<svg width="20" height="17" viewBox="0 0 20 17" fill="none" xmlns="http://www.w3.org/2000/svg">
    <path d="M3.96883 12.3171L3.83689 12.1866L3.67323 12.0267L2.02295 10.3742C1.99941 10.3508 1.98027 10.3315 1.94001 10.2906C1.90107 10.2512 1.88514 10.2351 1.86389 10.214C1.84256 10.1927 1.82835 10.1783 1.79429 10.1437C1.74552 10.094 1.74552 10.094 1.73447 10.0827C1.59532 9.94473 1.46318 9.79985 1.33856 9.64862C1.22462 9.52522 1.13182 9.38381 1.06394 9.23007L1.04348 9.17635C0.922681 8.80176 0.922681 8.39867 1.04348 8.02407L1.06244 7.97379C1.12939 7.81932 1.22271 7.67779 1.33814 7.55547C1.45769 7.40615 1.58625 7.26426 1.72311 7.13061C1.76189 7.08776 1.79643 7.05241 1.86381 6.98504C1.88259 6.96639 1.89909 6.94972 1.93844 6.90977C1.95882 6.88913 1.95882 6.88912 1.98012 6.86769C2.00188 6.84591 2.00188 6.84591 2.02058 6.82753L3.66277 5.18666C3.71397 5.13296 3.76005 5.08712 3.83241 5.01681C3.87695 4.97259 3.87695 4.97259 3.90024 4.94954C3.92745 4.92266 3.95083 4.89983 3.97399 4.87759L5.81357 3.04126C5.89428 2.95822 5.96746 2.88571 6.08542 2.77086C6.16187 2.69254 6.24123 2.615 6.3298 2.53145C6.39955 2.4569 6.41443 2.44136 6.42318 2.43341C6.6713 2.1858 6.95661 1.97849 7.26989 1.81843C7.58154 1.6601 7.91553 1.55025 8.2572 1.49322C8.57543 1.43822 8.89767 1.40958 9.20872 1.4078C9.28924 1.40558 9.32591 1.4046 9.37129 1.40355C9.46624 1.40134 9.5465 1.40021 9.62463 1.40021H14.8138C14.9321 1.40021 15.0251 1.40214 15.217 1.4076C15.5406 1.40957 15.8634 1.43819 16.1792 1.49269C16.5236 1.5502 16.8572 1.66019 17.1673 1.81835C17.4808 1.97749 17.767 2.1853 18.0153 2.43386C18.2629 2.68155 18.4704 2.96637 18.6325 3.28267C18.788 3.5932 18.8971 3.92487 18.9571 4.2724C19.0085 4.5877 19.0363 4.90638 19.0401 5.21637C19.0428 5.30605 19.0439 5.37498 19.0457 5.52901C19.0463 5.57871 19.0463 5.57871 19.047 5.63529V11.5651C19.047 11.6956 19.0447 11.8306 19.0403 11.9746C19.0363 12.294 19.0085 12.6127 18.9562 12.9333C18.8971 13.2756 18.788 13.6072 18.6292 13.9242C18.4689 14.234 18.2624 14.5175 18.0155 14.7664C17.767 15.0151 17.4808 15.2229 17.1682 15.3816C16.8572 15.5402 16.5236 15.6502 16.1787 15.7078C15.862 15.7604 15.5416 15.7888 15.2291 15.7926C15.0251 15.7983 14.9321 15.8002 14.8138 15.8002C14.6499 15.8002 14.486 15.8006 14.3221 15.8012C12.6206 15.8075 10.9223 15.8414 9.21861 15.7928C8.89808 15.7888 8.57832 15.7604 8.2618 15.7077C7.917 15.6502 7.58301 15.5403 7.27024 15.3814C6.95809 15.2219 6.67278 15.0146 6.43583 14.7778C6.41613 14.7593 6.40532 14.748 6.36253 14.7027C6.34951 14.6889 6.32959 14.6681 6.32959 14.6681C6.22659 14.5695 6.15795 14.5023 6.09645 14.4391C5.97983 14.3253 5.89845 14.2446 5.82065 14.1648L4.03016 12.3751L3.96883 12.3171Z" stroke="#434C5F" stroke-width="1.5"/>
</svg>
