<svg width="50" height="51" viewBox="0 0 50 51" fill="none" xmlns="http://www.w3.org/2000/svg">
    <rect x="4" y="4.5" width="42.7435" height="42.5" rx="21.25" fill="#FF2D55"/>
    <path d="M19.0622 21.5227C20.7099 21.5227 22.0736 20.1591 22.0736 18.5114C22.0736 16.8637 20.7099 15.5 19.0622 15.5C17.4144 15.5 16.0508 16.8637 16.0508 18.5114C16.1076 20.2159 17.4144 21.5227 19.0622 21.5227ZM19.0622 16.5796C20.1417 16.5796 21.0508 17.4887 21.0508 18.5682C21.0508 19.6477 20.1417 20.5568 19.0622 20.5568C17.9826 20.5568 17.0735 19.6477 17.0735 18.5682C17.0735 17.4887 17.9826 16.5796 19.0622 16.5796Z" fill="white"/>
    <path d="M19.0625 30.5002H16.5625C16.2784 30.5002 16.0511 30.2729 16.0511 29.9888V25.5001C16.0511 25.2161 15.8239 24.9888 15.5398 24.9888C15.2557 24.9888 15.0283 25.2161 15.0283 25.5001V29.9888C15.0283 30.7843 15.7102 31.4661 16.5057 31.4661H17.017V34.4775H16.5057C16.2216 34.4775 15.9943 34.7047 15.9943 34.9888C15.9943 35.2729 16.2216 35.5001 16.5057 35.5001H18.4943C18.7784 35.5001 19.0056 35.2729 19.0056 34.9888C19.0056 34.7047 18.7784 34.4775 18.4943 34.4775H17.983V31.4661H19.0056C19.4033 31.4661 19.517 31.7502 19.517 31.9774C19.517 32.2615 19.7443 32.4888 20.0284 32.4888C20.3124 32.4888 20.5398 32.2615 20.5398 31.9774C20.5398 31.3524 20.142 30.5002 19.0625 30.5002Z" fill="white"/>
    <path d="M30.9943 21.5227C32.642 21.5227 34.0057 20.1591 34.0057 18.5114C34.0057 16.8637 32.642 15.5 30.9943 15.5C29.3466 15.5 27.9829 16.8637 27.9829 18.5114C28.0397 20.2159 29.3466 21.5227 30.9943 21.5227ZM30.9943 16.5796C32.0739 16.5796 32.9829 17.4887 32.9829 18.5682C32.9829 19.6477 32.0739 20.5568 30.9943 20.5568C29.9148 20.5568 29.0057 19.6477 29.0057 18.5682C29.0057 17.4887 29.9148 16.5796 30.9943 16.5796Z" fill="white"/>
    <path d="M34.4605 24.9888C34.1764 24.9888 33.949 25.2161 33.949 25.5001V29.9888C33.949 30.2729 33.7218 30.5002 33.4377 30.5002H30.9376C29.8581 30.5002 29.4604 31.4093 29.4604 31.9774C29.4604 32.2615 29.6877 32.4888 29.9718 32.4888C30.2558 32.4888 30.4832 32.2615 30.4832 31.9774C30.4832 31.7502 30.5968 31.4661 30.9945 31.4661H32.0173V34.4775H31.5058C31.2217 34.4775 30.9945 34.7047 30.9945 34.9888C30.9945 35.2729 31.2217 35.5001 31.5058 35.5001H33.4945C33.7786 35.5001 34.0059 35.2729 34.0059 34.9888C34.0059 34.7047 33.7786 34.4775 33.4945 34.4775H32.9832V31.4661H33.4945C34.2899 31.4661 34.9718 30.7843 34.9718 29.9888V25.5001C34.9718 25.2161 34.7446 24.9888 34.4605 24.9888Z" fill="white"/>
    <path d="M32.9831 28.5113V24.534C32.9831 23.4545 32.074 22.5454 30.9945 22.5454C29.9149 22.5454 29.0058 23.4545 29.0058 24.534V26.8068L27.5285 27.3182V26.5227H28.0399C28.324 26.5227 28.5512 26.2954 28.5512 26.0113C28.5512 25.7272 28.324 25.4999 28.0399 25.4999H22.074C21.7899 25.4999 21.5626 25.7272 21.5626 26.0113C21.5626 26.2954 21.7899 26.5227 22.074 26.5227H22.5853V27.3182L21.1081 26.8068V24.534C21.1081 23.4545 20.199 22.5454 19.1195 22.5454C18.04 22.5454 17.1309 23.4545 17.1309 24.534V28.5113C17.1309 28.9659 17.4148 29.3636 17.8694 29.4772L21.2217 30.3295L22.074 34.7045C22.1877 35.1591 22.5854 35.4999 23.0399 35.4999H27.0172C27.4717 35.4999 27.9262 35.1591 27.9831 34.7045L28.8353 30.3295L32.1877 29.4772C32.6991 29.3636 32.9831 28.9659 32.9831 28.5113ZM22.074 29.4772L18.0967 28.4545V24.4772C18.0967 23.9091 18.5513 23.4545 19.1195 23.4545C19.6877 23.4545 20.1421 23.9091 20.1421 24.4772V27.4886L22.6422 28.3408V31.9772L22.074 29.4772ZM23.5512 34.4772V31.4658V27.6022V26.4659H26.5626V27.6022V31.4658V34.4772H23.5512ZM32.0172 28.5113L28.0399 29.534L27.5285 32.034V28.3976L30.0286 27.5454V24.534C30.0286 23.9659 30.4832 23.5113 31.0513 23.5113C31.6195 23.5113 32.074 23.9659 32.074 24.534V28.5113H32.0172Z" fill="white"/>
</svg>