<svg width="24" height="24" viewBox="0 0 24 24" fill="none" xmlns="http://www.w3.org/2000/svg">
<path d="M15.1364 8.25V6.375C15.1364 5.87772 14.9371 5.40081 14.5823 5.04917C14.2274 4.69754 13.7462 4.5 13.2444 4.5H4.16255C3.66075 4.5 3.1795 4.69754 2.82468 5.04917C2.46985 5.40081 2.27051 5.87772 2.27051 6.375V17.625C2.27051 18.1223 2.46985 18.5992 2.82468 18.9508C3.1795 19.3025 3.66075 19.5 4.16255 19.5H13.2444C13.7462 19.5 14.2274 19.3025 14.5823 18.9508C14.9371 18.5992 15.1364 18.1223 15.1364 17.625V15.75" stroke="black" stroke-linecap="round" stroke-linejoin="round"/>
<path d="M18.1636 8.25L21.9477 12L18.1636 15.75" stroke="black" stroke-linecap="round" stroke-linejoin="round"/>
<path d="M9.03455 12H21.9478" stroke="black" stroke-linecap="round" stroke-linejoin="round"/>
</svg>
