<svg width="21" height="20" viewBox="0 0 21 20" fill="none" xmlns="http://www.w3.org/2000/svg">
<path d="M10.5 3.07129V17.5883" stroke="black" stroke-width="1.1" stroke-miterlimit="10"/>
<path d="M10.5 3.07137C10.5 1.81892 9.47526 0.794189 8.22281 0.794189H3.09915C1.84669 0.794189 0.82196 1.81892 0.82196 3.07137V14.4573C0.82196 15.7098 1.84669 16.7345 3.09915 16.7345H8.22281C9.47526 16.7345 10.5 17.7592 10.5 19.0117V19.581" stroke="black" stroke-width="1.1" stroke-miterlimit="10"/>
<path d="M10.5 3.07137C10.5 1.81892 11.5247 0.794189 12.7772 0.794189H17.9009C19.1533 0.794189 20.178 1.81892 20.178 3.07137V14.4573C20.178 15.7098 19.1533 16.7345 17.9009 16.7345H12.7772C11.5247 16.7345 10.5 17.7592 10.5 19.0117V19.581" stroke="black" stroke-width="1.1" stroke-miterlimit="10"/>
</svg>
