<svg viewBox="0 0 247 40" xmlns="http://www.w3.org/2000/svg">
    <path d="m4.4932 30.459c0.72648 0 1.4557-0.084 2.1931-0.249 0.7347-0.1651 1.4475-0.4813 2.1356-0.9486 0.49071-0.3497 0.89919-0.7303 1.2254-1.1388 0.3262-0.4085 0.5894-0.8366 0.7895-1.2843 0.2002-0.4477 0.34-0.8954 0.4222-1.3431 0.0823-0.4477 0.1234-0.887 0.1234-1.3151 0-0.6995-0.0768-1.3571-0.2303-1.9726-0.1535-0.6128-0.4085-1.2116-0.7621-1.7964s-0.81695-1.178-1.3899-1.7824-1.2665-1.2367-2.0835-1.8971l-0.76212-0.6128c-0.56199-0.4672-1.0308-0.8841-1.4009-1.2563-0.37284-0.3693-0.66617-0.7163-0.88548-1.0381-0.21657-0.3218-0.37284-0.6379-0.4633-0.9485-0.09047-0.3106-0.13707-0.6324-0.13707-0.9654 0-0.8758 0.2851-1.5977 0.85806-2.1629 0.57296-0.56521 1.3652-0.84781 2.3823-0.84781 0.43588 0 0.81694 0.04757 1.1432 0.1455s0.6086 0.21825 0.84436 0.36655c0.23576 0.1455 0.4304 0.30219 0.58392 0.46727 0.15352 0.16507 0.28511 0.31617 0.39477 0.45327 0.29059 0.389 0.48249 0.7751 0.57294 1.1528 0.0905 0.3806 0.1371 0.638 0.1371 0.7751 0 0.3498 0.0905 0.526 0.2714 0.526 0.1096 0 0.1864-0.0643 0.2303-0.1902 0.0466-0.1259 0.0685-0.3554 0.0685-0.6856 0-1.15 0.0192-1.9726 0.0548-2.4679 0.0357-0.49526 0.0549-0.84222 0.0549-1.0381 0-0.17348-0.1261-0.291-0.3811-0.34976-0.3619-0.09794-0.83613-0.20426-1.4146-0.32178-0.58118-0.11752-1.3159-0.17628-2.2041-0.17628-0.94305 0-1.8011 0.13711-2.5742 0.40852-0.77034 0.27141-1.4338 0.65195-1.9875 1.1388-0.55377 0.48686-0.97869 1.0716-1.2802 1.7516-0.29881 0.6827-0.44959 1.4214-0.44959 2.2188 0 0.5848 0.068536 1.1584 0.20287 1.7237 0.13707 0.5652 0.36187 1.1248 0.67988 1.6788 0.318 0.554 0.7347 1.1248 1.2528 1.7096 0.51812 0.5848 1.1486 1.1892 1.8916 1.8104l1.2528 1.0521c0.56199 0.4672 1.0198 0.9093 1.3734 1.329 0.35364 0.417 0.62505 0.8115 0.81694 1.1836 0.1919 0.3694 0.31801 0.7359 0.38106 1.0941 0.06305 0.3609 0.09595 0.7163 0.09595 1.066 0 0.389-0.07676 0.7807-0.23028 1.1696-0.15352 0.389-0.38105 0.7443-0.67987 1.0661-0.29881 0.3218-0.67713 0.5848-1.1295 0.7891-0.45233 0.2042-0.98965 0.3078-1.6065 0.3078-0.85258 0-1.6394-0.2183-2.3549-0.6576s-1.2309-1.2032-1.5379-2.2916c-0.071277-0.2546-0.13159-0.5149-0.17545-0.7891-0.046604-0.2714-0.068535-0.5064-0.068535-0.7023 0-0.1175-0.013707-0.2294-0.041122-0.3358-0.027414-0.1063-0.10417-0.1595-0.23302-0.1595-0.10692 0-0.18642 0.0728-0.23028 0.2183-0.046604 0.1455-0.07676 0.3274-0.09595 0.54 0 0.1175-0.008224 0.3078-0.027414 0.5708-0.01919 0.2631-0.035639 0.5708-0.054828 0.9206-0.01919 0.3498-0.030156 0.7247-0.041121 1.1248-0.0082242 0.4002-0.013707 0.8031-0.013707 1.2116 0 0.3302 0.032897 0.554 0.09595 0.6715 0.063053 0.1176 0.20287 0.2239 0.42218 0.3218 0.58118 0.2714 1.1898 0.4673 1.8231 0.5848 0.63601 0.1175 1.3515 0.1763 2.1493 0.1763h0.00274zm11.136-2.8904c-0.0549 0.4085-0.1508 0.817-0.2852 1.2255-0.137 0.4086-0.3673 0.6324-0.6935 0.6716-0.2002 0.0391-0.3537 0.0587-0.4633 0.0587h-0.2714c-0.255 0-0.3811 0.0784-0.3811 0.2351 0 0.1958 0.1453 0.291 0.4359 0.291 0.381 0 0.8115-0.014 1.2939-0.0448 0.4798-0.028 0.8389-0.0448 1.0747-0.0448 0.2166 0 0.5675 0.014 1.0472 0.0448 0.4798 0.028 0.976 0.0448 1.4831 0.0448 0.3811 0 0.5702-0.098 0.5702-0.291 0-0.1567-0.1261-0.2351-0.381-0.2351-0.2002 0-0.4798-0.0391-0.8444-0.1175-0.2001-0.0392-0.3728-0.1119-0.5181-0.2182-0.1453-0.1064-0.2166-0.277-0.2166-0.5121 0-0.2154 0.0055-0.4085 0.0137-0.5848s0.0302-0.3693 0.0686-0.5848l1.1431-9.6981h0.0823c0.2001 0.4281 0.4276 0.9261 0.6798 1.4886 0.255 0.5652 0.499 1.1108 0.7347 1.6368 0.2358 0.5261 0.4442 0.9933 0.6251 1.4019 0.1809 0.4085 0.2988 0.6715 0.3536 0.789 0.0713 0.1763 0.2276 0.5149 0.4633 1.0213 0.2358 0.5065 0.499 1.0521 0.7896 1.6369s0.5757 1.1528 0.858 1.7096c0.2824 0.5541 0.4935 0.9794 0.6388 1.2704 0.2001 0.3889 0.3728 0.6967 0.5181 0.9205 0.1453 0.2239 0.2906 0.3358 0.4359 0.3358s0.2714-0.0867 0.3811-0.263c0.1096-0.1763 0.2988-0.554 0.5729-1.1388l5.1457-11.1h0.0822l1.3351 10.75c0.0356 0.3498 0.0466 0.6044 0.0274 0.7611s-0.0631 0.2518-0.1371 0.291c-0.1809 0.0587-0.2714 0.1455-0.2714 0.263 0 0.0783 0.0439 0.1427 0.1371 0.1903 0.0905 0.0475 0.2824 0.0839 0.5729 0.1007 0.2358 0.0196 0.6004 0.0392 1.0884 0.0588 0.4907 0.0195 0.9979 0.0391 1.5242 0.0587 0.5264 0.0196 1.0116 0.0336 1.4557 0.0448s0.7402 0.014 0.8855 0.014c0.1809 0 0.3317-0.0252 0.4496-0.0728 0.1179-0.0475 0.1782-0.1203 0.1782-0.2182 0-0.1567-0.1261-0.2351-0.3811-0.2351-0.1453 0-0.3235-0.014-0.5318-0.0447-0.2084-0.028-0.4852-0.0924-0.8307-0.1903-0.3618-0.1175-0.6223-0.361-0.7758-0.7303s-0.2851-0.9458-0.3947-1.7236l-2.1767-15.336c-0.0357-0.2714-0.1124-0.4729-0.2331-0.5988-0.1178-0.1259-0.222-0.1902-0.3125-0.1902-0.2357 0-0.4441 0.2042-0.625 0.6127l-6.4259 14.021-6.4259-13.848c-0.1645-0.3302-0.2961-0.5456-0.3948-0.6435-0.0987-0.098-0.2138-0.1455-0.3399-0.1455-0.0905 0-0.181 0.0531-0.2714 0.1623-0.0905 0.1063-0.1535 0.2686-0.1919 0.4812l-2.3686 16.212-0.0027 0.0056zm33.541-3.769c0.1261 0 0.2083 0.0587 0.244 0.1762l1.8504 4.9946c0.0548 0.1567 0.0548 0.2826 0 0.3805-0.0548 0.098-0.1261 0.1567-0.2166 0.1763-0.2001 0.0196-0.2988 0.1064-0.2988 0.263 0 0.098 0.0631 0.1511 0.1919 0.1595 0.1261 0.0084 0.2988 0.0252 0.5182 0.0448 1.017 0.0392 1.9327 0.0588 2.7496 0.0588h1.8505c0.455 0 0.7401-0.0196 0.858-0.0588s0.1782-0.1063 0.1782-0.2043c0-0.1762-0.1096-0.263-0.3262-0.263-0.255 0-0.5538-0.028-0.8992-0.0867-0.1097-0.0196-0.2303-0.0644-0.3674-0.1315-0.137-0.07-0.2905-0.1959-0.4632-0.3806-0.1728-0.1846-0.3592-0.4476-0.5593-0.789s-0.4167-0.7947-0.6525-1.3571c-0.2549-0.624-0.5674-1.4018-0.9403-2.3364-0.3728-0.9345-0.7676-1.9334-1.1843-2.9939-0.4167-1.0633-0.8443-2.1322-1.2802-3.2122-0.4359-1.0801-0.8361-2.0846-1.198-3.0079-0.3619-0.9262-0.6799-1.7237-0.954-2.3952-0.2714-0.6715-0.4551-1.1248-0.5456-1.3571-0.1261-0.2714-0.233-0.4728-0.3125-0.5988-0.0822-0.1259-0.2138-0.1902-0.3948-0.1902-0.2165 0-0.455 0.3301-0.7072 0.9933l-6.2615 15.627c-0.2549 0.624-0.5126 1.1193-0.7758 1.4914-0.2632 0.3694-0.6661 0.6044-1.2117 0.6995-0.1096 0-0.2275 0.0056-0.3536 0.014s-0.244 0.014-0.3537 0.014c-0.1809 0-0.2741 0.0868-0.2741 0.2631 0 0.1762 0.1453 0.263 0.4359 0.263 0.636 0 1.2254-0.014 1.7682-0.0448 0.5455-0.028 0.88-0.0448 1.0088-0.0448 0.3811 0 0.8197 0.014 1.3187 0.0448 0.4989 0.028 0.9485 0.0448 1.3487 0.0448 0.255 0 0.3811-0.0868 0.3811-0.263 0-0.0784-0.0219-0.1428-0.0685-0.1903-0.0439-0.0476-0.1399-0.0728-0.2851-0.0728h-0.3537c-0.3619 0-0.6113-0.0615-0.7484-0.1902-0.1371-0.126-0.2029-0.2966-0.2029-0.5121 0-0.1567 0.0275-0.3693 0.0823-0.6435 0.0548-0.2715 0.1453-0.5653 0.2714-0.8758l1.2802-3.3298c0.0357-0.1175 0.1097-0.1762 0.2166-0.1762h5.6364v-0.0028zm-5.1457-1.3739c-0.1096 0-0.1371-0.0588-0.0822-0.1763l2.3137-6.2789c0.0192-0.0391 0.0357-0.0867 0.0549-0.1455 0.0191-0.0587 0.0466-0.0867 0.0822-0.0867s0.0603 0.028 0.0685 0.0867c0.0083 0.0588 0.022 0.1064 0.0412 0.1455l2.2589 6.3097c0.0356 0.0979 0 0.1455-0.1097 0.1455h-4.6275zm15.681 0.4085c0 1.15-0.0054 2.1853-0.0137 3.1115-0.0082 0.9262-0.0411 1.6509-0.0959 2.1769-0.0356 0.3693-0.0987 0.6659-0.1919 0.8898-0.0905 0.2238-0.2632 0.3665-0.5181 0.4253-0.2166 0.0587-0.499 0.0867-0.8444 0.0867-0.1453 0-0.244 0.028-0.2988 0.0868-0.0548 0.0587-0.0822 0.1175-0.0822 0.1762 0 0.1763 0.1535 0.2631 0.4632 0.2631 0.2358 0 0.499-0.0056 0.7896-0.014 0.2906-0.0112 0.5757-0.0196 0.858-0.028 0.2824-0.0084 0.5401-0.0196 0.7759-0.028 0.2357-0.0084 0.4084-0.014 0.5181-0.014 0.0905 0 0.2714 0.0056 0.5455 0.014 0.2714 0.0112 0.584 0.0196 0.9403 0.028 0.3537 0.0112 0.7293 0.0196 1.1295 0.028 0.4003 0.0112 0.7704 0.014 1.1158 0.014 0.3262 0 0.4907-0.0868 0.4907-0.2631 0-0.0587-0.0274-0.1175-0.0822-0.1762-0.0549-0.0588-0.1262-0.0868-0.2166-0.0868-0.1453 0-0.3317-0.0056-0.5593-0.014-0.2275-0.0112-0.4304-0.0335-0.6113-0.0727-0.3619-0.0588-0.6004-0.1987-0.7073-0.4253-0.1097-0.2239-0.1809-0.5205-0.2166-0.8898-0.0548-0.526-0.0904-1.2451-0.1096-2.1629-0.0192-0.915-0.0274-1.9587-0.0274-3.1255v-0.3497c0-0.1371 0.063-0.2043 0.1891-0.2043l2.152 0.0588c0.181 0 0.3263 0.0587 0.4359 0.1762 0.074 0.098 0.1864 0.2631 0.3399 0.4953 0.1536 0.235 0.3372 0.5121 0.5429 0.8338 0.2083 0.3218 0.4304 0.6632 0.6689 1.0213 0.2357 0.361 0.4715 0.7051 0.7072 1.0381 0.6717 0.9737 1.2529 1.7572 1.7436 2.3504s0.9979 1.0269 1.5242 1.3011c0.3098 0.1763 0.6525 0.3022 1.0335 0.3805 0.3811 0.0784 0.9075 0.1176 1.5791 0.1176h2.2863c0.3098 0 0.4633-0.0868 0.4633-0.2631 0-0.0587-0.0274-0.1175-0.0822-0.1762-0.0548-0.0588-0.1288-0.0868-0.2193-0.0868h-0.2714c-0.074 0-0.1727-0.0196-0.2988-0.0587-0.0905-0.0196-0.2139-0.0476-0.3674-0.0868-0.1535-0.0391-0.3399-0.1119-0.5592-0.2182s-0.4633-0.2686-0.7347-0.4813c-0.2714-0.2154-0.573-0.498-0.8992-0.8478-0.7265-0.7779-1.516-1.7236-2.3686-2.8345-0.8526-1.1108-1.8148-2.3671-2.8867-3.769 1.1788-1.0129 2.0286-1.9474 2.544-2.8036 0.5181-0.8563 0.7758-1.7516 0.7758-2.6862 0-0.4085-0.0548-0.7946-0.1644-1.1528-0.107-0.361-0.2495-0.6855-0.4222-0.9793-0.1727-0.291-0.3592-0.5513-0.5593-0.7751s-0.381-0.3945-0.5455-0.512c-0.636-0.4477-1.3625-0.7359-2.1767-0.8619-0.8169-0.1259-1.6065-0.1902-2.3686-0.1902-0.1809 0-0.4386 0.0056-0.7758 0.014-0.3345 0.0112-0.6936 0.014-1.0747 0.014-0.3618 0-0.7155 0.0056-1.0609 0.0139-0.3454 0.0084-0.6168 0.014-0.8169 0.014-0.255 0-0.7018-0.0084-1.3488-0.0279-0.6442-0.0196-1.283-0.028-1.919-0.028-0.3619 0-0.5456 0.0783-0.5456 0.2322 0 0.1763 0.1371 0.263 0.4085 0.263 0.181 0 0.3619 0.0056 0.5428 0.014 0.181 0.0084 0.318 0.0336 0.4085 0.0728 0.3811 0.1175 0.6387 0.263 0.7758 0.4393s0.2221 0.4785 0.2577 0.9066c0 0.1958 0.0055 0.4029 0.0137 0.6267 0.0082 0.2239 0.0137 0.5205 0.0137 0.8898v1.4606 2.2776 4.3818h0.0082zm3.0485-9.8436c0-0.1763 0.074-0.291 0.2166-0.3498 0.1261-0.0391 0.318-0.0643 0.5729-0.0727 0.255-0.0084 0.5346-0.014 0.8444-0.014 0.3454 0 0.732 0.0643 1.1569 0.1903 0.4276 0.1259 0.8252 0.3609 1.198 0.6995 0.3728 0.3413 0.6799 0.7946 0.9266 1.3599 0.244 0.5652 0.3673 1.2843 0.3673 2.1629 0 1.0325-0.1672 1.8355-0.5044 2.4091s-0.6853 0.9989-1.05 1.2703c-0.2001 0.1567-0.4139 0.2631-0.6387 0.3218-0.2275 0.0588-0.5757 0.0868-1.0472 0.0868-0.3098 0-0.6278-0.014-0.954-0.0448-0.3263-0.028-0.6169-0.0924-0.8718-0.1903-0.1453-0.0783-0.2166-0.2238-0.2166-0.4393v-7.3897zm17.778 9.8436c0 1.15-0.0054 2.1853-0.0137 3.1115-0.0082 0.9262-0.0411 1.6509-0.0959 2.1769-0.0357 0.3693-0.0987 0.6659-0.1892 0.8898-0.0904 0.2238-0.2632 0.3665-0.5181 0.4253-0.2001 0.0587-0.4797 0.0867-0.8444 0.0867-0.1453 0-0.244 0.028-0.2988 0.0868-0.0548 0.0587-0.0822 0.1175-0.0822 0.1762 0 0.1763 0.1535 0.2631 0.4633 0.2631 0.2357 0 0.5099-0.0056 0.8169-0.014 0.3098-0.0112 0.6141-0.0196 0.9129-0.028s0.573-0.0196 0.817-0.028 0.4413-0.014 0.5839-0.014c0.3454 0 0.8772 0.014 1.5928 0.0448 0.7182 0.028 1.4748 0.0448 2.2726 0.0448 0.307 0 0.4633-0.0868 0.4633-0.263 0-0.0588-0.0274-0.1176-0.0822-0.1763-0.0549-0.0588-0.1536-0.0868-0.2989-0.0868-0.1809 0-0.3892-0.0056-0.6278-0.014-0.2357-0.0112-0.4358-0.0335-0.5976-0.0727-0.3618-0.0588-0.5976-0.1987-0.7073-0.4253-0.1096-0.2239-0.1809-0.5121-0.2165-0.8618-0.0549-0.5457-0.0905-1.2815-0.1097-2.2049-0.0192-0.9262-0.0274-1.9615-0.0274-3.1115v-10.048l3.021 0.0588c0.5428 0 0.9924 0.0476 1.3488 0.1455 0.3537 0.0979 0.6388 0.2154 0.8581 0.3498 0.2166 0.1371 0.3728 0.2882 0.4633 0.4532 0.0904 0.1651 0.1453 0.3274 0.1645 0.4813l0.0274 0.263c0.0192 0.3302 0.1096 0.4981 0.2714 0.4981 0.1096 0 0.1809-0.1371 0.2166-0.4085 0-0.1567 0.0054-0.375 0.0137-0.6576 0.0082-0.2826 0.0137-0.5792 0.0137-0.8926 0-0.3106 0.0054-0.5988 0.0137-0.8618 0.0082-0.263 0.0137-0.4617 0.0137-0.5988 0-0.3497-0.0631-0.526-0.1892-0.526-0.0356 0-0.1042 0.0112-0.2028 0.028-0.1015 0.0196-0.2495 0.0475-0.4496 0.0867-0.181 0.0392-0.403 0.0672-0.6662 0.0868-0.2632 0.0195-0.5839 0.0279-0.965 0.0279h-9.7183c-0.4003 0-0.8087-0.0084-1.2254-0.0279-0.4167-0.0196-0.8088-0.0476-1.1706-0.0868-0.3098-0.0392-0.5346-0.0979-0.6799-0.1763-0.1453-0.0783-0.2632-0.1175-0.3536-0.1175-0.1262 0-0.2166 0.1567-0.2714 0.4673-0.0192 0.0588-0.0549 0.2294-0.1097 0.512-0.0548 0.2827-0.1124 0.5904-0.1782 0.9206-0.0631 0.3302-0.1179 0.652-0.1617 0.9654-0.0466 0.3105-0.0686 0.5148-0.0686 0.6127 0 0.2714 0.074 0.4086 0.2166 0.4086 0.1261 0 0.2193-0.1064 0.2741-0.3218 0.0357-0.098 0.0823-0.2183 0.1371-0.3638s0.1453-0.3078 0.2714-0.4813c0.1809-0.2714 0.4386-0.4616 0.7758-0.5708 0.3372-0.1063 0.8499-0.1706 1.538-0.1902l3.5666-0.0868v10.048l-0.0083-0.0028z" fill="#fff"/>
    <path d="m186.3 30.459c0.436 0 0.886-0.014 1.349-0.0448 0.463-0.028 0.913-0.0671 1.349-0.1175 0.436-0.0476 0.844-0.1175 1.225-0.2043 0.381-0.0867 0.707-0.1902 0.979-0.3077 0.236-0.098 0.395-0.1987 0.477-0.3078 0.082-0.1064 0.159-0.2882 0.233-0.5401 0.071-0.2546 0.145-0.5792 0.216-0.9793 0.074-0.4001 0.137-0.7974 0.192-1.1976 0.055-0.4001 0.099-0.7582 0.137-1.08 0.036-0.3218 0.055-0.5289 0.055-0.6268 0-0.1175-0.019-0.2182-0.055-0.3078-0.035-0.0867-0.098-0.1315-0.192-0.1315-0.109 0-0.186 0.0392-0.23 0.1175-0.046 0.0784-0.088 0.2323-0.123 0.4673-0.055 0.2714-0.165 0.5932-0.326 0.9625-0.165 0.3694-0.362 0.6912-0.598 0.9654-0.546 0.6827-1.206 1.1248-1.988 1.3291-0.781 0.2042-1.779 0.3078-2.993 0.3078-0.908 0-1.864-0.2155-2.873-0.6436-1.006-0.4281-1.933-1.0773-2.777-1.9419-0.845-0.8674-1.544-1.953-2.097-3.2569-0.554-1.3039-0.831-2.8233-0.831-4.5581 0-1.4214 0.167-2.7897 0.504-4.1048s1.004-2.4679 2.002-3.4612c0.597-0.5848 1.302-1.0325 2.11-1.3431 0.809-0.31058 1.81-0.46727 3.008-0.46727 1.253 0 2.374 0.17628 3.361 0.52604 0.989 0.34976 1.71 0.78061 2.165 1.2843 0.346 0.3889 0.604 0.8226 0.776 1.3011 0.173 0.4757 0.269 0.9402 0.285 1.3879 0 0.4281 0.091 0.6435 0.272 0.6435 0.126 0 0.208-0.0587 0.244-0.1763 0.035-0.1175 0.063-0.2826 0.082-0.498 0.019-0.1371 0.027-0.3302 0.027-0.5848 0-0.2714 3e-3 -0.554 0.014-0.8478 8e-3 -0.291 0.014-0.5932 0.014-0.9066 0-0.3106 8e-3 -0.5848 0.027-0.8171 0.036-0.50641 0.069-0.87016 0.096-1.094 0.028-0.22385 0.041-0.39453 0.041-0.51205 0-0.21545-0.137-0.33017-0.408-0.34976-0.417-0.03917-0.844-0.11192-1.28-0.21825s-0.916-0.19866-1.442-0.27701c-0.636-0.09793-1.239-0.17068-1.81-0.21825-0.573-0.04757-1.283-0.07275-2.138-0.07275-2.031 0-3.731 0.27421-5.091 0.81704-1.362 0.54562-2.533 1.3039-3.512 2.2776-0.652 0.6436-1.189 1.3291-1.606 2.0594s-0.74 1.4494-0.965 2.1629c-0.228 0.7107-0.387 1.3962-0.477 2.0594-0.091 0.6631-0.137 1.2367-0.137 1.7236 0 0.7023 0.049 1.427 0.151 2.1769 0.098 0.7499 0.277 1.4998 0.532 2.2497 0.254 0.7498 0.597 1.4801 1.033 2.1909 0.436 0.7107 0.99 1.3766 1.661 2.0006 1.253 1.1668 2.654 1.9922 4.206 2.4679 1.551 0.4785 3.262 0.7163 5.132 0.7163h-6e-3zm14.864-11.1c-0.11 0-0.164-0.0587-0.164-0.1763v-0.526-2.3084-1.5194c0-0.4085 5e-3 -0.7359 0.013-0.9793 9e-3 -0.2434 0.022-0.4617 0.041-0.6575 0.036-0.4477 0.116-0.7695 0.233-0.9654 0.118-0.1958 0.34-0.3218 0.667-0.3805 0.271-0.0588 0.499-0.0868 0.68-0.0868 0.29 0 0.435-0.0867 0.435-0.263 0-0.1567-0.164-0.2322-0.49-0.2322-0.236 0-0.507 0.0056-0.817 0.014-0.307 0.0112-0.617 0.014-0.924 0.014-0.291 0-0.568 0.0056-0.831 0.014-0.263 0.0083-0.466 0.0139-0.614 0.0139-0.162 0-0.375-0.0056-0.639-0.0139-0.263-0.0112-0.559-0.014-0.885-0.014-0.31 0-0.636-0.0056-0.979-0.014-0.345-0.0112-0.68-0.014-1.009-0.014-0.345 0-0.518 0.0783-0.518 0.2322 0 0.1763 0.137 0.263 0.409 0.263 0.181 0 0.362 0.0056 0.545 0.014 0.181 0.0084 0.318 0.0336 0.409 0.0728 0.381 0.1175 0.639 0.263 0.776 0.4393s0.222 0.4785 0.257 0.9066c0 0.1958 3e-3 0.4029 0.014 0.6267 8e-3 0.2239 0.014 0.5205 0.014 0.8898v1.4606 2.2776 4.3818c0 1.15-6e-3 2.1853-0.014 3.1115-0.011 0.9262-0.041 1.6509-0.096 2.1769-0.036 0.3693-0.099 0.6659-0.189 0.8898-0.091 0.2238-0.263 0.3665-0.518 0.4253-0.217 0.0588-0.499 0.0867-0.845 0.0867-0.145 0-0.244 0.028-0.298 0.0868-0.055 0.0587-0.083 0.1175-0.083 0.1763 0 0.1762 0.154 0.263 0.464 0.263 0.235 0 0.504-0.0056 0.803-0.014 0.299-0.0112 0.595-0.0196 0.885-0.028 0.291-0.0084 0.56-0.0196 0.804-0.028s0.441-0.014 0.586-0.014c0.346 0 0.886 0.014 1.62 0.0448 0.735 0.028 1.492 0.0448 2.273 0.0448 0.326 0 0.491-0.0868 0.491-0.263 0-0.0588-0.028-0.1176-0.082-0.1763-0.055-0.0588-0.154-0.0868-0.299-0.0868-0.181 0-0.39-0.0056-0.628-0.014-0.236-0.0111-0.436-0.0335-0.598-0.0727-0.362-0.0588-0.597-0.1987-0.707-0.4253-0.11-0.2239-0.181-0.5121-0.217-0.8618-0.054-0.5457-0.09-1.2704-0.109-2.1769-0.019-0.9066-0.028-1.9335-0.028-3.0807v-1.8999c0-0.0979 0.055-0.1455 0.165-0.1455h9.038c0.091 0 0.137 0.0476 0.137 0.1455v1.8999c0 1.15-5e-3 2.1769-0.013 3.0807-9e-3 0.9065-0.041 1.6201-0.096 2.1461-0.036 0.3693-0.099 0.6659-0.192 0.8898-0.091 0.2238-0.263 0.3665-0.518 0.4253-0.217 0.0588-0.507 0.0867-0.872 0.0867-0.145 0-0.244 0.028-0.299 0.0868-0.055 0.0587-0.082 0.1175-0.082 0.1763 0 0.1762 0.173 0.263 0.518 0.263 0.236 0 0.507-0.0056 0.817-0.014 0.307-0.0112 0.611-0.0196 0.913-0.028 0.299-0.0084 0.576-0.0196 0.831-0.028 0.254-0.0084 0.455-0.014 0.6-0.014 0.326 0 0.844 0.014 1.552 0.0448 0.707 0.028 1.452 0.0448 2.231 0.0448 0.326 0 0.491-0.0868 0.491-0.263 0-0.0588-0.033-0.1176-0.096-0.1763-0.063-0.0588-0.159-0.0868-0.285-0.0868-0.2 0-0.414-0.0056-0.639-0.014-0.228-0.0111-0.422-0.0335-0.587-0.0727-0.362-0.0588-0.603-0.1987-0.721-0.4253-0.118-0.2239-0.194-0.5121-0.233-0.8618-0.055-0.5456-0.085-1.2815-0.096-2.2049-8e-3 -0.9262-0.013-1.9615-0.013-3.1115v-4.3818-2.2776-1.4606c0-0.3693 5e-3 -0.6659 0.013-0.8898 9e-3 -0.2238 0.022-0.4337 0.041-0.6267 0.036-0.4477 0.113-0.7695 0.231-0.9654 0.118-0.1958 0.331-0.3218 0.638-0.3805 0.291-0.0588 0.527-0.0868 0.708-0.0868 0.29 0 0.436-0.0867 0.436-0.263 0-0.1567-0.173-0.2322-0.518-0.2322-0.236 0-0.499 0.0056-0.79 0.014-0.291 0.0112-0.581 0.014-0.872 0.014-0.29 0-0.562 0.0056-0.817 0.0139-0.255 0.0084-0.455 0.014-0.597 0.014-0.165 0-0.381-0.0056-0.653-0.014-0.274-0.0111-0.573-0.0139-0.899-0.0139s-0.666-0.0056-1.02-0.014c-0.353-0.0112-0.693-0.014-1.02-0.014-0.345 0-0.518 0.0783-0.518 0.2322 0 0.1763 0.137 0.263 0.409 0.263 0.164 0 0.337 0.0056 0.518 0.014s0.318 0.0336 0.408 0.0728c0.381 0.1175 0.639 0.263 0.776 0.4393s0.222 0.4784 0.258 0.9066c0 0.1958 3e-3 0.4141 0.014 0.6575 8e-3 0.2434 0.019 0.5652 0.027 0.9625 8e-3 0.4002 0.014 0.9094 0.014 1.5334v2.3084 0.526c0 0.1176-0.047 0.1763-0.137 0.1763h-9.039v-0.0056zm20.229 3.4752c0 1.15-5e-3 2.1853-0.014 3.1115-8e-3 0.9262-0.041 1.6509-0.096 2.1769-0.035 0.3693-0.098 0.6659-0.189 0.8898-0.09 0.2238-0.263 0.3665-0.518 0.4253-0.216 0.0588-0.499 0.0867-0.844 0.0867-0.146 0-0.244 0.028-0.299 0.0868-0.055 0.0587-0.082 0.1175-0.082 0.1763 0 0.1762 0.153 0.263 0.463 0.263 0.255 0 0.521-0.0056 0.803-0.014 0.283-0.0112 0.568-0.0252 0.858-0.0448 0.291 0 0.554-0.0056 0.79-0.014s0.428-0.014 0.573-0.014c0.362 0 0.773 0.0056 1.225 0.014 0.455 0.0112 0.971 0.0252 1.552 0.0448 1.162 0.0587 2.632 0.0867 4.411 0.0867 0.216 0 0.4-0.0056 0.545-0.014 0.146-0.0112 0.269-0.0335 0.368-0.0727 0.098-0.0392 0.178-0.1007 0.23-0.1903 0.055-0.0867 0.099-0.2098 0.137-0.3637 0.036-0.1175 0.071-0.3022 0.11-0.554 0.035-0.2547 0.071-0.5149 0.109-0.7891 0.036-0.2714 0.063-0.54 0.083-0.8031 0.019-0.263 0.027-0.4616 0.027-0.5987s-0.014-0.2687-0.041-0.3946c-0.028-0.1259-0.085-0.1902-0.178-0.1902-0.126 0-0.217 0.1259-0.272 0.3805-0.09 0.5065-0.208 0.901-0.353 1.1836-0.146 0.2826-0.373 0.5008-0.68 0.6575s-0.686 0.2491-1.13 0.277c-0.444 0.028-0.819 0.0448-1.129 0.0448-0.617 0-1.13-0.028-1.538-0.0867-0.409-0.0588-0.735-0.1651-0.981-0.3218-0.244-0.1567-0.423-0.3638-0.532-0.6268-0.11-0.263-0.173-0.61-0.189-1.0381v-0.7582-1.0213-1.0521-0.8478-1.9867c0-0.1762 0.043-0.263 0.137-0.263 0.145 0 0.403 0.0056 0.775 0.014 0.373 0.0112 0.763 0.0196 1.171 0.028 0.408 0.0112 0.784 0.0196 1.129 0.028 0.346 0.0112 0.573 0.0251 0.68 0.0447 0.455 0.0392 0.771 0.1455 0.954 0.3218 0.181 0.1763 0.31 0.3889 0.381 0.6436 0.036 0.1567 0.055 0.3106 0.055 0.4672 0 0.1567 8e-3 0.3022 0.028 0.4393 0 0.1372 0.074 0.2043 0.216 0.2043 0.11 0 0.178-0.0699 0.206-0.2043 0.027-0.1371 0.041-0.2546 0.041-0.3497 0-0.0979 8e-3 -0.3358 0.027-0.7163 0.02-0.3806 0.044-0.6967 0.083-0.9486 0.074-0.6239 0.123-1.0604 0.148-1.3151 0.027-0.2546 0.041-0.4197 0.041-0.498 0-0.1763-0.063-0.263-0.189-0.263-0.055 0-0.11 0.0279-0.165 0.0867s-0.126 0.1371-0.216 0.235c-0.11 0.1371-0.255 0.2239-0.436 0.2631-0.181 0.0391-0.417 0.0783-0.708 0.1175-0.145 0.0196-0.416 0.0336-0.817 0.0447-0.4 0.0112-0.825 0.014-1.28 0.014h-1.307-0.79c-0.11 0-0.162-0.0867-0.162-0.263v-6.1334c0-0.1567 0.055-0.2322 0.162-0.2322 0.126 0 0.373 0.0056 0.735 0.014s0.754 0.0196 1.17 0.028c0.417 0.0084 0.804 0.0196 1.157 0.0279 0.354 0.0112 0.587 0.0252 0.694 0.0448 0.597 0.0588 0.989 0.1707 1.17 0.3358s0.318 0.3553 0.409 0.5708c0.074 0.1567 0.118 0.3218 0.137 0.498 0.019 0.1763 0.027 0.3106 0.027 0.4086 0 0.2154 0.063 0.3217 0.192 0.3217 0.091 0 0.154-0.0531 0.189-0.1622 0.036-0.1064 0.063-0.1903 0.083-0.2491 0.019-0.0783 0.032-0.1958 0.041-0.3497 8e-3 -0.1567 0.022-0.3162 0.041-0.4813s0.033-0.3274 0.041-0.4813c8e-3 -0.1567 0.014-0.263 0.014-0.3218 0.035-0.5652 0.076-0.9485 0.123-1.1528 0.044-0.2042 0.069-0.3553 0.069-0.4532 0-0.1567-0.055-0.2351-0.165-0.2351-0.055 0-0.112 0.014-0.178 0.0448-0.063 0.028-0.132 0.0531-0.203 0.0727-0.09 0.0196-0.228 0.0448-0.408 0.0728-0.181 0.028-0.382 0.0531-0.598 0.0727h-0.6-1.144-1.414-1.442-1.226-0.707c-0.345 0-0.85-0.0084-1.51-0.0279-0.664-0.0196-1.311-0.028-1.947-0.028-0.362 0-0.543 0.0783-0.543 0.2322 0 0.1763 0.137 0.263 0.409 0.263 0.181 0 0.362 0.0056 0.545 0.014 0.181 0.0084 0.318 0.0336 0.409 0.0728 0.381 0.1175 0.639 0.263 0.776 0.4393 0.137 0.1762 0.222 0.4784 0.257 0.9066 0 0.1958 6e-3 0.4029 0.014 0.6267 8e-3 0.2239 0.014 0.5205 0.014 0.8898v1.4606 2.2776 4.3818l-0.014-0.0084zm18.894-1.9586c0-0.1371 0.055-0.2043 0.164-0.2043h0.68c0.362 0 0.754 0.0056 1.171 0.014 0.417 0.0112 0.817 0.0196 1.198 0.028 0.381 0.0112 0.644 0.0252 0.789 0.0448 0.362 0.0391 0.631 0.1567 0.804 0.3497 0.172 0.1959 0.285 0.3806 0.34 0.554 0.109 0.291 0.161 0.5457 0.161 0.7583 0 0.098 0.02 0.1791 0.055 0.249 0.036 0.0672 0.091 0.1008 0.165 0.1008 0.126 0 0.203-0.0672 0.233-0.2043 0.027-0.1371 0.041-0.2546 0.041-0.3497v-0.2631c0-0.1567 5e-3 -0.3273 0.014-0.512 8e-3 -0.1847 0.019-0.375 0.027-0.5708 8e-3 -0.1959 0.022-0.3498 0.041-0.4673 0.036-0.3889 0.077-0.7359 0.123-1.0381 0.047-0.3022 0.069-0.4924 0.069-0.5708 0-0.1567-0.047-0.2322-0.137-0.2322-0.071 0-0.126 0.0252-0.162 0.0727-0.036 0.0476-0.09 0.1119-0.164 0.1903-0.11 0.1567-0.25 0.263-0.423 0.3218-0.172 0.0587-0.367 0.0979-0.586 0.1175-0.181 0.0196-0.362 0.028-0.546 0.028h-0.545l-3.348 0.0279c-0.109 0-0.164-0.0783-0.164-0.2322v-6.0187c0-0.1567 0.019-0.2518 0.055-0.291 0.035-0.0391 0.09-0.0587 0.164-0.0587l3.975 0.0867c0.455 0.0196 0.798 0.1063 1.034 0.263s0.4 0.3218 0.491 0.4981c0.09 0.1735 0.137 0.3498 0.137 0.526v0.4086c0 0.2714 0.098 0.4085 0.298 0.4085 0.091 0 0.151-0.0588 0.179-0.1763 0.027-0.1175 0.049-0.2238 0.068-0.3218 0-0.0783 6e-3 -0.2154 0.014-0.4085 8e-3 -0.1959 0.022-0.4001 0.041-0.6128 0.019-0.2154 0.033-0.4197 0.041-0.6128 8e-3 -0.1958 0.014-0.3217 0.014-0.3805 0.035-0.3302 0.077-0.5736 0.123-0.7303 0.047-0.1567 0.069-0.2826 0.069-0.3805 0-0.1567-0.055-0.2351-0.162-0.2351-0.074 0-0.137 0.0196-0.192 0.0588s-0.118 0.0671-0.192 0.0867c-0.2 0.0392-0.526 0.0784-0.978 0.1175h-1.171-2.097-2.177-1.36c-0.345 0-0.85-0.0083-1.51-0.0279-0.664-0.0196-1.302-0.028-1.919-0.028-0.381 0-0.573 0.0783-0.573 0.2322 0 0.098 0.041 0.1651 0.123 0.2043s0.178 0.0587 0.285 0.0587c0.181 0 0.362 0.0056 0.543 0.014s0.318 0.0336 0.409 0.0728c0.381 0.0979 0.638 0.2378 0.775 0.4253 0.137 0.1847 0.222 0.4925 0.258 0.9206 0 0.1958 6e-3 0.4029 0.014 0.6267 8e-3 0.2239 0.013 0.5205 0.013 0.8898v1.4606 2.2777 4.3817c0 1.2088-5e-3 2.2581-0.013 3.1563-8e-3 0.8954-0.041 1.6061-0.096 2.1321-0.036 0.3694-0.099 0.6659-0.192 0.8898-0.091 0.2238-0.263 0.3665-0.518 0.4253-0.217 0.0588-0.499 0.0867-0.845 0.0867-0.145 0-0.241 0.028-0.285 0.0868-0.046 0.0587-0.068 0.1175-0.068 0.1763 0 0.1762 0.162 0.263 0.491 0.263 0.216 0 0.471-0.0056 0.762-0.014 0.29-0.0112 0.575-0.0196 0.858-0.028 0.282-0.0084 0.548-0.0196 0.803-0.028s0.463-0.014 0.625-0.014c0.164 0 0.381 0.0056 0.652 0.014 0.275 0.0112 0.582 0.0196 0.927 0.028 0.345 0.0112 0.713 0.0196 1.102 0.028 0.389 0.0112 0.776 0.014 1.157 0.014 0.345 0 0.518-0.0868 0.518-0.263 0-0.0588-0.033-0.1176-0.096-0.1763-0.063-0.0588-0.167-0.0868-0.312-0.0868-0.165 0-0.359-0.0056-0.584-0.014-0.228-0.0111-0.422-0.0335-0.587-0.0727-0.362-0.0588-0.603-0.1987-0.721-0.4253-0.118-0.2239-0.195-0.5204-0.23-0.8898-0.055-0.526-0.091-1.2228-0.11-2.0902s-0.027-1.9027-0.027-3.1114v-2.0454l-3e-3 0.0112z" fill="#fff"/>
    <path d="m89.838 32.892c5.2441 7.8045 34.09 2.9715 44.05 1.0294 2.238-0.5969 4.038-0.6358 6.272-0.9914 4.775-0.5521 7.23 0.451 12.727-1.9108 1.857-0.7981 11.86-6.3326 11.649-6.8769-0.21-0.5444-7.696 3.1197-11.214 4.1269-0.616 0.1763-2.04 0.822-2.258 0.3154-0.218-0.5065 2.612-1.5715 4.4-2.2621 1.089-0.4133 12.571-4.4816 12.387-5.1847-0.185-0.7031-6.206 1.3574-7.167 1.6677-2.498 0.8071-10.729 3.885-10.977 3.2087-0.249-0.6764 1.339-1.0847 1.85-1.3097 4.452-1.6246 11.167-3.8847 17.005-5.9559 0.942-0.3355 2.077-0.7163 1.942-1.197-0.135-0.4806-10.056 2.1512-15.773 3.567-2.875 0.7333-3.498 0.7223-6.265 2.0422-2.724 1.2966-4.403 3.191-6.849 5.1437-2.522 2.0121-3.663 2.3071-5.63 3.1891-7.663 3.4362-51.06 6.5779-44.251-7.2803 0.6957-1.5661 2.2934-3.4198 4.1415-4.7952-3.8305 2.6536-9.8075 7.8671-6.0401 13.474z" clip-rule="evenodd" fill="#FF2D55" fill-rule="evenodd"/>
    <path d="m100.5 24.794s12.03 5.1866 30.439 1.3971c5.67-1.1672 23.029-6.1117 29.342-15.351 0 0-4.654 5.0959-16.767 9.2395-12.112 4.1435-21.55 5.4043-30.978 5.5812-9.427 0.1768-11.758-0.8666-12.036-0.8666z" clip-rule="evenodd" fill="#fff" fill-rule="evenodd"/>
    <path d="m117.16 6.5251c9.254-2.9712 25.604-5.8013 36.527-1.9811 4.258 1.4892 4.472 4.7982-0.348 9.0551 1.357-0.7782 4.535-3.4353 5.322-5.0425 1.502-3.0656-0.978-5.0018-3.479-5.9248-12.564-4.6486-45.222 0.81577-55.102 11.55 2.539-1.9263 7.827-4.6853 17.08-7.6565z" fill="#fff"/>
    <path d="m121.62 11.29c6.213-1.9949 17.19-3.8949 24.523-1.3302 2.859 0.99985 3.003 3.2214-0.233 6.0794 0.911-0.5224 3.045-2.3064 3.573-3.3855 1.008-2.0582-0.657-3.3581-2.335-3.9778-8.436-3.121-30.363 0.5477-36.996 7.7545 1.705-1.2934 5.255-3.1457 11.468-5.1405z" fill="#fff"/>
</svg>
