<svg viewBox="0 0 196 31" xmlns="http://www.w3.org/2000/svg">
    <path d="m3.5656 23.686c0.57651 0 1.1552-0.0651 1.7404-0.1931 0.58303-0.128 1.1487-0.3732 1.6947-0.7355 0.38942-0.2711 0.71356-0.5662 0.97245-0.8829 0.25888-0.3168 0.46773-0.6487 0.62654-0.9958 0.15881-0.3472 0.26976-0.6943 0.33503-1.0414 0.06526-0.3471 0.09789-0.6877 0.09789-1.0196 0-0.5424-0.06091-1.0523-0.18274-1.5295-0.12183-0.4752-0.32415-0.9394-0.60478-1.3929-0.28064-0.4534-0.6483-0.9133-1.103-1.3819s-1.0051-0.9589-1.6534-1.4709l-0.60479-0.4752c-0.44598-0.3623-0.81799-0.6855-1.1117-0.9741-0.29586-0.2863-0.52864-0.5553-0.70268-0.8048-0.17186-0.2495-0.29587-0.4947-0.36766-0.7355s-0.10877-0.49029-0.10877-0.74846c0-0.67905 0.22625-1.2388 0.68093-1.677 0.45467-0.43824 1.0834-0.65735 1.8905-0.65735 0.3459 0 0.64829 0.03688 0.90718 0.11281 0.25888 0.07593 0.48296 0.16922 0.67005 0.2842 0.18709 0.11282 0.34155 0.23431 0.46338 0.36231s0.22625 0.24515 0.31327 0.35145c0.2306 0.30156 0.38289 0.60095 0.45468 0.89384 0.07179 0.29505 0.10877 0.49464 0.10877 0.60095 0 0.27118 0.07179 0.40786 0.21538 0.40786 0.08702 0 0.14793-0.0499 0.18274-0.14753 0.03698-0.09763 0.05439-0.27552 0.05439-0.53152 0-0.89166 0.01522-1.5295 0.0435-1.9135 0.02829-0.384 0.04352-0.65302 0.04352-0.80488 0-0.13451-0.10008-0.22563-0.3024-0.27119-0.28716-0.07593-0.66352-0.15837-1.1226-0.24949-0.46121-0.09112-1.0442-0.13668-1.7491-0.13668-0.74837 0-1.4293 0.10631-2.0428 0.31675-0.61131 0.21044-1.1378 0.50549-1.5772 0.88298s-0.77665 0.83091-1.016 1.3581c-0.23713 0.52936-0.35678 1.1021-0.35678 1.7204 0 0.4535 0.054387 0.8982 0.16099 1.3365 0.10878 0.4382 0.28716 0.8721 0.53953 1.3016 0.25235 0.4296 0.58303 0.8722 0.9942 1.3256 0.41116 0.4534 0.91153 0.922 1.5011 1.4037l0.9942 0.8157c0.44597 0.3623 0.80928 0.7051 1.0899 1.0305 0.28064 0.3233 0.49601 0.6291 0.64829 0.9177 0.15229 0.2864 0.25236 0.5706 0.3024 0.8483 0.05003 0.2798 0.07614 0.5554 0.07614 0.8265 0 0.3016-0.06091 0.6053-0.18274 0.9069-0.12183 0.3015-0.3024 0.5771-0.53952 0.8266-0.23713 0.2495-0.53735 0.4534-0.89631 0.6118-0.35895 0.1583-0.78535 0.2386-1.2748 0.2386-0.67658 0-1.301-0.1692-1.8688-0.5098-0.56781-0.3406-0.9768-0.9329-1.2205-1.7768-0.056563-0.1975-0.10442-0.3992-0.13923-0.6118-0.036984-0.2105-0.054388-0.3927-0.054388-0.5446 0-0.0911-0.010877-0.1779-0.032632-0.2603-0.021755-0.0825-0.082669-0.1237-0.18492-0.1237-0.084844 0-0.14793 0.0564-0.18274 0.1692-0.036984 0.1129-0.060914 0.2539-0.076142 0.4188 0 0.0911-0.006527 0.2386-0.021755 0.4425-0.015228 0.204-0.028281 0.4426-0.04351 0.7138-0.015228 0.2712-0.02393 0.5619-0.032632 0.8721-0.0065265 0.3103-0.010878 0.6227-0.010878 0.9394 0 0.256 0.026106 0.4296 0.076142 0.5207 0.050037 0.0911 0.16099 0.1736 0.33503 0.2495 0.4612 0.2104 0.94416 0.3623 1.4467 0.4534 0.50471 0.0911 1.0725 0.1367 1.7056 0.1367h0.00217zm8.8369-2.2411c-0.0435 0.3167-0.1197 0.6335-0.2263 0.9502-0.1087 0.3168-0.2915 0.4903-0.5504 0.5207-0.1588 0.0304-0.2806 0.0456-0.3676 0.0456h-0.2154c-0.2023 0-0.3024 0.0607-0.3024 0.1822 0 0.1519 0.1153 0.2256 0.3459 0.2256 0.3024 0 0.644-0.0108 1.0268-0.0347 0.3808-0.0217 0.6657-0.0347 0.8528-0.0347 0.1719 0 0.4504 0.0109 0.8311 0.0347 0.3807 0.0217 0.7744 0.0347 1.1769 0.0347 0.3024 0 0.4525-0.0759 0.4525-0.2256 0-0.1215-0.1001-0.1822-0.3024-0.1822-0.1588 0-0.3807-0.0304-0.67-0.0911-0.1588-0.0304-0.2959-0.0868-0.4112-0.1693-0.1153-0.0824-0.1719-0.2147-0.1719-0.397 0-0.167 0.0044-0.3167 0.0109-0.4534s0.0239-0.2864 0.0544-0.4534l0.9072-7.5195h0.0652c0.1589 0.332 0.3394 0.7181 0.5396 1.1542 0.2023 0.4382 0.3959 0.8613 0.583 1.2691 0.1871 0.4079 0.3524 0.7702 0.496 1.087 0.1436 0.3167 0.2371 0.5206 0.2807 0.6118 0.0565 0.1366 0.1805 0.3991 0.3676 0.7918s0.3959 0.8157 0.6266 1.2692c0.2306 0.4534 0.4568 0.8938 0.6809 1.3255 0.2241 0.4296 0.3916 0.7593 0.5069 0.985 0.1588 0.3015 0.2958 0.5402 0.4111 0.7137 0.1153 0.1736 0.2306 0.2604 0.3459 0.2604s0.2154-0.0673 0.3024-0.204c0.0871-0.1366 0.2372-0.4295 0.4547-0.8829l4.0834-8.6064h0.0653l1.0594 8.3352c0.0283 0.2712 0.037 0.4686 0.0218 0.5901s-0.05 0.1952-0.1088 0.2256c-0.1436 0.0456-0.2154 0.1128-0.2154 0.2039 0 0.0608 0.0349 0.1107 0.1088 0.1476 0.0718 0.0368 0.2241 0.065 0.4547 0.0781 0.1871 0.0151 0.4764 0.0303 0.8637 0.0455 0.3894 0.0152 0.7918 0.0304 1.2095 0.0456s0.8028 0.026 1.1552 0.0347c0.3525 0.0087 0.5874 0.0108 0.7027 0.0108 0.1436 0 0.2632-0.0195 0.3568-0.0564 0.0935-0.0368 0.1414-0.0933 0.1414-0.1692 0-0.1215-0.1001-0.1822-0.3024-0.1822-0.1153 0-0.2567-0.0109-0.422-0.0347-0.1654-0.0217-0.3851-0.0716-0.6592-0.1476-0.2872-0.0911-0.4938-0.2798-0.6157-0.5662-0.1218-0.2864-0.2262-0.7333-0.3132-1.3364l-1.7274-11.891c-0.0283-0.21044-0.0892-0.36664-0.1849-0.46427-0.0935-0.09762-0.1762-0.14752-0.248-0.14752-0.1871 0-0.3524 0.15837-0.496 0.47511l-5.0994 10.871-5.0993-10.737c-0.1306-0.256-0.235-0.42305-0.3133-0.49898s-0.1697-0.11281-0.2698-0.11281c-0.0718 0-0.1435 0.04122-0.2153 0.12583-0.0718 0.08244-0.1219 0.20827-0.1523 0.37315l-1.8796 12.57-0.0022 0.0043zm26.617-2.9223c0.1001 0 0.1654 0.0456 0.1936 0.1367l1.4685 3.8725c0.0435 0.1215 0.0435 0.2191 0 0.2951-0.0435 0.0759-0.1001 0.1215-0.1719 0.1366-0.1588 0.0152-0.2371 0.0825-0.2371 0.204 0 0.0759 0.05 0.1171 0.1523 0.1236 0.1001 0.0065 0.2371 0.0196 0.4112 0.0348 0.8071 0.0303 1.5337 0.0455 2.182 0.0455h1.4684c0.3612 0 0.5874-0.0152 0.681-0.0455 0.0935-0.0304 0.1414-0.0825 0.1414-0.1584 0-0.1367-0.087-0.204-0.2589-0.204-0.2023 0-0.4395-0.0217-0.7136-0.0672-0.087-0.0152-0.1827-0.0499-0.2915-0.102-0.1088-0.0542-0.2306-0.1518-0.3676-0.295-0.1371-0.1432-0.285-0.3471-0.4438-0.6118-0.1589-0.2647-0.3307-0.6162-0.5178-1.0522-0.2023-0.4838-0.4503-1.0869-0.7462-1.8115-0.2959-0.7247-0.6091-1.4992-0.9398-2.3214-0.3307-0.8244-0.6701-1.6532-1.016-2.4906s-0.6635-1.6162-0.9507-2.3322c-0.2871-0.7181-0.5395-1.3364-0.757-1.8571-0.2154-0.52064-0.3612-0.8721-0.433-1.0522-0.1-0.21044-0.1849-0.36665-0.248-0.46427-0.0652-0.09763-0.1697-0.14753-0.3132-0.14753-0.1719 0-0.3612 0.256-0.5613 0.77017l-4.9688 12.117c-0.2024 0.4838-0.4069 0.8678-0.6157 1.1563-0.2088 0.2864-0.5286 0.4687-0.9616 0.5424-0.087 0-0.1805 0.0044-0.2806 0.0109s-0.1936 0.0108-0.2806 0.0108c-0.1436 0-0.2176 0.0673-0.2176 0.2039 0 0.1367 0.1153 0.204 0.3459 0.204 0.5047 0 0.9725-0.0109 1.4032-0.0347 0.4329-0.0217 0.6983-0.0347 0.8006-0.0347 0.3024 0 0.6505 0.0108 1.0464 0.0347 0.3959 0.0217 0.7527 0.0347 1.0703 0.0347 0.2024 0 0.3024-0.0673 0.3024-0.204 0-0.0607-0.0174-0.1106-0.0544-0.1475-0.0348-0.0369-0.1109-0.0564-0.2262-0.0564h-0.2806c-0.2872 0-0.4852-0.0477-0.594-0.1475-0.1087-0.0976-0.1609-0.23-0.1609-0.397 0-0.1215 0.0217-0.2864 0.0652-0.499 0.0435-0.2104 0.1153-0.4382 0.2154-0.6791l1.016-2.5817c0.0282-0.0911 0.087-0.1366 0.1718-0.1366h4.4728v-0.0022zm-4.0834-1.0652c-0.087 0-0.1088-0.0456-0.0652-0.1367l1.8361-4.8683c0.0152-0.0304 0.0283-0.0673 0.0435-0.1128 0.0152-0.0456 0.037-0.0673 0.0652-0.0673 0.0283 0 0.0479 0.0217 0.0544 0.0673 0.0066 0.0455 0.0174 0.0824 0.0327 0.1128l1.7926 4.8922c0.0283 0.0759 0 0.1128-0.087 0.1128h-3.6723zm12.444 0.3167c0 0.8917-0.0043 1.6944-0.0108 2.4125-0.0066 0.7181-0.0327 1.28-0.0762 1.6879-0.0283 0.2863-0.0783 0.5163-0.1523 0.6899-0.0718 0.1735-0.2088 0.2842-0.4111 0.3297-0.1719 0.0456-0.396 0.0673-0.6701 0.0673-0.1153 0-0.1936 0.0217-0.2371 0.0672-0.0435 0.0456-0.0653 0.0911-0.0653 0.1367 0 0.1367 0.1219 0.2039 0.3677 0.2039 0.1871 0 0.3959-0.0043 0.6265-0.0108 0.2306-0.0087 0.4569-0.0152 0.681-0.0217 0.224-0.0065 0.4285-0.0152 0.6156-0.0217s0.3242-0.0108 0.4112-0.0108c0.0718 0 0.2154 0.0043 0.4329 0.0108 0.2154 0.0087 0.4634 0.0152 0.7462 0.0217 0.2806 0.0087 0.5787 0.0152 0.8963 0.0217 0.3176 0.0087 0.6113 0.0108 0.8854 0.0108 0.2589 0 0.3894-0.0672 0.3894-0.2039 0-0.0456-0.0217-0.0911-0.0652-0.1367-0.0435-0.0455-0.1001-0.0672-0.1719-0.0672-0.1153 0-0.2632-0.0044-0.4438-0.0109-0.1806-0.0087-0.3415-0.026-0.4851-0.0564-0.2872-0.0455-0.4765-0.154-0.5613-0.3297-0.087-0.1736-0.1436-0.4036-0.1719-0.6899-0.0435-0.4079-0.0718-0.9655-0.087-1.6771-0.0152-0.7094-0.0217-1.5186-0.0217-2.4233v-0.2712c0-0.1063 0.05-0.1583 0.1501-0.1583l1.7077 0.0455c0.1436 0 0.2589 0.0456 0.3459 0.1367 0.0588 0.0759 0.148 0.2039 0.2698 0.384 0.1218 0.1822 0.2676 0.397 0.4307 0.6465 0.1654 0.2495 0.3416 0.5142 0.5309 0.7919 0.1871 0.2798 0.3741 0.5467 0.5612 0.8049 0.533 0.7549 0.9942 1.3624 1.3837 1.8223 0.3894 0.46 0.7918 0.7962 1.2095 1.0088 0.2459 0.1367 0.5178 0.2343 0.8202 0.2951 0.3024 0.0607 0.7201 0.0911 1.2531 0.0911h1.8143c0.2459 0 0.3677-0.0672 0.3677-0.2039 0-0.0456-0.0218-0.0911-0.0653-0.1367s-0.1022-0.0673-0.174-0.0673h-0.2154c-0.0587 0-0.137-0.0151-0.2371-0.0455-0.0718-0.0152-0.1697-0.0369-0.2915-0.0673-0.1219-0.0303-0.2698-0.0867-0.4438-0.1692-0.1741-0.0824-0.3677-0.2083-0.5831-0.3731-0.2153-0.1671-0.4546-0.3862-0.7135-0.6574-0.5765-0.6031-1.2031-1.3364-1.8797-2.1977-0.6765-0.8613-1.4401-1.8354-2.2907-2.9223 0.9354-0.7853 1.6098-1.51 2.0188-2.1738 0.4112-0.6639 0.6157-1.3581 0.6157-2.0827 0-0.3168-0.0435-0.6162-0.1306-0.8939-0.0848-0.2798-0.1979-0.5315-0.335-0.7593-0.137-0.2256-0.285-0.4274-0.4438-0.6009-0.1588-0.17359-0.3024-0.30593-0.4329-0.39705-0.5047-0.34711-1.0812-0.57057-1.7273-0.6682-0.6483-0.09763-1.2749-0.14753-1.8797-0.14753-0.1435 0-0.348 0.00434-0.6156 0.01085-0.2654 0.00868-0.5504 0.01085-0.8528 0.01085-0.2872 0-0.5678 0.00434-0.8419 0.01084-0.2741 0.00651-0.4895 0.01085-0.6483 0.01085-0.2024 0-0.557-0.0065-1.0704-0.02169-0.5112-0.01519-1.0181-0.0217-1.5228-0.0217-0.2872 0-0.4329 0.06075-0.4329 0.18007 0 0.13668 0.1087 0.20393 0.3241 0.20393 0.1436 0 0.2872 0.00434 0.4308 0.01085 0.1435 0.00651 0.2523 0.02604 0.3241 0.05641 0.3024 0.09112 0.5069 0.20393 0.6157 0.34061 0.1087 0.13667 0.1762 0.37098 0.2045 0.70291 0 0.1519 0.0043 0.3124 0.0108 0.486 0.0066 0.1735 0.0109 0.4035 0.0109 0.6899v1.1324 1.766 3.3974h0.0065zm2.4192-7.6322c0-0.1367 0.0587-0.22567 0.1719-0.27123 0.1-0.03037 0.2523-0.04989 0.4546-0.0564s0.4242-0.01085 0.6701-0.01085c0.2741 0 0.5808 0.0499 0.918 0.14752 0.3394 0.09766 0.6549 0.27986 0.9507 0.54236 0.2959 0.2647 0.5396 0.6162 0.7353 1.0544 0.1937 0.4382 0.2916 0.9958 0.2916 1.677 0 0.8006-0.1327 1.4232-0.4003 1.8679-0.2676 0.4448-0.5439 0.7745-0.8332 0.985-0.1589 0.1215-0.3285 0.2039-0.5069 0.2495-0.1806 0.0455-0.4569 0.0672-0.8311 0.0672-0.2458 0-0.4982-0.0108-0.757-0.0347-0.2589-0.0217-0.4895-0.0716-0.6918-0.1475-0.1153-0.0608-0.1719-0.1736-0.1719-0.3406v-5.7296zm14.108 7.6322c0 0.8917-0.0044 1.6944-0.0109 2.4125-0.0066 0.7181-0.0327 1.28-0.0762 1.6879-0.0282 0.2863-0.0783 0.5163-0.1501 0.6899-0.0718 0.1735-0.2088 0.2842-0.4111 0.3297-0.1589 0.0456-0.3807 0.0673-0.6701 0.0673-0.1153 0-0.1936 0.0217-0.2371 0.0672-0.0435 0.0456-0.0653 0.0911-0.0653 0.1367 0 0.1367 0.1218 0.2039 0.3677 0.2039 0.1871 0 0.4046-0.0043 0.6483-0.0108 0.2458-0.0087 0.4873-0.0152 0.7244-0.0217s0.4547-0.0152 0.6483-0.0217 0.3503-0.0108 0.4634-0.0108c0.2741 0 0.6961 0.0108 1.2639 0.0347 0.57 0.0217 1.1705 0.0347 1.8035 0.0347 0.2437 0 0.3677-0.0673 0.3677-0.204 0-0.0455-0.0218-0.0911-0.0653-0.1366-0.0435-0.0456-0.1218-0.0673-0.2371-0.0673-0.1436 0-0.3089-0.0043-0.4982-0.0108-0.1871-0.0087-0.3459-0.0261-0.4742-0.0564-0.2872-0.0456-0.4743-0.1541-0.5613-0.3298-0.087-0.1736-0.1436-0.397-0.1719-0.6682-0.0435-0.4231-0.0718-0.9936-0.087-1.7096-0.0152-0.7181-0.0218-1.5208-0.0218-2.4124v-7.7907l2.3974 0.04557c0.4308 0 0.7876 0.0369 1.0704 0.1128 0.2806 0.0759 0.5068 0.1671 0.6809 0.2712 0.1719 0.1063 0.2959 0.2234 0.3677 0.3514 0.0717 0.128 0.1153 0.2539 0.1305 0.3732l0.0217 0.2039c0.0153 0.256 0.0871 0.3862 0.2154 0.3862 0.087 0 0.1436-0.1063 0.1719-0.3168 0-0.1214 0.0043-0.2907 0.0109-0.5098 0.0065-0.2191 0.0108-0.4491 0.0108-0.692 0-0.24086 0.0044-0.46432 0.0109-0.66825s0.0109-0.35797 0.0109-0.46427c0-0.27119-0.0501-0.40786-0.1501-0.40786-0.0283 0-0.0827 0.00867-0.161 0.02169-0.0805 0.01519-0.198 0.03688-0.3568 0.06726-0.1436 0.03037-0.3198 0.05206-0.5286 0.06725-0.2089 0.01519-0.4634 0.02169-0.7658 0.02169h-7.7121c-0.3176 0-0.6418-0.0065-0.9725-0.02169-0.3306-0.01519-0.6417-0.03688-0.9289-0.06725-0.2458-0.03038-0.4242-0.07594-0.5395-0.13668-0.1153-0.06075-0.2089-0.09112-0.2807-0.09112-0.1 0-0.1718 0.12149-0.2153 0.3623-0.0153 0.04556-0.0436 0.1779-0.0871 0.39702s-0.0892 0.45776-0.1414 0.71381c-0.05 0.256-0.0935 0.5054-0.1283 0.7484-0.037 0.2408-0.0544 0.3992-0.0544 0.4751 0 0.2105 0.0587 0.3168 0.1719 0.3168 0.1 0 0.174-0.0824 0.2175-0.2495 0.0283-0.0759 0.0653-0.1692 0.1088-0.282 0.0435-0.1129 0.1153-0.2387 0.2153-0.3732 0.1436-0.2104 0.3481-0.358 0.6157-0.4426 0.2676-0.0824 0.6744-0.1323 1.2205-0.1475l2.8303-0.06724v7.7906l-0.0065-0.0022z"/>
    <path d="m147.84 23.686c0.346 0 0.703-0.0109 1.07-0.0348 0.368-0.0216 0.725-0.052 1.071-0.0911 0.346-0.0369 0.67-0.0911 0.972-0.1583 0.303-0.0673 0.561-0.1476 0.777-0.2387 0.187-0.0759 0.313-0.154 0.378-0.2386 0.066-0.0825 0.127-0.2235 0.185-0.4187 0.057-0.1975 0.116-0.4491 0.172-0.7594 0.059-0.3102 0.109-0.6183 0.152-0.9285 0.044-0.3102 0.079-0.5879 0.109-0.8374 0.028-0.2495 0.044-0.4101 0.044-0.486 0-0.0911-0.016-0.1692-0.044-0.2386-0.028-0.0673-0.078-0.102-0.152-0.102-0.087 0-0.148 0.0304-0.183 0.0911-0.037 0.0608-0.069 0.1801-0.098 0.3623-0.043 0.2105-0.13 0.4599-0.259 0.7463-0.13 0.2864-0.287 0.5359-0.474 0.7485-0.433 0.5294-0.957 0.8721-1.577 1.0305s-1.412 0.2386-2.376 0.2386c-0.72 0-1.479-0.167-2.28-0.4989-0.798-0.332-1.533-0.8353-2.203-1.5057-0.671-0.6725-1.225-1.5143-1.665-2.5252-0.439-1.011-0.659-2.1891-0.659-3.5341 0-1.1021 0.133-2.163 0.4-3.1827 0.268-1.0197 0.797-1.9135 1.589-2.6836 0.474-0.45342 1.033-0.80054 1.675-1.0414 0.641-0.24081 1.435-0.3623 2.386-0.3623 0.994 0 1.884 0.13668 2.667 0.40787 0.786 0.27118 1.358 0.60528 1.719 0.99579 0.274 0.30156 0.479 0.63783 0.616 1.0088 0.137 0.36882 0.213 0.72894 0.226 1.076 0 0.332 0.072 0.499 0.215 0.499 0.1 0 0.166-0.0455 0.194-0.1367 0.028-0.0911 0.05-0.2191 0.065-0.3861 0.015-0.1063 0.022-0.256 0.022-0.4535 0-0.2104 2e-3 -0.42952 0.011-0.65731 6e-3 -0.22563 0.011-0.45994 0.011-0.70292 0-0.24081 6e-3 -0.45342 0.021-0.63349 0.029-0.39268 0.055-0.67471 0.077-0.84827 0.021-0.17356 0.032-0.3059 0.032-0.39701 0-0.16705-0.109-0.256-0.324-0.27119-0.331-0.03037-0.67-0.08678-1.016-0.16922s-0.727-0.15404-1.144-0.21478c-0.505-0.07593-0.984-0.13234-1.436-0.16922-0.455-0.03688-1.018-0.05641-1.697-0.05641-1.612 0-2.961 0.21261-4.04 0.63349-1.081 0.42305-2.01 1.011-2.787 1.766-0.517 0.49898-0.944 1.0305-1.274 1.5967-0.331 0.56622-0.588 1.1238-0.766 1.677-0.181 0.551-0.307 1.0826-0.379 1.5967-0.072 0.5142-0.109 0.959-0.109 1.3364 0 0.5446 0.04 1.1065 0.12 1.6879 0.078 0.5814 0.22 1.1629 0.422 1.7443s0.474 1.1476 0.82 1.6987c0.346 0.551 0.786 1.0674 1.319 1.5512 0.994 0.9047 2.106 1.5447 3.337 1.9135 1.231 0.3709 2.589 0.5554 4.072 0.5554h-4e-3zm11.796-8.6064c-0.087 0-0.131-0.0456-0.131-0.1367v-0.4079-1.7898-1.178c0-0.3168 4e-3 -0.5706 0.011-0.7593 6e-3 -0.1888 0.017-0.358 0.033-0.5099 0.028-0.34709 0.091-0.59657 0.184-0.74844 0.094-0.15186 0.27-0.24949 0.529-0.29505 0.215-0.04556 0.396-0.06725 0.54-0.06725 0.23 0 0.345-0.06726 0.345-0.20394 0-0.12149-0.13-0.18007-0.389-0.18007-0.187 0-0.402 0.00434-0.648 0.01085-0.244 0.00868-0.49 0.01085-0.733 0.01085-0.231 0-0.451 0.00434-0.66 0.01085-0.208 0.00651-0.369 0.01085-0.487 0.01085-0.128 0-0.298-0.00434-0.507-0.01085-0.209-0.00868-0.444-0.01085-0.702-0.01085-0.246 0-0.505-0.00434-0.777-0.01085-0.274-0.00868-0.54-0.01085-0.801-0.01085-0.274 0-0.411 0.06075-0.411 0.18007 0 0.13668 0.109 0.20394 0.324 0.20394 0.144 0 0.287 0.00433 0.433 0.01084 0.144 0.00651 0.253 0.02604 0.324 0.05641 0.303 0.09112 0.507 0.20393 0.616 0.34061s0.176 0.37098 0.205 0.70288c0 0.1519 2e-3 0.3124 0.01 0.486 7e-3 0.1736 0.011 0.4035 0.011 0.6899v1.1325 1.7659 3.3975c0 0.8916-4e-3 1.6943-0.011 2.4124-8e-3 0.7181-0.032 1.28-0.076 1.6879-0.028 0.2864-0.078 0.5163-0.15 0.6899s-0.209 0.2842-0.411 0.3298c-0.172 0.0455-0.396 0.0672-0.67 0.0672-0.115 0-0.194 0.0217-0.237 0.0673-0.044 0.0455-0.065 0.0911-0.065 0.1366 0 0.1367 0.121 0.204 0.367 0.204 0.187 0 0.401-0.0044 0.638-0.0109 0.237-0.0087 0.472-0.0152 0.702-0.0217 0.231-0.0065 0.444-0.0152 0.638-0.0217 0.193-0.0065 0.35-0.0108 0.465-0.0108 0.274 0 0.703 0.0108 1.286 0.0347 0.583 0.0217 1.183 0.0347 1.804 0.0347 0.258 0 0.389-0.0672 0.389-0.2039 0-0.0456-0.022-0.0911-0.065-0.1367-0.044-0.0456-0.122-0.0673-0.237-0.0673-0.144 0-0.309-0.0043-0.499-0.0108-0.187-0.0087-0.346-0.026-0.474-0.0564-0.287-0.0456-0.474-0.154-0.561-0.3298-0.087-0.1735-0.144-0.397-0.172-0.6682-0.044-0.423-0.072-0.9849-0.087-1.6878-0.015-0.703-0.022-1.4992-0.022-2.3886v-1.4731c0-0.076 0.044-0.1128 0.131-0.1128h7.172c0.072 0 0.109 0.0368 0.109 0.1128v1.4731c0 0.8916-4e-3 1.6878-0.011 2.3886-6e-3 0.7029-0.032 1.2561-0.076 1.664-0.028 0.2863-0.078 0.5163-0.152 0.6899-0.072 0.1735-0.209 0.2842-0.411 0.3297-0.172 0.0456-0.403 0.0673-0.692 0.0673-0.116 0-0.194 0.0217-0.237 0.0672-0.044 0.0456-0.066 0.0912-0.066 0.1367 0 0.1367 0.137 0.2039 0.412 0.2039 0.187 0 0.402-0.0043 0.648-0.0108 0.244-0.0087 0.485-0.0152 0.724-0.0217 0.237-0.0065 0.457-0.0152 0.659-0.0217 0.203-0.0065 0.362-0.0108 0.477-0.0108 0.259 0 0.67 0.0108 1.231 0.0347 0.562 0.0217 1.153 0.0347 1.771 0.0347 0.259 0 0.39-0.0673 0.39-0.204 0-0.0455-0.027-0.0911-0.077-0.1366-0.05-0.0456-0.126-0.0673-0.226-0.0673-0.159 0-0.328-0.0043-0.507-0.0108-0.18-0.0087-0.335-0.0261-0.465-0.0564-0.288-0.0456-0.479-0.1541-0.572-0.3298-0.094-0.1736-0.155-0.397-0.185-0.6682-0.044-0.4231-0.068-0.9936-0.077-1.7096-6e-3 -0.7181-0.01-1.5208-0.01-2.4124v-3.3975-1.7659-1.1325c0-0.2864 4e-3 -0.5163 0.01-0.6899 7e-3 -0.1735 0.018-0.3363 0.033-0.486 0.028-0.34708 0.089-0.59656 0.183-0.74843 0.093-0.15186 0.263-0.24949 0.507-0.29505 0.23-0.04556 0.417-0.06726 0.561-0.06726 0.231 0 0.346-0.06725 0.346-0.20393 0-0.12149-0.137-0.18007-0.411-0.18007-0.187 0-0.396 0.00434-0.627 0.01085-0.23 0.00868-0.461 0.01085-0.692 0.01085-0.23 0-0.446 0.00434-0.648 0.01085s-0.361 0.01085-0.474 0.01085c-0.131 0-0.303-0.00434-0.518-0.01085-0.217-0.00868-0.455-0.01085-0.714-0.01085-0.258 0-0.528-0.00434-0.809-0.01085-0.28-0.00868-0.55-0.01085-0.809-0.01085-0.274 0-0.411 0.06075-0.411 0.18007 0 0.13668 0.109 0.20393 0.324 0.20393 0.13 0 0.267 0.00434 0.411 0.01085s0.252 0.02603 0.324 0.05641c0.303 0.09112 0.507 0.20393 0.616 0.34061s0.176 0.37098 0.204 0.70287c0 0.1519 3e-3 0.3211 0.011 0.5099 7e-3 0.1887 0.015 0.4382 0.022 0.7463 7e-3 0.3102 0.011 0.7051 0.011 1.1889v1.7898 0.4078c0 0.0912-0.037 0.1367-0.109 0.1367h-7.172v-0.0043zm16.052 2.6945c0 0.8917-4e-3 1.6944-0.01 2.4125-7e-3 0.7181-0.033 1.28-0.077 1.6878-0.028 0.2864-0.078 0.5164-0.15 0.6899-0.071 0.1736-0.208 0.2842-0.411 0.3298-0.172 0.0455-0.396 0.0672-0.67 0.0672-0.115 0-0.193 0.0217-0.237 0.0673s-0.065 0.0911-0.065 0.1367c0 0.1367 0.122 0.2039 0.367 0.2039 0.203 0 0.414-0.0043 0.638-0.0108 0.224-0.0087 0.45-0.0196 0.681-0.0347 0.23 0 0.439-0.0044 0.626-0.0109s0.34-0.0108 0.455-0.0108c0.287 0 0.613 0.0043 0.972 0.0108 0.362 0.0087 0.771 0.0195 1.232 0.0347 0.922 0.0456 2.088 0.0673 3.5 0.0673 0.172 0 0.318-0.0044 0.433-0.0109 0.115-0.0087 0.213-0.026 0.292-0.0564 0.078-0.0304 0.141-0.0781 0.182-0.1475 0.044-0.0673 0.079-0.1627 0.109-0.282 0.028-0.0912 0.057-0.2343 0.087-0.4296 0.028-0.1974 0.057-0.3992 0.087-0.6118 0.028-0.2104 0.05-0.4187 0.065-0.6226 0.016-0.204 0.022-0.358 0.022-0.4643s-0.011-0.2083-0.033-0.3059c-0.021-0.0976-0.067-0.1475-0.141-0.1475-0.1 0-0.172 0.0976-0.215 0.295-0.072 0.3927-0.166 0.6986-0.281 0.9177s-0.296 0.3883-0.539 0.5098c-0.244 0.1215-0.544 0.1931-0.897 0.2148-0.352 0.0217-0.65 0.0347-0.896 0.0347-0.49 0-0.896-0.0217-1.221-0.0672-0.324-0.0456-0.583-0.128-0.778-0.2495-0.194-0.1215-0.335-0.2821-0.422-0.486s-0.137-0.4729-0.15-0.8049v-0.5879-0.7919-0.8157-0.6573-1.5404c0-0.1367 0.034-0.2039 0.108-0.2039 0.116 0 0.32 0.0043 0.616 0.0108 0.296 0.0087 0.605 0.0152 0.929 0.0217 0.324 0.0087 0.622 0.0152 0.896 0.0217 0.274 0.0087 0.455 0.0196 0.54 0.0347 0.361 0.0304 0.611 0.1129 0.757 0.2495 0.143 0.1367 0.246 0.3016 0.302 0.499 0.028 0.1215 0.044 0.2408 0.044 0.3623s6e-3 0.2343 0.021 0.3406c0 0.1063 0.059 0.1584 0.172 0.1584 0.087 0 0.142-0.0542 0.163-0.1584 0.022-0.1063 0.033-0.1974 0.033-0.2712 0-0.0759 7e-3 -0.2603 0.022-0.5553 0.015-0.2951 0.035-0.5403 0.065-0.7355 0.059-0.4838 0.098-0.8222 0.118-1.0197 0.021-0.1974 0.032-0.3254 0.032-0.3861 0-0.1367-0.05-0.204-0.15-0.204-0.043 0-0.087 0.0217-0.13 0.0673-0.044 0.0455-0.1 0.1063-0.172 0.1822-0.087 0.1063-0.203 0.1736-0.346 0.204-0.144 0.0303-0.331 0.0607-0.561 0.0911-0.116 0.0152-0.331 0.026-0.649 0.0347-0.317 0.0087-0.655 0.0108-1.016 0.0108h-1.037-0.627c-0.087 0-0.128-0.0672-0.128-0.2039v-4.7555c0-0.12151 0.043-0.18008 0.128-0.18008 0.1 0 0.296 0.00433 0.583 0.01084s0.598 0.01519 0.929 0.0217c0.331 0.0065 0.637 0.01518 0.918 0.02169 0.281 0.00868 0.466 0.01952 0.55 0.03475 0.475 0.0455 0.786 0.1323 0.929 0.2603 0.144 0.128 0.253 0.2755 0.325 0.4426 0.058 0.1215 0.093 0.2495 0.108 0.3861 0.016 0.1367 0.022 0.2409 0.022 0.3168 0 0.167 0.05 0.2495 0.152 0.2495 0.072 0 0.122-0.0412 0.15-0.1258 0.029-0.0825 0.051-0.1476 0.066-0.1931 0.015-0.0608 0.026-0.1519 0.032-0.2712 7e-3 -0.1215 0.018-0.2452 0.033-0.3732s0.026-0.2538 0.033-0.3731c6e-3 -0.1215 0.011-0.204 0.011-0.2495 0.028-0.43825 0.06-0.73547 0.097-0.89384 0.035-0.15838 0.055-0.27553 0.055-0.35146 0-0.12149-0.044-0.18224-0.131-0.18224-0.043 0-0.089 0.01085-0.141 0.03471-0.05 0.0217-0.105 0.04122-0.161 0.05641-0.072 0.01519-0.181 0.03471-0.324 0.05641-0.144 0.02169-0.303 0.04122-0.475 0.0564h-0.476-0.907-1.123-1.144-0.972-0.562c-0.274 0-0.674-0.0065-1.198-0.02169-0.527-0.01519-1.04-0.0217-1.545-0.0217-0.287 0-0.431 0.06075-0.431 0.18007 0 0.13668 0.109 0.20393 0.324 0.20393 0.144 0 0.288 0.00434 0.433 0.01085 0.144 0.00651 0.253 0.02603 0.324 0.05641 0.303 0.09112 0.507 0.20393 0.616 0.34061 0.109 0.13667 0.176 0.37098 0.205 0.70293 0 0.1518 4e-3 0.3124 0.01 0.4859 7e-3 0.1736 0.011 0.4036 0.011 0.6899v1.1325 1.766 3.3974l-0.011-0.0065zm14.994-1.5186c0-0.1064 0.043-0.1584 0.131-0.1584h0.539c0.287 0 0.598 0.0043 0.929 0.0108 0.331 0.0087 0.648 0.0152 0.951 0.0217 0.302 0.0087 0.511 0.0195 0.626 0.0347 0.287 0.0304 0.501 0.1215 0.638 0.2712 0.137 0.1519 0.226 0.2951 0.269 0.4296 0.087 0.2256 0.129 0.423 0.129 0.5879 0 0.0759 0.015 0.1389 0.043 0.1931 0.029 0.0521 0.072 0.0781 0.131 0.0781 0.1 0 0.161-0.0521 0.185-0.1584 0.021-0.1063 0.032-0.1974 0.032-0.2712v-0.2039c0-0.1215 5e-3 -0.2538 0.011-0.397 7e-3 -0.1432 0.015-0.2907 0.022-0.4426 6e-3 -0.1519 0.017-0.2712 0.033-0.3623 0.028-0.3015 0.06-0.5706 0.097-0.8049s0.055-0.3818 0.055-0.4425c0-0.1215-0.037-0.1801-0.109-0.1801-0.056 0-0.1 0.0195-0.128 0.0564-0.029 0.0369-0.072 0.0868-0.131 0.1475-0.087 0.1215-0.198 0.2039-0.335 0.2495s-0.291 0.0759-0.465 0.0911c-0.144 0.0152-0.288 0.0217-0.433 0.0217h-0.433l-2.656 0.0217c-0.088 0-0.131-0.0607-0.131-0.1801v-4.6665c0-0.1215 0.015-0.1953 0.043-0.22565 0.029-0.03037 0.072-0.04556 0.131-0.04556l3.154 0.06725c0.362 0.01516 0.634 0.08246 0.821 0.20396s0.317 0.2495 0.389 0.3861c0.072 0.1346 0.109 0.2712 0.109 0.4079v0.3168c0 0.2104 0.078 0.3167 0.237 0.3167 0.072 0 0.12-0.0456 0.141-0.1367 0.022-0.0911 0.04-0.1735 0.055-0.2495 0-0.0607 4e-3 -0.167 0.011-0.3167 6e-3 -0.1519 0.017-0.3103 0.032-0.4751 0.015-0.1671 0.026-0.3255 0.033-0.47515 6e-3 -0.15186 0.011-0.24949 0.011-0.29505 0.028-0.256 0.061-0.44475 0.098-0.56624s0.054-0.21912 0.054-0.29505c0-0.12149-0.043-0.18224-0.128-0.18224-0.059 0-0.109 0.01519-0.153 0.04557-0.043 0.03037-0.093 0.05206-0.152 0.06725-0.159 0.03037-0.418 0.06074-0.777 0.09112h-0.928-1.665-1.727-1.079c-0.274 0-0.674-0.00651-1.199-0.0217-0.526-0.01519-1.033-0.02169-1.523-0.02169-0.302 0-0.454 0.06074-0.454 0.18007 0 0.07593 0.032 0.12799 0.098 0.15837 0.065 0.03037 0.141 0.04556 0.226 0.04556 0.143 0 0.287 0.00433 0.431 0.01084 0.143 0.00651 0.252 0.02604 0.324 0.05641 0.302 0.07593 0.507 0.18441 0.615 0.32976 0.109 0.14319 0.177 0.38183 0.205 0.71377 0 0.1519 4e-3 0.3124 0.011 0.486 6e-3 0.1735 0.011 0.4035 0.011 0.6899v1.1324 1.766 3.3974c0 0.9372-5e-3 1.7508-0.011 2.4472-7e-3 0.6942-0.033 1.2453-0.076 1.6532-0.029 0.2863-0.079 0.5163-0.153 0.6899-0.071 0.1735-0.208 0.2842-0.411 0.3297-0.172 0.0456-0.396 0.0673-0.67 0.0673-0.115 0-0.191 0.0217-0.226 0.0672-0.037 0.0456-0.055 0.0911-0.055 0.1367 0 0.1367 0.129 0.2039 0.39 0.2039 0.172 0 0.374-0.0043 0.605-0.0108 0.23-0.0087 0.457-0.0152 0.681-0.0217s0.435-0.0152 0.637-0.0217 0.368-0.0109 0.496-0.0109c0.131 0 0.302 0.0044 0.518 0.0109 0.217 0.0087 0.461 0.0152 0.735 0.0217 0.274 0.0087 0.566 0.0152 0.875 0.0217 0.309 0.0087 0.615 0.0108 0.918 0.0108 0.274 0 0.411-0.0672 0.411-0.2039 0-0.0456-0.026-0.0911-0.076-0.1367-0.05-0.0455-0.133-0.0672-0.248-0.0672-0.131 0-0.285-0.0044-0.464-0.0109-0.18-0.0087-0.335-0.026-0.465-0.0564-0.287-0.0455-0.479-0.154-0.572-0.3297-0.094-0.1736-0.155-0.4036-0.183-0.6899-0.044-0.4079-0.072-0.9481-0.087-1.6207-0.015-0.6725-0.022-1.4752-0.022-2.4124v-1.5859l-2e-3 0.0087z"/>
    <path d="m71.284 25.572c4.1562 6.0492 27.046 2.2845 34.95 0.7726 1.777-0.4641 3.204-0.4954 4.978-0.7724 3.788-0.4309 5.736 0.3455 10.098-1.4892 1.474-0.62 9.414-4.9178 9.247-5.3397-0.166-0.422-6.108 2.4237-8.9 3.2069-0.489 0.137-1.619 0.6386-1.792 0.2459-0.172-0.3927 2.073-1.2202 3.493-1.7568 0.864-0.3211 9.977-3.4827 9.831-4.0279-0.146-0.5451-4.925 1.0562-5.687 1.2975-1.983 0.6273-8.515 3.019-8.712 2.4946-0.197-0.5243 1.063-0.8419 1.468-1.0167 3.534-1.2624 8.863-3.019 13.497-4.6285 0.747-0.2608 1.648-0.5568 1.541-0.9295-0.107-0.3726-7.98 1.6741-12.516 2.7754-2.283 0.5703-2.776 0.5621-4.973 1.5873-2.161 1.0071-3.495 2.4772-5.437 3.9929-2.002 1.5618-2.908 1.7912-4.469 2.4763-6.082 2.6692-40.516 5.1308-35.105-5.6199 0.5529-1.2149 1.8216-2.6534 3.2888-3.7211-3.0408 2.0601-7.7861 6.1065-4.8002 10.452z" clip-rule="evenodd" fill="#FF2D55" fill-rule="evenodd"/>
    <path d="m79.753 19.294s9.5468 4.0215 24.155 1.0833c4.5-0.905 18.275-4.7387 23.285-11.903 0 0-3.693 3.9511-13.305 7.1638s-17.102 4.1902-24.583 4.3274c-7.4811 0.1371-9.3307-0.672-9.5515-0.672z" clip-rule="evenodd" fill-rule="evenodd"/>
    <path d="m92.976 5.1288c7.343-2.3037 20.318-4.498 28.986-1.5361 3.379 1.1547 3.549 3.7203-0.276 7.0209 1.077-0.6034 3.599-2.6636 4.223-3.9097 1.192-2.3769-0.776-3.8781-2.76-4.5938-9.971-3.6043-35.887 0.63251-43.727 8.9553 2.0152-1.4936 6.2113-3.6328 13.554-5.9365z"/>
    <path d="m96.512 8.8231c4.9301-1.5467 13.641-3.0199 19.461-1.0313 2.269 0.77525 2.382 2.4978-0.186 4.7138 0.723-0.4051 2.417-1.7883 2.836-2.625 0.8-1.5958-0.521-2.6037-1.853-3.0842-6.694-2.4199-24.095 0.42466-29.358 6.0124 1.353-1.0028 4.1702-2.439 9.1003-3.9857z"/>
</svg>
