<svg width="247" height="40" viewBox="0 0 247 40" fill="none" xmlns="http://www.w3.org/2000/svg">
<path d="M4.49319 30.4594C5.21967 30.4594 5.94889 30.3754 6.68633 30.2104C7.42103 30.0453 8.1338 29.7291 8.8219 29.2618C9.31261 28.9121 9.72109 28.5315 10.0473 28.123C10.3735 27.7145 10.6367 27.2864 10.8368 26.8387C11.037 26.391 11.1768 25.9433 11.259 25.4956C11.3413 25.0479 11.3824 24.6086 11.3824 24.1805C11.3824 23.481 11.3056 22.8234 11.1521 22.2079C10.9986 21.5951 10.7436 20.9963 10.39 20.4115C10.0364 19.8267 9.57305 19.2335 9.00009 18.6291C8.42713 18.0247 7.73355 17.3924 6.91661 16.732L6.15449 16.1192C5.5925 15.652 5.12372 15.2351 4.75363 14.8629C4.38079 14.4936 4.08746 14.1466 3.86815 13.8248C3.65158 13.503 3.49531 13.1869 3.40485 12.8763C3.31438 12.5657 3.26778 12.2439 3.26778 11.9109C3.26778 11.0351 3.55288 10.3132 4.12584 9.74802C4.6988 9.18281 5.49107 8.90021 6.50814 8.90021C6.94402 8.90021 7.32508 8.94778 7.65131 9.04571C7.97754 9.14364 8.25991 9.26396 8.49567 9.41226C8.73143 9.55776 8.92607 9.71445 9.07959 9.87953C9.23311 10.0446 9.3647 10.1957 9.47436 10.3328C9.76495 10.7218 9.95685 11.1079 10.0473 11.4856C10.1378 11.8662 10.1844 12.1236 10.1844 12.2607C10.1844 12.6105 10.2749 12.7867 10.4558 12.7867C10.5654 12.7867 10.6422 12.7224 10.6861 12.5965C10.7327 12.4706 10.7546 12.2411 10.7546 11.9109C10.7546 10.7609 10.7738 9.93829 10.8094 9.44303C10.8451 8.94777 10.8643 8.60081 10.8643 8.40495C10.8643 8.23147 10.7382 8.11395 10.4832 8.05519C10.1213 7.95725 9.64707 7.85093 9.06863 7.73341C8.48745 7.61589 7.75274 7.55713 6.86452 7.55713C5.92147 7.55713 5.06341 7.69424 4.29033 7.96565C3.51999 8.23706 2.85656 8.6176 2.3028 9.10447C1.74903 9.59133 1.32411 10.1761 1.02255 10.8561C0.723736 11.5388 0.572957 12.2775 0.572957 13.0749C0.572957 13.6597 0.641493 14.2333 0.775823 14.7986C0.912894 15.3638 1.13769 15.9234 1.4557 16.4774C1.7737 17.0314 2.1904 17.6022 2.70853 18.187C3.22665 18.7718 3.85718 19.3762 4.60011 19.9974L5.85294 21.0495C6.41493 21.5167 6.87275 21.9588 7.22639 22.3785C7.58003 22.7955 7.85144 23.19 8.04333 23.5621C8.23523 23.9315 8.36134 24.298 8.42439 24.6562C8.48744 25.0171 8.52034 25.3725 8.52034 25.7222C8.52034 26.1112 8.44358 26.5029 8.29006 26.8918C8.13654 27.2808 7.90901 27.6361 7.61019 27.9579C7.31138 28.2797 6.93306 28.5427 6.48072 28.747C6.02839 28.9512 5.49107 29.0548 4.87425 29.0548C4.02167 29.0548 3.23488 28.8365 2.51937 28.3972C1.80386 27.9579 1.28847 27.194 0.981429 26.1056C0.910152 25.851 0.849841 25.5907 0.805978 25.3165C0.759374 25.0451 0.737443 24.8101 0.737443 24.6142C0.737443 24.4967 0.723736 24.3848 0.696321 24.2784C0.668907 24.1721 0.592147 24.1189 0.4633 24.1189C0.356385 24.1189 0.276884 24.1917 0.233021 24.3372C0.186417 24.4827 0.156261 24.6646 0.137071 24.8772C0.137071 24.9947 0.128847 25.185 0.109657 25.448C0.090467 25.7111 0.0740184 26.0188 0.0548285 26.3686C0.0356385 26.7184 0.0246728 27.0933 0.0137071 27.4934C0.00548285 27.8936 0 28.2965 0 28.705C0 29.0352 0.0328971 29.259 0.0959498 29.3765C0.159003 29.4941 0.298815 29.6004 0.518129 29.6983C1.09931 29.9697 1.70791 30.1656 2.34118 30.2831C2.97719 30.4006 3.6927 30.4594 4.49045 30.4594H4.49319ZM15.6289 27.569C15.574 27.9775 15.4781 28.386 15.3437 28.7945C15.2067 29.2031 14.9764 29.4269 14.6502 29.4661C14.45 29.5052 14.2965 29.5248 14.1869 29.5248C14.0964 29.5248 14.0059 29.5248 13.9155 29.5248C13.6605 29.5248 13.5344 29.6032 13.5344 29.7599C13.5344 29.9557 13.6797 30.0509 13.9703 30.0509C14.3513 30.0509 14.7818 30.0369 15.2642 30.0061C15.744 29.9781 16.1031 29.9613 16.3389 29.9613C16.5555 29.9613 16.9064 29.9753 17.3861 30.0061C17.8659 30.0341 18.3621 30.0509 18.8692 30.0509C19.2503 30.0509 19.4394 29.9529 19.4394 29.7599C19.4394 29.6032 19.3133 29.5248 19.0584 29.5248C18.8582 29.5248 18.5786 29.4857 18.214 29.4073C18.0139 29.3681 17.8412 29.2954 17.6959 29.1891C17.5506 29.0827 17.4793 28.9121 17.4793 28.677C17.4793 28.4616 17.4848 28.2685 17.493 28.0922C17.5012 27.9159 17.5232 27.7229 17.5616 27.5074L18.7047 17.8093H18.787C18.9871 18.2374 19.2146 18.7354 19.4668 19.2979C19.7218 19.8631 19.9658 20.4087 20.2015 20.9347C20.4373 21.4608 20.6457 21.928 20.8266 22.3366C21.0075 22.7451 21.1254 23.0081 21.1802 23.1256C21.2515 23.3019 21.4078 23.6405 21.6435 24.1469C21.8793 24.6534 22.1425 25.199 22.4331 25.7838C22.7237 26.3686 23.0088 26.9366 23.2911 27.4934C23.5735 28.0475 23.7846 28.4728 23.9299 28.7638C24.13 29.1527 24.3027 29.4605 24.448 29.6843C24.5933 29.9082 24.7386 30.0201 24.8839 30.0201C25.0292 30.0201 25.1553 29.9334 25.265 29.7571C25.3746 29.5808 25.5638 29.2031 25.8379 28.6183L30.9836 17.5183H31.0658L32.4009 28.2685C32.4365 28.6183 32.4475 28.8729 32.4283 29.0296C32.4091 29.1863 32.3652 29.2814 32.2912 29.3206C32.1103 29.3793 32.0198 29.4661 32.0198 29.5836C32.0198 29.6619 32.0637 29.7263 32.1569 29.7739C32.2474 29.8214 32.4393 29.8578 32.7298 29.8746C32.9656 29.8942 33.3302 29.9138 33.8182 29.9334C34.3089 29.9529 34.8161 29.9725 35.3424 29.9921C35.8688 30.0117 36.354 30.0257 36.7981 30.0369C37.2422 30.0481 37.5383 30.0509 37.6836 30.0509C37.8645 30.0509 38.0153 30.0257 38.1332 29.9781C38.2511 29.9306 38.3114 29.8578 38.3114 29.7599C38.3114 29.6032 38.1853 29.5248 37.9303 29.5248C37.785 29.5248 37.6068 29.5108 37.3985 29.4801C37.1901 29.4521 36.9133 29.3877 36.5678 29.2898C36.206 29.1723 35.9455 28.9288 35.792 28.5595C35.6385 28.1902 35.5069 27.6137 35.3973 26.8359L33.2206 11.4996C33.1849 11.2282 33.1082 11.0267 32.9875 10.9008C32.8697 10.7749 32.7655 10.7106 32.675 10.7106C32.4393 10.7106 32.2309 10.9148 32.05 11.3233L25.6241 25.3445L19.1982 11.4968C19.0337 11.1666 18.9021 10.9512 18.8034 10.8533C18.7047 10.7553 18.5896 10.7078 18.4635 10.7078C18.373 10.7078 18.2825 10.7609 18.1921 10.8701C18.1016 10.9764 18.0386 11.1387 18.0002 11.3513L15.6316 27.5634L15.6289 27.569ZM49.1702 23.8C49.2963 23.8 49.3785 23.8587 49.4142 23.9762L51.2646 28.9708C51.3194 29.1275 51.3194 29.2534 51.2646 29.3513C51.2098 29.4493 51.1385 29.508 51.048 29.5276C50.8479 29.5472 50.7492 29.634 50.7492 29.7906C50.7492 29.8886 50.8123 29.9417 50.9411 29.9501C51.0672 29.9585 51.2399 29.9753 51.4593 29.9949C52.4763 30.0341 53.392 30.0537 54.2089 30.0537C55.0258 30.0537 55.6427 30.0537 56.0594 30.0537C56.5144 30.0537 56.7995 30.0341 56.9174 29.9949C57.0353 29.9557 57.0956 29.8886 57.0956 29.7906C57.0956 29.6144 56.986 29.5276 56.7694 29.5276C56.5144 29.5276 56.2156 29.4996 55.8702 29.4409C55.7605 29.4213 55.6399 29.3765 55.5028 29.3094C55.3658 29.2394 55.2123 29.1135 55.0396 28.9288C54.8668 28.7442 54.6804 28.4812 54.4803 28.1398C54.2802 27.7984 54.0636 27.3451 53.8278 26.7827C53.5729 26.1587 53.2604 25.3809 52.8875 24.4463C52.5147 23.5118 52.1199 22.5129 51.7032 21.4524C51.2865 20.3891 50.8589 19.3202 50.423 18.2402C49.9871 17.1601 49.5869 16.1556 49.225 15.2323C48.8631 14.3061 48.5451 13.5086 48.271 12.8371C47.9996 12.1656 47.8159 11.7123 47.7254 11.48C47.5993 11.2086 47.4924 11.0072 47.4129 10.8812C47.3307 10.7553 47.1991 10.691 47.0181 10.691C46.8016 10.691 46.5631 11.0211 46.3109 11.6843L40.0494 27.3115C39.7945 27.9355 39.5368 28.4308 39.2736 28.8029C39.0104 29.1723 38.6075 29.4073 38.0619 29.5024C37.9523 29.5024 37.8344 29.508 37.7083 29.5164C37.5822 29.5248 37.4643 29.5304 37.3546 29.5304C37.1737 29.5304 37.0805 29.6172 37.0805 29.7935C37.0805 29.9697 37.2258 30.0565 37.5164 30.0565C38.1524 30.0565 38.7418 30.0425 39.2846 30.0117C39.8301 29.9837 40.1646 29.9669 40.2934 29.9669C40.6745 29.9669 41.1131 29.9809 41.6121 30.0117C42.111 30.0397 42.5606 30.0565 42.9608 30.0565C43.2158 30.0565 43.3419 29.9697 43.3419 29.7935C43.3419 29.7151 43.32 29.6507 43.2734 29.6032C43.2295 29.5556 43.1335 29.5304 42.9883 29.5304H42.6346C42.2727 29.5304 42.0233 29.4689 41.8862 29.3402C41.7491 29.2142 41.6833 29.0436 41.6833 28.8281C41.6833 28.6714 41.7108 28.4588 41.7656 28.1846C41.8204 27.9131 41.9109 27.6193 42.037 27.3088L43.3172 23.979C43.3529 23.8615 43.4269 23.8028 43.5338 23.8028H49.1702V23.8ZM44.0245 22.4261C43.9149 22.4261 43.8874 22.3673 43.9423 22.2498L46.256 15.9709C46.2752 15.9318 46.2917 15.8842 46.3109 15.8254C46.33 15.7667 46.3575 15.7387 46.3931 15.7387C46.4287 15.7387 46.4534 15.7667 46.4616 15.8254C46.4699 15.8842 46.4836 15.9318 46.5028 15.9709L48.7617 22.2806C48.7973 22.3785 48.7617 22.4261 48.652 22.4261H44.0245ZM59.7054 22.8346C59.7054 23.9846 59.7 25.0199 59.6917 25.9461C59.6835 26.8723 59.6506 27.597 59.5958 28.123C59.5602 28.4923 59.4971 28.7889 59.4039 29.0128C59.3134 29.2366 59.1407 29.3793 58.8858 29.4381C58.6692 29.4968 58.3868 29.5248 58.0414 29.5248C57.8961 29.5248 57.7974 29.5528 57.7426 29.6116C57.6878 29.6703 57.6604 29.7291 57.6604 29.7878C57.6604 29.9641 57.8139 30.0509 58.1236 30.0509C58.3594 30.0509 58.6226 30.0453 58.9132 30.0369C59.2038 30.0257 59.4889 30.0173 59.7712 30.0089C60.0536 30.0005 60.3113 29.9893 60.5471 29.9809C60.7828 29.9725 60.9555 29.9669 61.0652 29.9669C61.1557 29.9669 61.3366 29.9725 61.6107 29.9809C61.8821 29.9921 62.1947 30.0005 62.551 30.0089C62.9047 30.0201 63.2803 30.0285 63.6805 30.0369C64.0808 30.0481 64.4509 30.0509 64.7963 30.0509C65.1225 30.0509 65.287 29.9641 65.287 29.7878C65.287 29.7291 65.2596 29.6703 65.2048 29.6116C65.1499 29.5528 65.0786 29.5248 64.9882 29.5248C64.8429 29.5248 64.6565 29.5192 64.4289 29.5108C64.2014 29.4996 63.9985 29.4773 63.8176 29.4381C63.4557 29.3793 63.2172 29.2394 63.1103 29.0128C63.0006 28.7889 62.9294 28.4923 62.8937 28.123C62.8389 27.597 62.8033 26.8779 62.7841 25.9601C62.7649 25.0451 62.7567 24.0014 62.7567 22.8346V22.4849C62.7567 22.3478 62.8197 22.2806 62.9458 22.2806L65.0978 22.3394C65.2788 22.3394 65.4241 22.3981 65.5337 22.5156C65.6077 22.6136 65.7201 22.7787 65.8736 23.0109C66.0272 23.2459 66.2108 23.523 66.4165 23.8447C66.6248 24.1665 66.8469 24.5079 67.0854 24.866C67.3211 25.227 67.5569 25.5711 67.7926 25.9041C68.4643 26.8778 69.0455 27.6613 69.5362 28.2545C70.0269 28.8477 70.5341 29.2814 71.0604 29.5556C71.3702 29.7319 71.7129 29.8578 72.0939 29.9361C72.475 30.0145 73.0014 30.0537 73.673 30.0537H75.9593C76.2691 30.0537 76.4226 29.9669 76.4226 29.7906C76.4226 29.7319 76.3952 29.6731 76.3404 29.6144C76.2856 29.5556 76.2116 29.5276 76.1211 29.5276C76.0306 29.5276 75.9402 29.5276 75.8497 29.5276C75.7757 29.5276 75.677 29.508 75.5509 29.4689C75.4604 29.4493 75.337 29.4213 75.1835 29.3821C75.03 29.343 74.8436 29.2702 74.6243 29.1639C74.405 29.0576 74.161 28.8953 73.8896 28.6826C73.6182 28.4672 73.3166 28.1846 72.9904 27.8348C72.2639 27.0569 71.4744 26.1112 70.6218 25.0003C69.7692 23.8895 68.807 22.6332 67.7351 21.2313C68.9139 20.2184 69.7637 19.2839 70.2791 18.4277C70.7972 17.5714 71.0549 16.6761 71.0549 15.7415C71.0549 15.333 71.0001 14.9469 70.8905 14.5887C70.7835 14.2277 70.641 13.9032 70.4683 13.6094C70.2956 13.3184 70.1091 13.0581 69.909 12.8343C69.7089 12.6105 69.528 12.4398 69.3635 12.3223C68.7275 11.8746 68.001 11.5864 67.1868 11.4604C66.3699 11.3345 65.5803 11.2702 64.8182 11.2702C64.6373 11.2702 64.3796 11.2758 64.0424 11.2842C63.7079 11.2954 63.3488 11.2982 62.9677 11.2982C62.6059 11.2982 62.2522 11.3038 61.9068 11.3121C61.5614 11.3205 61.29 11.3261 61.0899 11.3261C60.8349 11.3261 60.3881 11.3177 59.7411 11.2982C59.0969 11.2786 58.4581 11.2702 57.8221 11.2702C57.4602 11.2702 57.2765 11.3485 57.2765 11.5024C57.2765 11.6787 57.4136 11.7654 57.685 11.7654C57.866 11.7654 58.0469 11.771 58.2278 11.7794C58.4088 11.7878 58.5458 11.813 58.6363 11.8522C59.0174 11.9697 59.275 12.1152 59.4121 12.2915C59.5492 12.4678 59.6342 12.77 59.6698 13.1981C59.6698 13.3939 59.6753 13.601 59.6835 13.8248C59.6917 14.0487 59.6972 14.3453 59.6972 14.7146C59.6972 15.084 59.6972 15.5708 59.6972 16.1752C59.6972 16.76 59.6972 17.5183 59.6972 18.4528V22.8346H59.7054ZM62.7539 12.991C62.7539 12.8147 62.8279 12.7 62.9705 12.6412C63.0966 12.6021 63.2885 12.5769 63.5434 12.5685C63.7984 12.5601 64.078 12.5545 64.3878 12.5545C64.7332 12.5545 65.1198 12.6188 65.5447 12.7448C65.9723 12.8707 66.3699 13.1057 66.7427 13.4443C67.1155 13.7856 67.4226 14.2389 67.6693 14.8042C67.9133 15.3694 68.0366 16.0885 68.0366 16.9671C68.0366 17.9996 67.8694 18.8026 67.5322 19.3762C67.195 19.9498 66.8469 20.3751 66.4822 20.6465C66.2821 20.8032 66.0683 20.9096 65.8435 20.9683C65.616 21.0271 65.2678 21.0551 64.7963 21.0551C64.4865 21.0551 64.1685 21.0411 63.8423 21.0103C63.516 20.9823 63.2254 20.9179 62.9705 20.82C62.8252 20.7417 62.7539 20.5962 62.7539 20.3807V12.991ZM80.532 22.8346C80.532 23.9846 80.5266 25.0199 80.5183 25.9461C80.5101 26.8723 80.4772 27.597 80.4224 28.123C80.3867 28.4923 80.3237 28.7889 80.2332 29.0128C80.1428 29.2366 79.97 29.3793 79.7151 29.4381C79.515 29.4968 79.2354 29.5248 78.8707 29.5248C78.7254 29.5248 78.6267 29.5528 78.5719 29.6116C78.5171 29.6703 78.4897 29.7291 78.4897 29.7878C78.4897 29.9641 78.6432 30.0509 78.953 30.0509C79.1887 30.0509 79.4629 30.0453 79.7699 30.0369C80.0797 30.0257 80.384 30.0173 80.6828 30.0089C80.9816 30.0005 81.2558 29.9893 81.4998 29.9809C81.7438 29.9725 81.9411 29.9669 82.0837 29.9669C82.4291 29.9669 82.9609 29.9809 83.6765 30.0117C84.3947 30.0397 85.1513 30.0565 85.9491 30.0565C86.2561 30.0565 86.4124 29.9697 86.4124 29.7935C86.4124 29.7347 86.385 29.6759 86.3302 29.6172C86.2753 29.5584 86.1766 29.5304 86.0313 29.5304C85.8504 29.5304 85.6421 29.5248 85.4035 29.5164C85.1678 29.5052 84.9677 29.4829 84.8059 29.4437C84.4441 29.3849 84.2083 29.245 84.0986 29.0184C83.989 28.7945 83.9177 28.5063 83.8821 28.1566C83.8272 27.6109 83.7916 26.8751 83.7724 25.9517C83.7532 25.0255 83.745 23.9902 83.745 22.8402V12.7923L86.766 12.8511C87.3088 12.8511 87.7584 12.8987 88.1148 12.9966C88.4685 13.0945 88.7536 13.212 88.9729 13.3464C89.1895 13.4835 89.3457 13.6346 89.4362 13.7996C89.5266 13.9647 89.5815 14.127 89.6007 14.2809L89.6281 14.5439C89.6473 14.8741 89.7377 15.042 89.8995 15.042C90.0091 15.042 90.0804 14.9049 90.1161 14.6335C90.1161 14.4768 90.1215 14.2585 90.1298 13.9759C90.138 13.6933 90.1435 13.3967 90.1435 13.0833C90.1435 12.7727 90.1489 12.4845 90.1572 12.2215C90.1654 11.9585 90.1709 11.7598 90.1709 11.6227C90.1709 11.273 90.1078 11.0967 89.9817 11.0967C89.9461 11.0967 89.8775 11.1079 89.7789 11.1247C89.6774 11.1443 89.5294 11.1722 89.3293 11.2114C89.1483 11.2506 88.9263 11.2786 88.6631 11.2982C88.3999 11.3177 88.0792 11.3261 87.6981 11.3261H77.9798C77.5795 11.3261 77.1711 11.3177 76.7544 11.2982C76.3377 11.2786 75.9456 11.2506 75.5838 11.2114C75.274 11.1722 75.0492 11.1135 74.9039 11.0351C74.7586 10.9568 74.6407 10.9176 74.5503 10.9176C74.4241 10.9176 74.3337 11.0743 74.2789 11.3849C74.2597 11.4437 74.224 11.6143 74.1692 11.8969C74.1144 12.1796 74.0568 12.4873 73.991 12.8175C73.9279 13.1477 73.8731 13.4695 73.8293 13.7829C73.7827 14.0934 73.7607 14.2977 73.7607 14.3956C73.7607 14.667 73.8347 14.8042 73.9773 14.8042C74.1034 14.8042 74.1966 14.6978 74.2514 14.4824C74.2871 14.3844 74.3337 14.2641 74.3885 14.1186C74.4433 13.9731 74.5338 13.8108 74.6599 13.6373C74.8408 13.3659 75.0985 13.1757 75.4357 13.0665C75.7729 12.9602 76.2856 12.8959 76.9737 12.8763L80.5403 12.7895V22.8374L80.532 22.8346Z" fill="white"/>
<path d="M186.297 30.4594C186.733 30.4594 187.183 30.4454 187.646 30.4146C188.109 30.3866 188.559 30.3475 188.995 30.2971C189.431 30.2495 189.839 30.1796 190.22 30.0928C190.601 30.0061 190.927 29.9026 191.199 29.7851C191.435 29.6871 191.594 29.5864 191.676 29.4773C191.758 29.3709 191.835 29.1891 191.909 28.9372C191.98 28.6826 192.054 28.358 192.125 27.9579C192.199 27.5578 192.262 27.1605 192.317 26.7603C192.372 26.3602 192.416 26.0021 192.454 25.6803C192.49 25.3585 192.509 25.1514 192.509 25.0535C192.509 24.936 192.49 24.8353 192.454 24.7457C192.419 24.659 192.356 24.6142 192.262 24.6142C192.153 24.6142 192.076 24.6534 192.032 24.7317C191.986 24.8101 191.944 24.964 191.909 25.199C191.854 25.4704 191.744 25.7922 191.583 26.1615C191.418 26.5309 191.221 26.8527 190.985 27.1269C190.439 27.8096 189.779 28.2517 188.997 28.456C188.216 28.6602 187.218 28.7638 186.004 28.7638C185.096 28.7638 184.14 28.5483 183.131 28.1202C182.125 27.6921 181.198 27.0429 180.354 26.1783C179.509 25.3109 178.81 24.2253 178.257 22.9214C177.703 21.6175 177.426 20.0981 177.426 18.3633C177.426 16.9419 177.593 15.5736 177.93 14.2585C178.267 12.9434 178.934 11.7906 179.932 10.7973C180.529 10.2125 181.234 9.76481 182.042 9.45422C182.851 9.14364 183.852 8.98695 185.05 8.98695C186.303 8.98695 187.424 9.16323 188.411 9.51299C189.4 9.86275 190.121 10.2936 190.576 10.7973C190.922 11.1862 191.18 11.6199 191.352 12.0984C191.525 12.5741 191.621 13.0386 191.637 13.4863C191.637 13.9144 191.728 14.1298 191.909 14.1298C192.035 14.1298 192.117 14.0711 192.153 13.9535C192.188 13.836 192.216 13.6709 192.235 13.4555C192.254 13.3184 192.262 13.1253 192.262 12.8707C192.262 12.5993 192.265 12.3167 192.276 12.0229C192.284 11.7319 192.29 11.4297 192.29 11.1163C192.29 10.8057 192.298 10.5315 192.317 10.2992C192.353 9.79279 192.386 9.42904 192.413 9.2052C192.441 8.98135 192.454 8.81067 192.454 8.69315C192.454 8.4777 192.317 8.36298 192.046 8.34339C191.629 8.30422 191.202 8.23147 190.766 8.12514C190.33 8.01881 189.85 7.92648 189.324 7.84813C188.688 7.7502 188.085 7.67745 187.514 7.62988C186.941 7.58231 186.231 7.55713 185.376 7.55713C183.345 7.55713 181.645 7.83134 180.285 8.37417C178.923 8.91979 177.752 9.67808 176.773 10.6518C176.121 11.2954 175.584 11.9809 175.167 12.7112C174.75 13.4415 174.427 14.1606 174.202 14.8741C173.974 15.5848 173.815 16.2703 173.725 16.9335C173.634 17.5966 173.588 18.1702 173.588 18.6571C173.588 19.3594 173.637 20.0841 173.739 20.834C173.837 21.5839 174.016 22.3338 174.271 23.0837C174.525 23.8335 174.868 24.5638 175.304 25.2746C175.74 25.9853 176.294 26.6512 176.965 27.2752C178.218 28.442 179.619 29.2674 181.171 29.7431C182.722 30.2216 184.433 30.4594 186.303 30.4594H186.297ZM201.161 19.3594C201.051 19.3594 200.997 19.3007 200.997 19.1831V18.6571C200.997 17.7225 200.997 16.9531 200.997 16.3487C200.997 15.7247 200.997 15.2183 200.997 14.8293C200.997 14.4208 201.002 14.0934 201.01 13.85C201.019 13.6066 201.032 13.3883 201.051 13.1925C201.087 12.7448 201.167 12.423 201.284 12.2271C201.402 12.0313 201.624 11.9053 201.951 11.8466C202.222 11.7878 202.45 11.7598 202.631 11.7598C202.921 11.7598 203.066 11.6731 203.066 11.4968C203.066 11.3401 202.902 11.2646 202.576 11.2646C202.34 11.2646 202.069 11.2702 201.759 11.2786C201.452 11.2898 201.142 11.2926 200.835 11.2926C200.544 11.2926 200.267 11.2982 200.004 11.3066C199.741 11.3149 199.538 11.3205 199.39 11.3205C199.228 11.3205 199.015 11.3149 198.751 11.3066C198.488 11.2954 198.192 11.2926 197.866 11.2926C197.556 11.2926 197.23 11.287 196.887 11.2786C196.542 11.2674 196.207 11.2646 195.878 11.2646C195.533 11.2646 195.36 11.3429 195.36 11.4968C195.36 11.6731 195.497 11.7598 195.769 11.7598C195.95 11.7598 196.131 11.7654 196.314 11.7738C196.495 11.7822 196.632 11.8074 196.723 11.8466C197.104 11.9641 197.362 12.1096 197.499 12.2859C197.636 12.4622 197.721 12.7644 197.756 13.1925C197.756 13.3883 197.759 13.5954 197.77 13.8192C197.778 14.0431 197.784 14.3397 197.784 14.709C197.784 15.0784 197.784 15.5652 197.784 16.1696C197.784 16.7544 197.784 17.5127 197.784 18.4472V22.829C197.784 23.979 197.778 25.0143 197.77 25.9405C197.759 26.8667 197.729 27.5914 197.674 28.1174C197.638 28.4867 197.575 28.7833 197.485 29.0072C197.394 29.231 197.222 29.3737 196.967 29.4325C196.75 29.4913 196.468 29.5192 196.122 29.5192C195.977 29.5192 195.878 29.5472 195.824 29.606C195.769 29.6647 195.741 29.7235 195.741 29.7823C195.741 29.9585 195.895 30.0453 196.205 30.0453C196.44 30.0453 196.709 30.0397 197.008 30.0313C197.307 30.0201 197.603 30.0117 197.893 30.0033C198.184 29.9949 198.453 29.9837 198.697 29.9753C198.941 29.9669 199.138 29.9613 199.283 29.9613C199.629 29.9613 200.169 29.9753 200.903 30.0061C201.638 30.0341 202.395 30.0509 203.176 30.0509C203.502 30.0509 203.667 29.9641 203.667 29.7879C203.667 29.7291 203.639 29.6703 203.585 29.6116C203.53 29.5528 203.431 29.5248 203.286 29.5248C203.105 29.5248 202.896 29.5192 202.658 29.5108C202.422 29.4997 202.222 29.4773 202.06 29.4381C201.698 29.3793 201.463 29.2394 201.353 29.0128C201.243 28.7889 201.172 28.5007 201.136 28.151C201.082 27.6053 201.046 26.8806 201.027 25.9741C201.008 25.0675 200.999 24.0406 200.999 22.8934V20.9935C200.999 20.8956 201.054 20.848 201.164 20.848H210.202C210.293 20.848 210.339 20.8956 210.339 20.9935V22.8934C210.339 24.0434 210.334 25.0703 210.326 25.9741C210.317 26.8806 210.285 27.5942 210.23 28.1202C210.194 28.4895 210.131 28.7861 210.038 29.01C209.947 29.2338 209.775 29.3765 209.52 29.4353C209.303 29.4941 209.013 29.522 208.648 29.522C208.503 29.522 208.404 29.55 208.349 29.6088C208.294 29.6675 208.267 29.7263 208.267 29.7851C208.267 29.9613 208.44 30.0481 208.785 30.0481C209.021 30.0481 209.292 30.0425 209.602 30.0341C209.909 30.0229 210.213 30.0145 210.515 30.0061C210.814 29.9977 211.091 29.9865 211.346 29.9781C211.6 29.9697 211.801 29.9641 211.946 29.9641C212.272 29.9641 212.79 29.9781 213.498 30.0089C214.205 30.0369 214.95 30.0537 215.729 30.0537C216.055 30.0537 216.22 29.9669 216.22 29.7907C216.22 29.7319 216.187 29.6731 216.124 29.6144C216.061 29.5556 215.965 29.5276 215.839 29.5276C215.639 29.5276 215.425 29.522 215.2 29.5136C214.972 29.5025 214.778 29.4801 214.613 29.4409C214.251 29.3821 214.01 29.2422 213.892 29.0156C213.774 28.7917 213.698 28.5035 213.659 28.1538C213.604 27.6082 213.574 26.8723 213.563 25.9489C213.555 25.0227 213.55 23.9874 213.55 22.8374V18.4556C213.55 17.5211 213.55 16.7628 213.55 16.178C213.55 15.5736 213.55 15.0868 213.55 14.7174C213.55 14.3481 213.555 14.0515 213.563 13.8276C213.572 13.6038 213.585 13.3939 213.604 13.2009C213.64 12.7532 213.717 12.4314 213.835 12.2355C213.953 12.0397 214.166 11.9137 214.473 11.855C214.764 11.7962 215 11.7682 215.181 11.7682C215.471 11.7682 215.617 11.6815 215.617 11.5052C215.617 11.3485 215.444 11.273 215.099 11.273C214.863 11.273 214.6 11.2786 214.309 11.287C214.018 11.2982 213.728 11.301 213.437 11.301C213.147 11.301 212.875 11.3066 212.62 11.3149C212.365 11.3233 212.165 11.3289 212.023 11.3289C211.858 11.3289 211.642 11.3233 211.37 11.3149C211.096 11.3038 210.797 11.301 210.471 11.301C210.145 11.301 209.805 11.2954 209.451 11.287C209.098 11.2758 208.758 11.273 208.431 11.273C208.086 11.273 207.913 11.3513 207.913 11.5052C207.913 11.6815 208.05 11.7682 208.322 11.7682C208.486 11.7682 208.659 11.7738 208.84 11.7822C209.021 11.7906 209.158 11.8158 209.248 11.855C209.629 11.9725 209.887 12.118 210.024 12.2943C210.161 12.4706 210.246 12.7727 210.282 13.2009C210.282 13.3967 210.285 13.615 210.296 13.8584C210.304 14.1018 210.315 14.4236 210.323 14.8209C210.331 15.2211 210.337 15.7303 210.337 16.3543C210.337 16.9587 210.337 17.7281 210.337 18.6627V19.1887C210.337 19.3063 210.29 19.365 210.2 19.365H201.161V19.3594ZM221.39 22.8346C221.39 23.9846 221.385 25.0199 221.376 25.9461C221.368 26.8723 221.335 27.597 221.28 28.123C221.245 28.4923 221.182 28.7889 221.091 29.0128C221.001 29.2366 220.828 29.3793 220.573 29.4381C220.357 29.4969 220.074 29.5248 219.729 29.5248C219.583 29.5248 219.485 29.5528 219.43 29.6116C219.375 29.6703 219.348 29.7291 219.348 29.7879C219.348 29.9641 219.501 30.0509 219.811 30.0509C220.066 30.0509 220.332 30.0453 220.614 30.0369C220.897 30.0257 221.182 30.0117 221.472 29.9921C221.763 29.9921 222.026 29.9865 222.262 29.9781C222.498 29.9697 222.69 29.9641 222.835 29.9641C223.197 29.9641 223.608 29.9697 224.06 29.9781C224.515 29.9893 225.031 30.0033 225.612 30.0229C226.774 30.0816 228.244 30.1096 230.023 30.1096C230.239 30.1096 230.423 30.104 230.568 30.0956C230.714 30.0844 230.837 30.0621 230.936 30.0229C231.034 29.9837 231.114 29.9222 231.166 29.8326C231.221 29.7459 231.265 29.6228 231.303 29.4689C231.339 29.3514 231.374 29.1667 231.413 28.9149C231.448 28.6602 231.484 28.4 231.522 28.1258C231.558 27.8544 231.585 27.5858 231.605 27.3227C231.624 27.0597 231.632 26.8611 231.632 26.724C231.632 26.5869 231.618 26.4553 231.591 26.3294C231.563 26.2035 231.506 26.1392 231.413 26.1392C231.287 26.1392 231.196 26.2651 231.141 26.5197C231.051 27.0262 230.933 27.4207 230.788 27.7033C230.642 27.9859 230.415 28.2041 230.108 28.3608C229.801 28.5175 229.422 28.6099 228.978 28.6378C228.534 28.6658 228.159 28.6826 227.849 28.6826C227.232 28.6826 226.719 28.6546 226.311 28.5959C225.902 28.5371 225.576 28.4308 225.33 28.2741C225.086 28.1174 224.907 27.9103 224.798 27.6473C224.688 27.3843 224.625 27.0373 224.609 26.6092C224.609 26.433 224.609 26.1811 224.609 25.851C224.609 25.5208 224.609 25.1794 224.609 24.8297C224.609 24.4603 224.609 24.1078 224.609 23.7776C224.609 23.4278 224.609 23.1452 224.609 22.9298V20.9431C224.609 20.7669 224.652 20.6801 224.746 20.6801C224.891 20.6801 225.149 20.6857 225.521 20.6941C225.894 20.7053 226.284 20.7137 226.692 20.7221C227.1 20.7333 227.476 20.7417 227.821 20.7501C228.167 20.7613 228.394 20.7752 228.501 20.7948C228.956 20.834 229.272 20.9403 229.455 21.1166C229.636 21.2929 229.765 21.5055 229.836 21.7602C229.872 21.9169 229.891 22.0708 229.891 22.2274C229.891 22.3841 229.899 22.5296 229.919 22.6667C229.919 22.8039 229.993 22.871 230.135 22.871C230.245 22.871 230.313 22.8011 230.341 22.6667C230.368 22.5296 230.382 22.4121 230.382 22.317C230.382 22.2191 230.39 21.9812 230.409 21.6007C230.429 21.2201 230.453 20.904 230.492 20.6521C230.566 20.0282 230.615 19.5917 230.64 19.337C230.667 19.0824 230.681 18.9173 230.681 18.839C230.681 18.6627 230.618 18.576 230.492 18.576C230.437 18.576 230.382 18.6039 230.327 18.6627C230.272 18.7215 230.201 18.7998 230.111 18.8977C230.001 19.0348 229.856 19.1216 229.675 19.1608C229.494 19.1999 229.258 19.2391 228.967 19.2783C228.822 19.2979 228.551 19.3119 228.15 19.323C227.75 19.3342 227.325 19.337 226.87 19.337C226.415 19.337 225.982 19.337 225.563 19.337C225.162 19.337 224.899 19.337 224.773 19.337C224.663 19.337 224.611 19.2503 224.611 19.074V12.9406C224.611 12.7839 224.666 12.7084 224.773 12.7084C224.899 12.7084 225.146 12.714 225.508 12.7224C225.87 12.7308 226.262 12.742 226.678 12.7504C227.095 12.7588 227.482 12.77 227.835 12.7783C228.189 12.7895 228.422 12.8035 228.529 12.8231C229.126 12.8819 229.518 12.9938 229.699 13.1589C229.88 13.324 230.017 13.5142 230.108 13.7297C230.182 13.8864 230.226 14.0515 230.245 14.2277C230.264 14.404 230.272 14.5383 230.272 14.6363C230.272 14.8517 230.335 14.958 230.464 14.958C230.555 14.958 230.618 14.9049 230.653 14.7958C230.689 14.6894 230.716 14.6055 230.736 14.5467C230.755 14.4684 230.768 14.3509 230.777 14.197C230.785 14.0403 230.799 13.8808 230.818 13.7157C230.837 13.5506 230.851 13.3883 230.859 13.2344C230.867 13.0777 230.873 12.9714 230.873 12.9126C230.908 12.3474 230.949 11.9641 230.996 11.7598C231.04 11.5556 231.065 11.4045 231.065 11.3066C231.065 11.1499 231.01 11.0715 230.9 11.0715C230.845 11.0715 230.788 11.0855 230.722 11.1163C230.659 11.1443 230.59 11.1694 230.519 11.189C230.429 11.2086 230.291 11.2338 230.111 11.2618C229.93 11.2898 229.729 11.3149 229.513 11.3345C229.439 11.3345 229.239 11.3345 228.913 11.3345C228.606 11.3345 228.222 11.3345 227.769 11.3345C227.333 11.3345 226.862 11.3345 226.355 11.3345C225.848 11.3345 225.365 11.3345 224.913 11.3345C224.458 11.3345 224.049 11.3345 223.687 11.3345C223.342 11.3345 223.106 11.3345 222.98 11.3345C222.635 11.3345 222.13 11.3261 221.47 11.3066C220.806 11.287 220.159 11.2786 219.523 11.2786C219.161 11.2786 218.98 11.3569 218.98 11.5108C218.98 11.6871 219.117 11.7738 219.389 11.7738C219.57 11.7738 219.751 11.7794 219.934 11.7878C220.115 11.7962 220.252 11.8214 220.343 11.8606C220.724 11.9781 220.982 12.1236 221.119 12.2999C221.256 12.4761 221.341 12.7783 221.376 13.2065C221.376 13.4023 221.382 13.6094 221.39 13.8332C221.398 14.0571 221.404 14.3537 221.404 14.723C221.404 15.0924 221.404 15.5792 221.404 16.1836C221.404 16.7684 221.404 17.5267 221.404 18.4612V22.843L221.39 22.8346ZM240.284 20.876C240.284 20.7389 240.339 20.6717 240.448 20.6717C240.558 20.6717 240.786 20.6717 241.128 20.6717C241.49 20.6717 241.882 20.6773 242.299 20.6857C242.716 20.6969 243.116 20.7053 243.497 20.7137C243.878 20.7249 244.141 20.7389 244.286 20.7585C244.648 20.7976 244.917 20.9152 245.09 21.1082C245.262 21.3041 245.375 21.4888 245.43 21.6622C245.539 21.9532 245.591 22.2079 245.591 22.4205C245.591 22.5185 245.611 22.5996 245.646 22.6695C245.682 22.7367 245.737 22.7703 245.811 22.7703C245.937 22.7703 246.014 22.7031 246.044 22.566C246.071 22.4289 246.085 22.3114 246.085 22.2163C246.085 22.1771 246.085 22.0903 246.085 21.9532C246.085 21.7965 246.09 21.6259 246.099 21.4412C246.107 21.2565 246.118 21.0662 246.126 20.8704C246.134 20.6745 246.148 20.5206 246.167 20.4031C246.203 20.0142 246.244 19.6672 246.29 19.365C246.337 19.0628 246.359 18.8726 246.359 18.7942C246.359 18.6375 246.312 18.562 246.222 18.562C246.151 18.562 246.096 18.5872 246.06 18.6347C246.024 18.6823 245.97 18.7466 245.896 18.825C245.786 18.9817 245.646 19.088 245.473 19.1468C245.301 19.2055 245.106 19.2447 244.887 19.2643C244.706 19.2839 244.525 19.2923 244.341 19.2923C244.177 19.2923 243.996 19.2923 243.796 19.2923L240.448 19.3202C240.339 19.3202 240.284 19.2419 240.284 19.088V13.0693C240.284 12.9126 240.303 12.8175 240.339 12.7783C240.374 12.7392 240.429 12.7196 240.503 12.7196L244.478 12.8063C244.933 12.8259 245.276 12.9126 245.512 13.0693C245.748 13.226 245.912 13.3911 246.003 13.5674C246.093 13.7409 246.14 13.9172 246.14 14.0934C246.14 14.2697 246.14 14.404 246.14 14.502C246.14 14.7734 246.238 14.9105 246.438 14.9105C246.529 14.9105 246.589 14.8517 246.617 14.7342C246.644 14.6167 246.666 14.5104 246.685 14.4124C246.685 14.3341 246.691 14.197 246.699 14.0039C246.707 13.808 246.721 13.6038 246.74 13.3911C246.759 13.1757 246.773 12.9714 246.781 12.7783C246.789 12.5825 246.795 12.4566 246.795 12.3978C246.83 12.0676 246.872 11.8242 246.918 11.6675C246.965 11.5108 246.987 11.3849 246.987 11.287C246.987 11.1303 246.932 11.0519 246.825 11.0519C246.751 11.0519 246.688 11.0715 246.633 11.1107C246.578 11.1499 246.515 11.1778 246.441 11.1974C246.241 11.2366 245.915 11.2758 245.463 11.3149C245.317 11.3149 244.928 11.3149 244.292 11.3149C243.656 11.3149 242.957 11.3149 242.195 11.3149C241.433 11.3149 240.706 11.3149 240.018 11.3149C239.346 11.3149 238.894 11.3149 238.658 11.3149C238.313 11.3149 237.808 11.3066 237.148 11.287C236.484 11.2674 235.846 11.259 235.229 11.259C234.848 11.259 234.656 11.3373 234.656 11.4912C234.656 11.5892 234.697 11.6563 234.779 11.6955C234.861 11.7347 234.957 11.7542 235.064 11.7542C235.245 11.7542 235.426 11.7598 235.607 11.7682C235.788 11.7766 235.925 11.8018 236.016 11.841C236.397 11.9389 236.654 12.0788 236.791 12.2663C236.928 12.451 237.013 12.7588 237.049 13.1869C237.049 13.3827 237.055 13.5898 237.063 13.8136C237.071 14.0375 237.076 14.3341 237.076 14.7034C237.076 15.0728 237.076 15.5596 237.076 16.164C237.076 16.7488 237.076 17.5071 237.076 18.4417V22.8234C237.076 24.0322 237.071 25.0815 237.063 25.9797C237.055 26.8751 237.022 27.5858 236.967 28.1118C236.931 28.4812 236.868 28.7777 236.775 29.0016C236.684 29.2254 236.512 29.3681 236.257 29.4269C236.04 29.4857 235.758 29.5136 235.412 29.5136C235.267 29.5136 235.171 29.5416 235.127 29.6004C235.081 29.6591 235.059 29.7179 235.059 29.7767C235.059 29.9529 235.221 30.0397 235.55 30.0397C235.766 30.0397 236.021 30.0341 236.312 30.0257C236.602 30.0145 236.887 30.0061 237.17 29.9977C237.452 29.9893 237.718 29.9781 237.973 29.9697C238.228 29.9613 238.436 29.9557 238.598 29.9557C238.762 29.9557 238.979 29.9613 239.25 29.9697C239.525 29.9809 239.832 29.9893 240.177 29.9977C240.522 30.0089 240.89 30.0173 241.279 30.0257C241.668 30.0369 242.055 30.0397 242.436 30.0397C242.781 30.0397 242.954 29.9529 242.954 29.7767C242.954 29.7179 242.921 29.6591 242.858 29.6004C242.795 29.5416 242.691 29.5136 242.546 29.5136C242.381 29.5136 242.187 29.508 241.962 29.4996C241.734 29.4885 241.54 29.4661 241.375 29.4269C241.013 29.3681 240.772 29.2282 240.654 29.0016C240.536 28.7777 240.459 28.4812 240.424 28.1118C240.369 27.5858 240.333 26.889 240.314 26.0216C240.295 25.1542 240.287 24.1189 240.287 22.9102V20.8648L240.284 20.876Z" fill="white"/>
<path fill-rule="evenodd" clip-rule="evenodd" d="M89.8377 32.8917C95.0818 40.6962 123.928 35.8632 133.888 33.9211C136.126 33.3242 137.926 33.2853 140.16 32.9297C144.935 32.3776 147.39 33.3807 152.887 31.0189C154.744 30.2208 164.747 24.6863 164.536 24.142C164.326 23.5976 156.84 27.2617 153.322 28.2689C152.706 28.4452 151.282 29.0909 151.064 28.5843C150.846 28.0778 153.676 27.0128 155.464 26.3222C156.553 25.9089 168.035 21.8406 167.851 21.1375C167.666 20.4344 161.645 22.4949 160.684 22.8052C158.186 23.6123 149.955 26.6902 149.707 26.0139C149.458 25.3375 151.046 24.9292 151.557 24.7042C156.009 23.0796 162.724 20.8195 168.562 18.7483C169.504 18.4128 170.639 18.032 170.504 17.5513C170.369 17.0707 160.448 19.7025 154.731 21.1183C151.856 21.8516 151.233 21.8406 148.466 23.1605C145.742 24.4571 144.063 26.3515 141.617 28.3042C139.095 30.3163 137.954 30.6113 135.987 31.4933C128.324 34.9295 84.927 38.0712 91.7363 24.213C92.432 22.6469 94.0297 20.7932 95.8778 19.4178C92.0473 22.0714 86.0703 27.2849 89.8377 32.8917Z" fill="#FF2D55"/>
<path fill-rule="evenodd" clip-rule="evenodd" d="M100.5 24.7944C100.5 24.7944 112.53 29.981 130.939 26.1915C136.609 25.0243 153.968 20.0798 160.281 10.8403C160.281 10.8403 155.627 15.9362 143.514 20.0798C131.402 24.2233 121.964 25.4841 112.536 25.661C103.109 25.8378 100.778 24.7944 100.5 24.7944Z" fill="white"/>
<path d="M117.162 6.52513C126.416 3.55393 142.766 0.723876 153.689 4.54399C157.947 6.03324 158.161 9.34223 153.341 13.5991C154.698 12.8209 157.876 10.1638 158.663 8.55656C160.165 5.49098 157.685 3.55477 155.184 2.63171C142.62 -2.01693 109.962 3.44748 100.082 14.1816C102.621 12.2553 107.909 9.49634 117.162 6.52513Z" fill="white"/>
<path d="M121.618 11.2903C127.831 9.29543 138.808 7.39536 146.141 9.96015C149 10.96 149.144 13.1816 145.908 16.0396C146.819 15.5172 148.953 13.7332 149.481 12.6541C150.489 10.5959 148.824 9.29599 147.146 8.67626C138.71 5.55522 116.783 9.22396 110.15 16.4308C111.855 15.1374 115.405 13.2851 121.618 11.2903Z" fill="white"/>
</svg>
