<svg width="196" height="31" viewBox="0 0 196 31" fill="none" xmlns="http://www.w3.org/2000/svg">
<path d="M3.56563 23.6861C4.14214 23.6861 4.72082 23.621 5.30603 23.493C5.88906 23.365 6.45469 23.1198 7.00073 22.7575C7.39015 22.4864 7.71429 22.1913 7.97318 21.8746C8.23206 21.5578 8.44091 21.2259 8.59972 20.8788C8.75853 20.5316 8.86948 20.1845 8.93475 19.8374C9.00001 19.4903 9.03264 19.1497 9.03264 18.8178C9.03264 18.2754 8.97173 17.7655 8.8499 17.2883C8.72807 16.8131 8.52575 16.3489 8.24512 15.8954C7.96448 15.442 7.59682 14.9821 7.14214 14.5135C6.68746 14.0449 6.13706 13.5546 5.48877 13.0426L4.88398 12.5674C4.438 12.2051 4.06599 11.8819 3.7723 11.5933C3.47644 11.307 3.24366 11.038 3.06962 10.7885C2.89776 10.539 2.77375 10.2938 2.70196 10.053C2.63017 9.8122 2.59319 9.56271 2.59319 9.30454C2.59319 8.62549 2.81944 8.06576 3.27412 7.62752C3.72879 7.18928 4.35751 6.97017 5.16462 6.97017C5.51052 6.97017 5.81291 7.00705 6.0718 7.08298C6.33068 7.15891 6.55476 7.2522 6.74185 7.36718C6.92894 7.48 7.0834 7.60149 7.20523 7.72949C7.32706 7.85749 7.43148 7.97464 7.5185 8.08094C7.7491 8.3825 7.90139 8.68189 7.97318 8.97478C8.04497 9.26983 8.08195 9.46942 8.08195 9.57573C8.08195 9.84691 8.15374 9.98359 8.29733 9.98359C8.38435 9.98359 8.44526 9.93369 8.48007 9.83606C8.51705 9.73843 8.53446 9.56054 8.53446 9.30454C8.53446 8.41288 8.54968 7.77505 8.57796 7.39105C8.60625 7.00705 8.62148 6.73803 8.62148 6.58617C8.62148 6.45166 8.5214 6.36054 8.31908 6.31498C8.03192 6.23905 7.65556 6.15661 7.19653 6.06549C6.73532 5.97437 6.15229 5.92881 5.44743 5.92881C4.69906 5.92881 4.01813 6.03512 3.40464 6.24556C2.79333 6.456 2.26686 6.75105 1.82741 7.12854C1.38796 7.50603 1.05076 7.95945 0.811459 8.48664C0.57433 9.016 0.454678 9.58874 0.454678 10.207C0.454678 10.6605 0.509065 11.1052 0.615664 11.5435C0.724439 11.9817 0.902829 12.4156 1.15519 12.8451C1.40754 13.2747 1.73822 13.7173 2.14939 14.1707C2.56055 14.6241 3.06092 15.0927 3.65048 15.5744L4.64468 16.3901C5.09065 16.7524 5.45396 17.0952 5.7346 17.4206C6.01524 17.7439 6.23061 18.0497 6.38289 18.3383C6.53518 18.6247 6.63525 18.9089 6.68529 19.1866C6.73532 19.4664 6.76143 19.742 6.76143 20.0131C6.76143 20.3147 6.70052 20.6184 6.57869 20.92C6.45686 21.2215 6.27629 21.4971 6.03917 21.7466C5.80204 21.9961 5.50182 22.2 5.14286 22.3584C4.78391 22.5167 4.35751 22.597 3.86803 22.597C3.19145 22.597 2.56708 22.4278 1.99928 22.0872C1.43147 21.7466 1.02248 21.1543 0.778826 20.3104C0.722263 20.1129 0.674403 19.9112 0.639595 19.6986C0.602611 19.4881 0.585207 19.3059 0.585207 19.154C0.585207 19.0629 0.57433 18.9761 0.552575 18.8937C0.53082 18.8112 0.469906 18.77 0.367658 18.77C0.282814 18.77 0.219725 18.8264 0.184917 18.9392C0.147933 19.0521 0.124003 19.1931 0.108775 19.358C0.108775 19.4491 0.102248 19.5966 0.0870197 19.8005C0.0717912 20.0045 0.0587383 20.2431 0.0435098 20.5143C0.0282814 20.7855 0.0195794 21.0762 0.0108775 21.3864C0.00435098 21.6967 0 22.0091 0 22.3258C0 22.5818 0.0261059 22.7554 0.0761422 22.8465C0.126179 22.9376 0.237129 23.0201 0.411168 23.096C0.872372 23.3064 1.35533 23.4583 1.85787 23.5494C2.36258 23.6405 2.93039 23.6861 3.56346 23.6861H3.56563ZM12.4025 21.445C12.359 21.7617 12.2828 22.0785 12.1762 22.3952C12.0675 22.712 11.8847 22.8855 11.6258 22.9159C11.467 22.9463 11.3452 22.9615 11.2582 22.9615C11.1864 22.9615 11.1146 22.9615 11.0428 22.9615C10.8405 22.9615 10.7404 23.0222 10.7404 23.1437C10.7404 23.2956 10.8557 23.3693 11.0863 23.3693C11.3887 23.3693 11.7303 23.3585 12.1131 23.3346C12.4939 23.3129 12.7788 23.2999 12.9659 23.2999C13.1378 23.2999 13.4163 23.3108 13.797 23.3346C14.1777 23.3563 14.5714 23.3693 14.9739 23.3693C15.2763 23.3693 15.4264 23.2934 15.4264 23.1437C15.4264 23.0222 15.3263 22.9615 15.124 22.9615C14.9652 22.9615 14.7433 22.9311 14.454 22.8704C14.2952 22.84 14.1581 22.7836 14.0428 22.7011C13.9275 22.6187 13.8709 22.4864 13.8709 22.3041C13.8709 22.1371 13.8753 21.9874 13.8818 21.8507C13.8883 21.714 13.9057 21.5643 13.9362 21.3973L14.8434 13.8778H14.9086C15.0675 14.2098 15.248 14.5959 15.4482 15.032C15.6505 15.4702 15.8441 15.8933 16.0312 16.3011C16.2183 16.709 16.3836 17.0713 16.5272 17.3881C16.6708 17.7048 16.7643 17.9087 16.8079 17.9999C16.8644 18.1365 16.9884 18.399 17.1755 18.7917C17.3626 19.1844 17.5714 19.6074 17.8021 20.0609C18.0327 20.5143 18.2589 20.9547 18.483 21.3864C18.7071 21.816 18.8746 22.1457 18.9899 22.3714C19.1487 22.6729 19.2857 22.9116 19.401 23.0851C19.5163 23.2587 19.6316 23.3455 19.7469 23.3455C19.8622 23.3455 19.9623 23.2782 20.0493 23.1415C20.1364 23.0049 20.2865 22.712 20.504 22.2586L24.5874 13.6522H24.6527L25.7121 21.9874C25.7404 22.2586 25.7491 22.456 25.7339 22.5775C25.7187 22.699 25.6839 22.7727 25.6251 22.8031C25.4815 22.8487 25.4097 22.9159 25.4097 23.007C25.4097 23.0678 25.4446 23.1177 25.5185 23.1546C25.5903 23.1914 25.7426 23.2196 25.9732 23.2327C26.1603 23.2478 26.4496 23.263 26.8369 23.2782C27.2263 23.2934 27.6287 23.3086 28.0464 23.3238C28.4641 23.339 28.8492 23.3498 29.2016 23.3585C29.5541 23.3672 29.789 23.3693 29.9043 23.3693C30.0479 23.3693 30.1675 23.3498 30.2611 23.3129C30.3546 23.2761 30.4025 23.2196 30.4025 23.1437C30.4025 23.0222 30.3024 22.9615 30.1001 22.9615C29.9848 22.9615 29.8434 22.9506 29.6781 22.9268C29.5127 22.9051 29.293 22.8552 29.0189 22.7792C28.7317 22.6881 28.5251 22.4994 28.4032 22.213C28.2814 21.9266 28.177 21.4797 28.09 20.8766L26.3626 8.98562C26.3343 8.77518 26.2734 8.61898 26.1777 8.52135C26.0842 8.42373 26.0015 8.37383 25.9297 8.37383C25.7426 8.37383 25.5773 8.5322 25.4337 8.84894L20.3343 19.7203L15.235 8.98345C15.1044 8.72745 15 8.5604 14.9217 8.48447C14.8434 8.40854 14.752 8.37166 14.6519 8.37166C14.5801 8.37166 14.5084 8.41288 14.4366 8.49749C14.3648 8.57993 14.3147 8.70576 14.2843 8.87064L12.4047 21.4407L12.4025 21.445ZM39.0196 18.5227C39.1197 18.5227 39.185 18.5683 39.2132 18.6594L40.6817 22.5319C40.7252 22.6534 40.7252 22.751 40.6817 22.827C40.6382 22.9029 40.5816 22.9485 40.5098 22.9636C40.351 22.9788 40.2727 23.0461 40.2727 23.1676C40.2727 23.2435 40.3227 23.2847 40.425 23.2912C40.5251 23.2977 40.6621 23.3108 40.8362 23.326C41.6433 23.3563 42.3699 23.3715 43.0182 23.3715C43.6665 23.3715 44.156 23.3715 44.4866 23.3715C44.8478 23.3715 45.074 23.3563 45.1676 23.326C45.2611 23.2956 45.309 23.2435 45.309 23.1676C45.309 23.0309 45.222 22.9636 45.0501 22.9636C44.8478 22.9636 44.6106 22.9419 44.3365 22.8964C44.2495 22.8812 44.1538 22.8465 44.045 22.7944C43.9362 22.7402 43.8144 22.6426 43.6774 22.4994C43.5403 22.3562 43.3924 22.1523 43.2336 21.8876C43.0747 21.6229 42.9029 21.2714 42.7158 20.8354C42.5135 20.3516 42.2655 19.7485 41.9696 19.0239C41.6737 18.2992 41.3605 17.5247 41.0298 16.7025C40.6991 15.8781 40.3597 15.0493 40.0138 14.2119C39.6679 13.3745 39.3503 12.5957 39.0631 11.8797C38.776 11.1616 38.5236 10.5433 38.3061 10.0226C38.0907 9.50196 37.9449 9.1505 37.8731 8.97044C37.7731 8.76 37.6882 8.60379 37.6251 8.50617C37.5599 8.40854 37.4554 8.35864 37.3119 8.35864C37.14 8.35864 36.9507 8.61464 36.7506 9.12881L31.7818 21.2454C31.5794 21.7292 31.3749 22.1132 31.1661 22.4017C30.9573 22.6881 30.6375 22.8704 30.2045 22.9441C30.1175 22.9441 30.024 22.9485 29.9239 22.955C29.8238 22.9615 29.7303 22.9658 29.6433 22.9658C29.4997 22.9658 29.4257 23.0331 29.4257 23.1697C29.4257 23.3064 29.541 23.3737 29.7716 23.3737C30.2763 23.3737 30.7441 23.3628 31.1748 23.339C31.6077 23.3173 31.8731 23.3043 31.9754 23.3043C32.2778 23.3043 32.6259 23.3151 33.0218 23.339C33.4177 23.3607 33.7745 23.3737 34.0921 23.3737C34.2945 23.3737 34.3945 23.3064 34.3945 23.1697C34.3945 23.109 34.3771 23.0591 34.3401 23.0222C34.3053 22.9853 34.2292 22.9658 34.1139 22.9658H33.8333C33.5461 22.9658 33.3481 22.9181 33.2393 22.8183C33.1306 22.7207 33.0784 22.5883 33.0784 22.4213C33.0784 22.2998 33.1001 22.1349 33.1436 21.9223C33.1871 21.7119 33.2589 21.4841 33.359 21.2432L34.375 18.6615C34.4032 18.5704 34.462 18.5249 34.5468 18.5249H39.0196V18.5227ZM34.9362 17.4575C34.8492 17.4575 34.8274 17.4119 34.871 17.3208L36.7071 12.4525C36.7223 12.4221 36.7354 12.3852 36.7506 12.3397C36.7658 12.2941 36.7876 12.2724 36.8158 12.2724C36.8441 12.2724 36.8637 12.2941 36.8702 12.3397C36.8768 12.3852 36.8876 12.4221 36.9029 12.4525L38.6955 17.3447C38.7238 17.4206 38.6955 17.4575 38.6085 17.4575H34.9362ZM47.38 17.7742C47.38 18.6659 47.3757 19.4686 47.3692 20.1867C47.3626 20.9048 47.3365 21.4667 47.293 21.8746C47.2647 22.1609 47.2147 22.3909 47.1407 22.5645C47.0689 22.738 46.9319 22.8487 46.7296 22.8942C46.5577 22.9398 46.3336 22.9615 46.0595 22.9615C45.9442 22.9615 45.8659 22.9832 45.8224 23.0287C45.7789 23.0743 45.7571 23.1198 45.7571 23.1654C45.7571 23.3021 45.879 23.3693 46.1248 23.3693C46.3119 23.3693 46.5207 23.365 46.7513 23.3585C46.9819 23.3498 47.2082 23.3433 47.4323 23.3368C47.6563 23.3303 47.8608 23.3216 48.0479 23.3151C48.235 23.3086 48.3721 23.3043 48.4591 23.3043C48.5309 23.3043 48.6745 23.3086 48.892 23.3151C49.1074 23.3238 49.3554 23.3303 49.6382 23.3368C49.9188 23.3455 50.2169 23.352 50.5345 23.3585C50.8521 23.3672 51.1458 23.3693 51.4199 23.3693C51.6788 23.3693 51.8093 23.3021 51.8093 23.1654C51.8093 23.1198 51.7876 23.0743 51.7441 23.0287C51.7006 22.9832 51.644 22.9615 51.5722 22.9615C51.4569 22.9615 51.309 22.9571 51.1284 22.9506C50.9478 22.9419 50.7869 22.9246 50.6433 22.8942C50.3561 22.8487 50.1668 22.7402 50.082 22.5645C49.995 22.3909 49.9384 22.1609 49.9101 21.8746C49.8666 21.4667 49.8383 20.9091 49.8231 20.1975C49.8079 19.4881 49.8014 18.6789 49.8014 17.7742V17.503C49.8014 17.3967 49.8514 17.3447 49.9515 17.3447L51.6592 17.3902C51.8028 17.3902 51.9181 17.4358 52.0051 17.5269C52.0639 17.6028 52.1531 17.7308 52.2749 17.9109C52.3967 18.0931 52.5425 18.3079 52.7056 18.5574C52.871 18.8069 53.0472 19.0716 53.2365 19.3493C53.4236 19.6291 53.6106 19.896 53.7977 20.1542C54.3307 20.9091 54.7919 21.5166 55.1814 21.9765C55.5708 22.4365 55.9732 22.7727 56.3909 22.9853C56.6368 23.122 56.9087 23.2196 57.2111 23.2804C57.5135 23.3411 57.9312 23.3715 58.4642 23.3715H60.2785C60.5244 23.3715 60.6462 23.3043 60.6462 23.1676C60.6462 23.122 60.6244 23.0765 60.5809 23.0309C60.5374 22.9853 60.4787 22.9636 60.4069 22.9636C60.3351 22.9636 60.2633 22.9636 60.1915 22.9636C60.1328 22.9636 60.0545 22.9485 59.9544 22.9181C59.8826 22.9029 59.7847 22.8812 59.6629 22.8508C59.541 22.8205 59.3931 22.7641 59.2191 22.6816C59.045 22.5992 58.8514 22.4733 58.636 22.3085C58.4207 22.1414 58.1814 21.9223 57.9225 21.6511C57.346 21.048 56.7194 20.3147 56.0428 19.4534C55.3663 18.5921 54.6027 17.618 53.7521 16.5311C54.6875 15.7458 55.3619 15.0211 55.7709 14.3573C56.1821 13.6934 56.3866 12.9992 56.3866 12.2746C56.3866 11.9578 56.3431 11.6584 56.256 11.3807C56.1712 11.1009 56.0581 10.8492 55.921 10.6214C55.784 10.3958 55.636 10.194 55.4772 10.0205C55.3184 9.84691 55.1748 9.71457 55.0443 9.62345C54.5396 9.27634 53.9631 9.05288 53.317 8.95525C52.6687 8.85762 52.0421 8.80772 51.4373 8.80772C51.2938 8.80772 51.0893 8.81206 50.8217 8.81857C50.5563 8.82725 50.2713 8.82942 49.9689 8.82942C49.6817 8.82942 49.4011 8.83376 49.127 8.84026C48.8529 8.84677 48.6375 8.85111 48.4787 8.85111C48.2763 8.85111 47.9217 8.84461 47.4083 8.82942C46.8971 8.81423 46.3902 8.80772 45.8855 8.80772C45.5983 8.80772 45.4526 8.86847 45.4526 8.98779C45.4526 9.12447 45.5613 9.19172 45.7767 9.19172C45.9203 9.19172 46.0639 9.19606 46.2075 9.20257C46.351 9.20908 46.4598 9.22861 46.5316 9.25898C46.834 9.3501 47.0385 9.46291 47.1473 9.59959C47.256 9.73626 47.3235 9.97057 47.3518 10.3025C47.3518 10.4544 47.3561 10.6149 47.3626 10.7885C47.3692 10.962 47.3735 11.192 47.3735 11.4784C47.3735 11.7647 47.3735 12.1422 47.3735 12.6108C47.3735 13.0643 47.3735 13.6522 47.3735 14.3768V17.7742H47.38ZM49.7992 10.142C49.7992 10.0053 49.8579 9.91633 49.9711 9.87077C50.0711 9.8404 50.2234 9.82088 50.4257 9.81437C50.628 9.80786 50.8499 9.80352 51.0958 9.80352C51.3699 9.80352 51.6766 9.85342 52.0138 9.95104C52.3532 10.0487 52.6687 10.2309 52.9645 10.4934C53.2604 10.7581 53.5041 11.1096 53.6998 11.5478C53.8935 11.986 53.9914 12.5436 53.9914 13.2248C53.9914 14.0254 53.8587 14.648 53.5911 15.0927C53.3235 15.5375 53.0472 15.8672 52.7579 16.0777C52.599 16.1992 52.4294 16.2816 52.251 16.3272C52.0704 16.3727 51.7941 16.3944 51.4199 16.3944C51.1741 16.3944 50.9217 16.3836 50.6629 16.3597C50.404 16.338 50.1734 16.2881 49.9711 16.2122C49.8558 16.1514 49.7992 16.0386 49.7992 15.8716V10.142ZM63.9073 17.7742C63.9073 18.6659 63.9029 19.4686 63.8964 20.1867C63.8898 20.9048 63.8637 21.4667 63.8202 21.8746C63.792 22.1609 63.7419 22.3909 63.6701 22.5645C63.5983 22.738 63.4613 22.8487 63.259 22.8942C63.1001 22.9398 62.8783 22.9615 62.5889 22.9615C62.4736 22.9615 62.3953 22.9832 62.3518 23.0287C62.3083 23.0743 62.2865 23.1198 62.2865 23.1654C62.2865 23.3021 62.4083 23.3693 62.6542 23.3693C62.8413 23.3693 63.0588 23.365 63.3025 23.3585C63.5483 23.3498 63.7898 23.3433 64.0269 23.3368C64.264 23.3303 64.4816 23.3216 64.6752 23.3151C64.8688 23.3086 65.0255 23.3043 65.1386 23.3043C65.4127 23.3043 65.8347 23.3151 66.4025 23.339C66.9725 23.3607 67.573 23.3737 68.206 23.3737C68.4497 23.3737 68.5737 23.3064 68.5737 23.1697C68.5737 23.1242 68.5519 23.0786 68.5084 23.0331C68.4649 22.9875 68.3866 22.9658 68.2713 22.9658C68.1277 22.9658 67.9624 22.9615 67.7731 22.955C67.586 22.9463 67.4272 22.9289 67.2989 22.8986C67.0117 22.853 66.8246 22.7445 66.7376 22.5688C66.6506 22.3952 66.594 22.1718 66.5657 21.9006C66.5222 21.4775 66.4939 20.907 66.4787 20.191C66.4635 19.4729 66.4569 18.6702 66.4569 17.7786V9.98793L68.8543 10.0335C69.2851 10.0335 69.6419 10.0704 69.9247 10.1463C70.2053 10.2222 70.4315 10.3134 70.6056 10.4175C70.7775 10.5238 70.9015 10.6409 70.9733 10.7689C71.045 10.8969 71.0886 11.0228 71.1038 11.1421L71.1255 11.346C71.1408 11.602 71.2126 11.7322 71.3409 11.7322C71.4279 11.7322 71.4845 11.6259 71.5128 11.4154C71.5128 11.294 71.5171 11.1247 71.5237 10.9056C71.5302 10.6865 71.5345 10.4565 71.5345 10.2136C71.5345 9.97274 71.5389 9.74928 71.5454 9.54535C71.5519 9.34142 71.5563 9.18738 71.5563 9.08108C71.5563 8.80989 71.5062 8.67322 71.4062 8.67322C71.3779 8.67322 71.3235 8.68189 71.2452 8.69491C71.1647 8.7101 71.0472 8.73179 70.8884 8.76217C70.7448 8.79254 70.5686 8.81423 70.3598 8.82942C70.1509 8.84461 69.8964 8.85111 69.594 8.85111H61.8819C61.5643 8.85111 61.2401 8.84461 60.9094 8.82942C60.5788 8.81423 60.2677 8.79254 59.9805 8.76217C59.7347 8.73179 59.5563 8.68623 59.441 8.62549C59.3257 8.56474 59.2321 8.53437 59.1603 8.53437C59.0603 8.53437 58.9885 8.65586 58.945 8.89667C58.9297 8.94223 58.9014 9.07457 58.8579 9.29369C58.8144 9.51281 58.7687 9.75145 58.7165 10.0075C58.6665 10.2635 58.623 10.5129 58.5882 10.7559C58.5512 10.9967 58.5338 11.1551 58.5338 11.231C58.5338 11.4415 58.5925 11.5478 58.7057 11.5478C58.8057 11.5478 58.8797 11.4654 58.9232 11.2983C58.9515 11.2224 58.9885 11.1291 59.032 11.0163C59.0755 10.9034 59.1473 10.7776 59.2473 10.6431C59.3909 10.4327 59.5954 10.2851 59.863 10.2005C60.1306 10.1181 60.5374 10.0682 61.0835 10.053L63.9138 9.98576V17.7764L63.9073 17.7742Z" fill="black"/>
<path d="M147.839 23.686C148.185 23.686 148.542 23.6751 148.909 23.6512C149.277 23.6296 149.634 23.5992 149.98 23.5601C150.326 23.5232 150.65 23.469 150.952 23.4018C151.255 23.3345 151.513 23.2542 151.729 23.1631C151.916 23.0872 152.042 23.0091 152.107 22.9245C152.173 22.842 152.234 22.701 152.292 22.5058C152.349 22.3083 152.408 22.0567 152.464 21.7464C152.523 21.4362 152.573 21.1281 152.616 20.8179C152.66 20.5077 152.695 20.23 152.725 19.9805C152.753 19.731 152.769 19.5704 152.769 19.4945C152.769 19.4034 152.753 19.3253 152.725 19.2559C152.697 19.1886 152.647 19.1539 152.573 19.1539C152.486 19.1539 152.425 19.1843 152.39 19.245C152.353 19.3058 152.321 19.4251 152.292 19.6073C152.249 19.8178 152.162 20.0672 152.033 20.3536C151.903 20.64 151.746 20.8895 151.559 21.1021C151.126 21.6315 150.602 21.9742 149.982 22.1326C149.362 22.291 148.57 22.3712 147.606 22.3712C146.886 22.3712 146.127 22.2042 145.326 21.8723C144.528 21.5403 143.793 21.037 143.123 20.3666C142.452 19.6941 141.898 18.8523 141.458 17.8414C141.019 16.8304 140.799 15.6523 140.799 14.3073C140.799 13.2052 140.932 12.1443 141.199 11.1246C141.467 10.1049 141.996 9.21112 142.788 8.44095C143.262 7.98753 143.821 7.64041 144.463 7.39959C145.104 7.15878 145.898 7.03729 146.849 7.03729C147.843 7.03729 148.733 7.17397 149.516 7.44516C150.302 7.71634 150.874 8.05044 151.235 8.44095C151.509 8.74251 151.714 9.07878 151.851 9.44976C151.988 9.81858 152.064 10.1787 152.077 10.5258C152.077 10.8578 152.149 11.0248 152.292 11.0248C152.392 11.0248 152.458 10.9793 152.486 10.8881C152.514 10.797 152.536 10.669 152.551 10.502C152.566 10.3957 152.573 10.246 152.573 10.0485C152.573 9.8381 152.575 9.61898 152.584 9.39119C152.59 9.16556 152.595 8.93125 152.595 8.68827C152.595 8.44746 152.601 8.23485 152.616 8.05478C152.645 7.6621 152.671 7.38007 152.693 7.20651C152.714 7.03295 152.725 6.90061 152.725 6.8095C152.725 6.64245 152.616 6.5535 152.401 6.53831C152.07 6.50794 151.731 6.45153 151.385 6.36909C151.039 6.28665 150.658 6.21505 150.241 6.15431C149.736 6.07838 149.257 6.02197 148.805 5.98509C148.35 5.94821 147.787 5.92868 147.108 5.92868C145.496 5.92868 144.147 6.14129 143.068 6.56217C141.987 6.98522 141.058 7.57316 140.281 8.32814C139.764 8.82712 139.337 9.35864 139.007 9.92488C138.676 10.4911 138.419 11.0487 138.241 11.6019C138.06 12.1529 137.934 12.6845 137.862 13.1986C137.79 13.7128 137.753 14.1576 137.753 14.535C137.753 15.0796 137.793 15.6415 137.873 16.2229C137.951 16.8043 138.093 17.3858 138.295 17.9672C138.497 18.5486 138.769 19.1148 139.115 19.6659C139.461 20.2169 139.901 20.7333 140.434 21.2171C141.428 22.1218 142.54 22.7618 143.771 23.1306C145.002 23.5015 146.36 23.686 147.843 23.686H147.839ZM159.635 15.0796C159.548 15.0796 159.504 15.034 159.504 14.9429V14.535C159.504 13.8104 159.504 13.2138 159.504 12.7452C159.504 12.2614 159.504 11.8687 159.504 11.5672C159.504 11.2504 159.508 10.9966 159.515 10.8079C159.521 10.6191 159.532 10.4499 159.548 10.298C159.576 9.95091 159.639 9.70143 159.732 9.54956C159.826 9.3977 160.002 9.30007 160.261 9.25451C160.476 9.20895 160.657 9.18726 160.801 9.18726C161.031 9.18726 161.146 9.12 161.146 8.98332C161.146 8.86183 161.016 8.80325 160.757 8.80325C160.57 8.80325 160.355 8.80759 160.109 8.8141C159.865 8.82278 159.619 8.82495 159.376 8.82495C159.145 8.82495 158.925 8.82929 158.716 8.8358C158.508 8.84231 158.347 8.84665 158.229 8.84665C158.101 8.84665 157.931 8.84231 157.722 8.8358C157.513 8.82712 157.278 8.82495 157.02 8.82495C156.774 8.82495 156.515 8.82061 156.243 8.8141C155.969 8.80542 155.703 8.80325 155.442 8.80325C155.168 8.80325 155.031 8.864 155.031 8.98332C155.031 9.12 155.14 9.18726 155.355 9.18726C155.499 9.18726 155.642 9.19159 155.788 9.1981C155.932 9.20461 156.041 9.22414 156.112 9.25451C156.415 9.34563 156.619 9.45844 156.728 9.59512C156.837 9.7318 156.904 9.9661 156.933 10.298C156.933 10.4499 156.935 10.6104 156.943 10.784C156.95 10.9576 156.954 11.1875 156.954 11.4739C156.954 11.7603 156.954 12.1378 156.954 12.6064C156.954 13.0598 156.954 13.6477 156.954 14.3723V17.7698C156.954 18.6614 156.95 19.4641 156.943 20.1822C156.935 20.9003 156.911 21.4622 156.867 21.8701C156.839 22.1565 156.789 22.3864 156.717 22.56C156.645 22.7336 156.508 22.8442 156.306 22.8898C156.134 22.9353 155.91 22.957 155.636 22.957C155.521 22.957 155.442 22.9787 155.399 23.0243C155.355 23.0698 155.334 23.1154 155.334 23.1609C155.334 23.2976 155.455 23.3649 155.701 23.3649C155.888 23.3649 156.102 23.3605 156.339 23.354C156.576 23.3453 156.811 23.3388 157.041 23.3323C157.272 23.3258 157.485 23.3171 157.679 23.3106C157.872 23.3041 158.029 23.2998 158.144 23.2998C158.418 23.2998 158.847 23.3106 159.43 23.3345C160.013 23.3562 160.613 23.3692 161.234 23.3692C161.492 23.3692 161.623 23.302 161.623 23.1653C161.623 23.1197 161.601 23.0742 161.558 23.0286C161.514 22.983 161.436 22.9613 161.321 22.9613C161.177 22.9613 161.012 22.957 160.822 22.9505C160.635 22.9418 160.476 22.9245 160.348 22.8941C160.061 22.8485 159.874 22.7401 159.787 22.5643C159.7 22.3908 159.643 22.1673 159.615 21.8961C159.571 21.4731 159.543 20.9112 159.528 20.2083C159.513 19.5053 159.506 18.7091 159.506 17.8197V16.3466C159.506 16.2706 159.55 16.2338 159.637 16.2338H166.809C166.881 16.2338 166.918 16.2706 166.918 16.3466V17.8197C166.918 18.7113 166.914 19.5075 166.907 20.2083C166.901 20.9112 166.875 21.4644 166.831 21.8723C166.803 22.1586 166.753 22.3886 166.679 22.5622C166.607 22.7357 166.47 22.8464 166.268 22.8919C166.096 22.9375 165.865 22.9592 165.576 22.9592C165.46 22.9592 165.382 22.9809 165.339 23.0264C165.295 23.072 165.273 23.1176 165.273 23.1631C165.273 23.2998 165.41 23.367 165.685 23.367C165.872 23.367 166.087 23.3627 166.333 23.3562C166.577 23.3475 166.818 23.341 167.057 23.3345C167.294 23.328 167.514 23.3193 167.716 23.3128C167.919 23.3063 168.078 23.302 168.193 23.302C168.452 23.302 168.863 23.3128 169.424 23.3367C169.986 23.3584 170.577 23.3714 171.195 23.3714C171.454 23.3714 171.585 23.3041 171.585 23.1674C171.585 23.1219 171.558 23.0763 171.508 23.0308C171.458 22.9852 171.382 22.9635 171.282 22.9635C171.123 22.9635 170.954 22.9592 170.775 22.9527C170.595 22.944 170.44 22.9266 170.31 22.8963C170.022 22.8507 169.831 22.7422 169.738 22.5665C169.644 22.3929 169.583 22.1695 169.553 21.8983C169.509 21.4752 169.485 20.9047 169.476 20.1887C169.47 19.4706 169.466 18.6679 169.466 17.7763V14.3788C169.466 13.6542 169.466 13.0663 169.466 12.6129C169.466 12.1443 169.466 11.7668 169.466 11.4804C169.466 11.194 169.47 10.9641 169.476 10.7905C169.483 10.617 169.494 10.4542 169.509 10.3045C169.537 9.95742 169.598 9.70794 169.692 9.55607C169.785 9.40421 169.955 9.30658 170.199 9.26102C170.429 9.21546 170.616 9.19376 170.76 9.19376C170.991 9.19376 171.106 9.12651 171.106 8.98983C171.106 8.86834 170.969 8.80976 170.695 8.80976C170.508 8.80976 170.299 8.8141 170.068 8.82061C169.838 8.82929 169.607 8.83146 169.376 8.83146C169.146 8.83146 168.93 8.8358 168.728 8.84231C168.526 8.84882 168.367 8.85316 168.254 8.85316C168.123 8.85316 167.951 8.84882 167.736 8.84231C167.519 8.83363 167.281 8.83146 167.022 8.83146C166.764 8.83146 166.494 8.82712 166.213 8.82061C165.933 8.81193 165.663 8.80976 165.404 8.80976C165.13 8.80976 164.993 8.87051 164.993 8.98983C164.993 9.12651 165.102 9.19376 165.317 9.19376C165.447 9.19376 165.584 9.1981 165.728 9.20461C165.872 9.21112 165.98 9.23064 166.052 9.26102C166.355 9.35214 166.559 9.46495 166.668 9.60163C166.777 9.73831 166.844 9.97261 166.872 10.3045C166.872 10.4564 166.875 10.6256 166.883 10.8144C166.89 11.0031 166.898 11.2526 166.905 11.5607C166.912 11.8709 166.916 12.2658 166.916 12.7496C166.916 13.2182 166.916 13.8148 166.916 14.5394V14.9472C166.916 15.0384 166.879 15.0839 166.807 15.0839H159.635V15.0796ZM175.687 17.7741C175.687 18.6658 175.683 19.4685 175.677 20.1866C175.67 20.9047 175.644 21.4666 175.6 21.8744C175.572 22.1608 175.522 22.3908 175.45 22.5643C175.379 22.7379 175.242 22.8485 175.039 22.8941C174.867 22.9396 174.643 22.9613 174.369 22.9613C174.254 22.9613 174.176 22.983 174.132 23.0286C174.088 23.0742 174.067 23.1197 174.067 23.1653C174.067 23.302 174.189 23.3692 174.434 23.3692C174.637 23.3692 174.848 23.3649 175.072 23.3584C175.296 23.3497 175.522 23.3388 175.753 23.3237C175.983 23.3237 176.192 23.3193 176.379 23.3128C176.566 23.3063 176.719 23.302 176.834 23.302C177.121 23.302 177.447 23.3063 177.806 23.3128C178.168 23.3215 178.577 23.3323 179.038 23.3475C179.96 23.3931 181.126 23.4148 182.538 23.4148C182.71 23.4148 182.856 23.4104 182.971 23.4039C183.086 23.3952 183.184 23.3779 183.263 23.3475C183.341 23.3171 183.404 23.2694 183.445 23.2C183.489 23.1327 183.524 23.0373 183.554 22.918C183.582 22.8268 183.611 22.6837 183.641 22.4884C183.669 22.291 183.698 22.0892 183.728 21.8766C183.756 21.6662 183.778 21.4579 183.793 21.254C183.809 21.05 183.815 20.896 183.815 20.7897C183.815 20.6834 183.804 20.5814 183.782 20.4838C183.761 20.3862 183.715 20.3363 183.641 20.3363C183.541 20.3363 183.469 20.4339 183.426 20.6313C183.354 21.024 183.26 21.3299 183.145 21.549C183.03 21.7681 182.849 21.9373 182.606 22.0588C182.362 22.1803 182.062 22.2519 181.709 22.2736C181.357 22.2953 181.059 22.3083 180.813 22.3083C180.323 22.3083 179.917 22.2866 179.592 22.2411C179.268 22.1955 179.009 22.1131 178.814 21.9916C178.62 21.8701 178.479 21.7095 178.392 21.5056C178.305 21.3017 178.255 21.0327 178.242 20.7007C178.242 20.5641 178.242 20.3688 178.242 20.1128C178.242 19.8568 178.242 19.5921 178.242 19.3209C178.242 19.0346 178.242 18.7612 178.242 18.5052C178.242 18.234 178.242 18.0149 178.242 17.8479V16.3075C178.242 16.1708 178.276 16.1036 178.35 16.1036C178.466 16.1036 178.67 16.1079 178.966 16.1144C179.262 16.1231 179.571 16.1296 179.895 16.1361C180.219 16.1448 180.517 16.1513 180.791 16.1578C181.065 16.1665 181.246 16.1774 181.331 16.1925C181.692 16.2229 181.942 16.3054 182.088 16.442C182.231 16.5787 182.334 16.7436 182.39 16.941C182.418 17.0625 182.434 17.1818 182.434 17.3033C182.434 17.4248 182.44 17.5376 182.455 17.6439C182.455 17.7502 182.514 17.8023 182.627 17.8023C182.714 17.8023 182.769 17.7481 182.79 17.6439C182.812 17.5376 182.823 17.4465 182.823 17.3727C182.823 17.2968 182.83 17.1124 182.845 16.8174C182.86 16.5223 182.88 16.2771 182.91 16.0819C182.969 15.5981 183.008 15.2597 183.028 15.0622C183.049 14.8648 183.06 14.7368 183.06 14.6761C183.06 14.5394 183.01 14.4721 182.91 14.4721C182.867 14.4721 182.823 14.4938 182.78 14.5394C182.736 14.5849 182.68 14.6457 182.608 14.7216C182.521 14.8279 182.405 14.8952 182.262 14.9256C182.118 14.9559 181.931 14.9863 181.701 15.0167C181.585 15.0319 181.37 15.0427 181.052 15.0514C180.735 15.0601 180.397 15.0622 180.036 15.0622C179.675 15.0622 179.331 15.0622 178.999 15.0622C178.681 15.0622 178.472 15.0622 178.372 15.0622C178.285 15.0622 178.244 14.995 178.244 14.8583V10.1028C178.244 9.98129 178.287 9.92272 178.372 9.92272C178.472 9.92272 178.668 9.92705 178.955 9.93356C179.242 9.94007 179.553 9.94875 179.884 9.95526C180.215 9.96176 180.521 9.97044 180.802 9.97695C181.083 9.98563 181.268 9.99647 181.352 10.0117C181.827 10.0572 182.138 10.144 182.281 10.272C182.425 10.4 182.534 10.5475 182.606 10.7146C182.664 10.8361 182.699 10.9641 182.714 11.1007C182.73 11.2374 182.736 11.3416 182.736 11.4175C182.736 11.5845 182.786 11.667 182.888 11.667C182.96 11.667 183.01 11.6258 183.038 11.5412C183.067 11.4587 183.089 11.3936 183.104 11.3481C183.119 11.2873 183.13 11.1962 183.136 11.0769C183.143 10.9554 183.154 10.8317 183.169 10.7037C183.184 10.5757 183.195 10.4499 183.202 10.3306C183.208 10.2091 183.213 10.1266 183.213 10.0811C183.241 9.64285 183.273 9.34563 183.31 9.18726C183.345 9.02888 183.365 8.91173 183.365 8.8358C183.365 8.71431 183.321 8.65356 183.234 8.65356C183.191 8.65356 183.145 8.66441 183.093 8.68827C183.043 8.70997 182.988 8.72949 182.932 8.74468C182.86 8.75987 182.751 8.77939 182.608 8.80109C182.464 8.82278 182.305 8.84231 182.133 8.85749C182.075 8.85749 181.916 8.85749 181.657 8.85749C181.413 8.85749 181.109 8.85749 180.75 8.85749C180.404 8.85749 180.03 8.85749 179.627 8.85749C179.225 8.85749 178.842 8.85749 178.483 8.85749C178.122 8.85749 177.798 8.85749 177.511 8.85749C177.236 8.85749 177.049 8.85749 176.949 8.85749C176.675 8.85749 176.275 8.85099 175.751 8.8358C175.224 8.82061 174.711 8.8141 174.206 8.8141C173.919 8.8141 173.775 8.87485 173.775 8.99417C173.775 9.13085 173.884 9.1981 174.099 9.1981C174.243 9.1981 174.387 9.20244 174.532 9.20895C174.676 9.21546 174.785 9.23498 174.856 9.26536C175.159 9.35648 175.363 9.46929 175.472 9.60597C175.581 9.74264 175.648 9.97695 175.677 10.3089C175.677 10.4607 175.681 10.6213 175.687 10.7948C175.694 10.9684 175.698 11.1984 175.698 11.4847C175.698 11.7711 175.698 12.1486 175.698 12.6172C175.698 13.0706 175.698 13.6586 175.698 14.3832V17.7806L175.687 17.7741ZM190.681 16.2555C190.681 16.1491 190.724 16.0971 190.812 16.0971C190.899 16.0971 191.079 16.0971 191.351 16.0971C191.638 16.0971 191.949 16.1014 192.28 16.1079C192.611 16.1166 192.928 16.1231 193.231 16.1296C193.533 16.1383 193.742 16.1491 193.857 16.1643C194.144 16.1947 194.358 16.2858 194.495 16.4355C194.632 16.5874 194.721 16.7306 194.764 16.8651C194.851 17.0907 194.893 17.2881 194.893 17.453C194.893 17.5289 194.908 17.5919 194.936 17.6461C194.965 17.6982 195.008 17.7242 195.067 17.7242C195.167 17.7242 195.228 17.6721 195.252 17.5658C195.273 17.4595 195.284 17.3684 195.284 17.2946C195.284 17.2643 195.284 17.197 195.284 17.0907C195.284 16.9692 195.289 16.8369 195.295 16.6937C195.302 16.5505 195.31 16.403 195.317 16.2511C195.323 16.0992 195.334 15.9799 195.35 15.8888C195.378 15.5873 195.41 15.3182 195.447 15.0839C195.484 14.8496 195.502 14.7021 195.502 14.6414C195.502 14.5199 195.465 14.4613 195.393 14.4613C195.337 14.4613 195.293 14.4808 195.265 14.5177C195.236 14.5546 195.193 14.6045 195.134 14.6652C195.047 14.7867 194.936 14.8691 194.799 14.9147C194.662 14.9603 194.508 14.9906 194.334 15.0058C194.19 15.021 194.046 15.0275 193.901 15.0275C193.77 15.0275 193.627 15.0275 193.468 15.0275L190.812 15.0492C190.724 15.0492 190.681 14.9885 190.681 14.8691V10.2026C190.681 10.0811 190.696 10.0073 190.724 9.97695C190.753 9.94658 190.796 9.93139 190.855 9.93139L194.009 9.99864C194.371 10.0138 194.643 10.0811 194.83 10.2026C195.017 10.3241 195.147 10.4521 195.219 10.5887C195.291 10.7233 195.328 10.8599 195.328 10.9966C195.328 11.1333 195.328 11.2374 195.328 11.3134C195.328 11.5238 195.406 11.6301 195.565 11.6301C195.637 11.6301 195.685 11.5845 195.706 11.4934C195.728 11.4023 195.746 11.3199 195.761 11.2439C195.761 11.1832 195.765 11.0769 195.772 10.9272C195.778 10.7753 195.789 10.6169 195.804 10.4521C195.819 10.285 195.83 10.1266 195.837 9.97695C195.843 9.82509 195.848 9.72746 195.848 9.6819C195.876 9.4259 195.909 9.23715 195.946 9.11566C195.983 8.99417 196 8.89654 196 8.82061C196 8.69912 195.957 8.63837 195.872 8.63837C195.813 8.63837 195.763 8.65356 195.719 8.68394C195.676 8.71431 195.626 8.736 195.567 8.75119C195.408 8.78156 195.149 8.81193 194.79 8.84231C194.675 8.84231 194.366 8.84231 193.862 8.84231C193.357 8.84231 192.802 8.84231 192.197 8.84231C191.593 8.84231 191.016 8.84231 190.47 8.84231C189.937 8.84231 189.578 8.84231 189.391 8.84231C189.117 8.84231 188.717 8.8358 188.192 8.82061C187.666 8.80542 187.159 8.79892 186.669 8.79892C186.367 8.79892 186.215 8.85966 186.215 8.97899C186.215 9.05492 186.247 9.10698 186.313 9.13736C186.378 9.16773 186.454 9.18292 186.539 9.18292C186.682 9.18292 186.826 9.18725 186.97 9.19376C187.113 9.20027 187.222 9.2198 187.294 9.25017C187.596 9.3261 187.801 9.43458 187.909 9.57993C188.018 9.72312 188.086 9.96176 188.114 10.2937C188.114 10.4456 188.118 10.6061 188.125 10.7797C188.131 10.9532 188.136 11.1832 188.136 11.4696C188.136 11.7559 188.136 12.1334 188.136 12.602C188.136 13.0555 188.136 13.6434 188.136 14.368V17.7654C188.136 18.7026 188.131 19.5162 188.125 20.2126C188.118 20.9068 188.092 21.4579 188.049 21.8658C188.02 22.1521 187.97 22.3821 187.896 22.5557C187.825 22.7292 187.688 22.8399 187.485 22.8854C187.313 22.931 187.089 22.9527 186.815 22.9527C186.7 22.9527 186.624 22.9744 186.589 23.0199C186.552 23.0655 186.534 23.111 186.534 23.1566C186.534 23.2933 186.663 23.3605 186.924 23.3605C187.096 23.3605 187.298 23.3562 187.529 23.3497C187.759 23.341 187.986 23.3345 188.21 23.328C188.434 23.3215 188.645 23.3128 188.847 23.3063C189.049 23.2998 189.215 23.2954 189.343 23.2954C189.474 23.2954 189.645 23.2998 189.861 23.3063C190.078 23.315 190.322 23.3215 190.596 23.328C190.87 23.3367 191.162 23.3432 191.471 23.3497C191.78 23.3584 192.086 23.3605 192.389 23.3605C192.663 23.3605 192.8 23.2933 192.8 23.1566C192.8 23.111 192.774 23.0655 192.724 23.0199C192.674 22.9744 192.591 22.9527 192.476 22.9527C192.345 22.9527 192.191 22.9483 192.012 22.9418C191.832 22.9331 191.677 22.9158 191.547 22.8854C191.26 22.8399 191.068 22.7314 190.975 22.5557C190.881 22.3821 190.82 22.1521 190.792 21.8658C190.748 21.4579 190.72 20.9177 190.705 20.2451C190.69 19.5726 190.683 18.7699 190.683 17.8327V16.2468L190.681 16.2555Z" fill="black"/>
<path fill-rule="evenodd" clip-rule="evenodd" d="M71.2844 25.5724C75.4406 31.6216 98.3309 27.8569 106.234 26.345C108.011 25.8809 109.438 25.8496 111.212 25.5726C115 25.1417 116.948 25.9181 121.31 24.0834C122.784 23.4634 130.724 19.1656 130.557 18.7437C130.391 18.3217 124.449 21.1674 121.657 21.9506C121.168 22.0876 120.038 22.5892 119.865 22.1965C119.693 21.8038 121.938 20.9763 123.358 20.4397C124.222 20.1186 133.335 16.957 133.189 16.4118C133.043 15.8667 128.264 17.468 127.502 17.7093C125.519 18.3366 118.987 20.7283 118.79 20.2039C118.593 19.6796 119.853 19.362 120.258 19.1872C123.792 17.9248 129.121 16.1682 133.755 14.5587C134.502 14.2979 135.403 14.0019 135.296 13.6292C135.189 13.2566 127.316 15.3033 122.78 16.4046C120.497 16.9749 120.004 16.9667 117.807 17.9919C115.646 18.999 114.312 20.4691 112.37 21.9848C110.368 23.5466 109.462 23.776 107.901 24.4611C101.819 27.1303 67.3851 29.5919 72.7958 18.8412C73.3487 17.6263 74.6174 16.1878 76.0846 15.1201C73.0438 17.1802 68.2985 21.2266 71.2844 25.5724Z" fill="#FF2D55"/>
<path fill-rule="evenodd" clip-rule="evenodd" d="M79.7532 19.2936C79.7532 19.2936 89.3 23.3151 103.908 20.3769C108.408 19.4719 122.183 15.6382 127.193 8.47438C127.193 8.47438 123.5 12.4255 113.888 15.6382C104.276 18.8509 96.7859 19.8284 89.3047 19.9656C81.8236 20.1027 79.974 19.2936 79.7532 19.2936Z" fill="black"/>
<path d="M92.976 5.1288C100.319 2.82508 113.294 0.630792 121.962 3.59272C125.341 4.74741 125.511 7.31304 121.686 10.6136C122.763 10.0102 125.285 7.95 125.909 6.70386C127.101 4.32697 125.133 2.82573 123.149 2.11003C113.178 -1.49429 87.2616 2.74254 79.4216 11.0653C81.4368 9.57169 85.6329 7.43252 92.976 5.1288Z" fill="black"/>
<path d="M96.5119 8.82314C101.442 7.27644 110.153 5.80323 115.973 7.79183C118.242 8.56708 118.355 10.2896 115.787 12.5056C116.51 12.1005 118.204 10.7173 118.623 9.88062C119.423 8.2848 118.102 7.27688 116.77 6.79637C110.076 4.37647 92.6753 7.22103 87.4116 12.8088C88.7646 11.806 91.5818 10.3698 96.5119 8.82314Z" fill="black"/>
</svg>
