<svg xmlns="http://www.w3.org/2000/svg" viewBox="0 0 247 40"><path d="m4.5 30.5c0.7 0 1.5-0.1 2.2-0.2 0.7-0.2 1.4-0.5 2.1-0.9 0.5-0.3 0.9-0.7 1.2-1.1 0.3-0.4 0.6-0.8 0.8-1.3 0.2-0.4 0.3-0.9 0.4-1.3 0.1-0.4 0.1-0.9 0.1-1.3 0-0.7-0.1-1.4-0.2-2-0.2-0.6-0.4-1.2-0.8-1.8s-0.8-1.2-1.4-1.8-1.3-1.2-2.1-1.9l-0.8-0.6c-0.6-0.5-1-0.9-1.4-1.3-0.4-0.4-0.7-0.7-0.9-1-0.2-0.3-0.4-0.6-0.5-0.9-0.1-0.3-0.1-0.6-0.1-1 0-0.9 0.3-1.6 0.9-2.2 0.6-0.6 1.4-0.8 2.4-0.8 0.4 0 0.8 0 1.1 0.1s0.6 0.2 0.8 0.4c0.2 0.1 0.4 0.3 0.6 0.5 0.2 0.2 0.3 0.3 0.4 0.5 0.3 0.4 0.5 0.8 0.6 1.2 0.1 0.4 0.1 0.6 0.1 0.8 0 0.3 0.1 0.5 0.3 0.5 0.1 0 0.2-0.1 0.2-0.2 0-0.1 0.1-0.4 0.1-0.7 0-1.1 0-2 0.1-2.5 0-0.5 0.1-0.8 0.1-1 0-0.2-0.1-0.3-0.4-0.3-0.4-0.1-0.8-0.2-1.4-0.3-0.6-0.1-1.3-0.2-2.2-0.2-0.9 0-1.8 0.1-2.6 0.4-0.8 0.3-1.4 0.7-2 1.1-0.6 0.5-1 1.1-1.3 1.8-0.3 0.7-0.4 1.4-0.4 2.2 0 0.6 0.1 1.2 0.2 1.7 0.1 0.6 0.4 1.1 0.7 1.7 0.3 0.6 0.7 1.1 1.3 1.7 0.5 0.6 1.1 1.2 1.9 1.8l1.3 1.1c0.6 0.5 1 0.9 1.4 1.3 0.4 0.4 0.6 0.8 0.8 1.2 0.2 0.4 0.3 0.7 0.4 1.1 0.1 0.4 0.1 0.7 0.1 1.1 0 0.4-0.1 0.8-0.2 1.2-0.2 0.4-0.4 0.7-0.7 1.1-0.3 0.3-0.7 0.6-1.1 0.8-0.5 0.2-1 0.3-1.6 0.3-0.9 0-1.6-0.2-2.4-0.7s-1.2-1.2-1.5-2.3c-0.1-0.3-0.1-0.5-0.2-0.8 0-0.3-0.1-0.5-0.1-0.7 0-0.1 0-0.2 0-0.3 0-0.1-0.1-0.2-0.2-0.2-0.1 0-0.2 0.1-0.2 0.2 0 0.1-0.1 0.3-0.1 0.5 0 0.1 0 0.3 0 0.6 0 0.3 0 0.6-0.1 0.9 0 0.3 0 0.7 0 1.1 0 0.4 0 0.8 0 1.2 0 0.3 0 0.6 0.1 0.7 0.1 0.1 0.2 0.2 0.4 0.3 0.6 0.3 1.2 0.5 1.8 0.6 0.6 0.1 1.4 0.2 2.1 0.2h0zm11.1-2.9c-0.1 0.4-0.2 0.8-0.3 1.2-0.1 0.4-0.4 0.6-0.7 0.7-0.2 0-0.4 0.1-0.5 0.1h-0.3c-0.3 0-0.4 0.1-0.4 0.2 0 0.2 0.1 0.3 0.4 0.3 0.4 0 0.8 0 1.3 0 0.5 0 0.8 0 1.1 0 0.2 0 0.6 0 1 0 0.5 0 1 0 1.5 0 0.4 0 0.6-0.1 0.6-0.3 0-0.2-0.1-0.2-0.4-0.2-0.2 0-0.5 0-0.8-0.1-0.2 0-0.4-0.1-0.5-0.2-0.1-0.1-0.2-0.3-0.2-0.5 0-0.2 0-0.4 0-0.6s0-0.4 0.1-0.6l1.1-9.7h0.1c0.2 0.4 0.4 0.9 0.7 1.5 0.3 0.6 0.5 1.1 0.7 1.6 0.2 0.5 0.4 1 0.6 1.4 0.2 0.4 0.3 0.7 0.4 0.8 0.1 0.2 0.2 0.5 0.5 1 0.2 0.5 0.5 1.1 0.8 1.6s0.6 1.2 0.9 1.7c0.3 0.6 0.5 1 0.6 1.3 0.2 0.4 0.4 0.7 0.5 0.9 0.1 0.2 0.3 0.3 0.4 0.3s0.3-0.1 0.4-0.3c0.1-0.2 0.3-0.6 0.6-1.1l5.1-11.1h0.1l1.3 10.8c0 0.3 0 0.6 0 0.8s-0.1 0.3-0.1 0.3c-0.2 0.1-0.3 0.1-0.3 0.3 0 0.1 0 0.1 0.1 0.2 0.1 0 0.3 0.1 0.6 0.1 0.2 0 0.6 0 1.1 0.1 0.5 0 1 0 1.5 0.1 0.5 0 1 0 1.5 0s0.7 0 0.9 0c0.2 0 0.3 0 0.4-0.1 0.1 0 0.2-0.1 0.2-0.2 0-0.2-0.1-0.2-0.4-0.2-0.1 0-0.3 0-0.5 0-0.2 0-0.5-0.1-0.8-0.2-0.4-0.1-0.6-0.4-0.8-0.7s-0.3-0.9-0.4-1.7l-2.2-15.3c0-0.3-0.1-0.5-0.2-0.6-0.1-0.1-0.2-0.2-0.3-0.2-0.2 0-0.4 0.2-0.6 0.6l-6.4 14-6.4-13.8c-0.2-0.3-0.3-0.5-0.4-0.6-0.1-0.1-0.2-0.1-0.3-0.1-0.1 0-0.2 0.1-0.3 0.2-0.1 0.1-0.2 0.3-0.2 0.5l-2.4 16.2 0 0zm33.5-3.8c0.1 0 0.2 0.1 0.2 0.2l1.9 5c0.1 0.2 0.1 0.3 0 0.4-0.1 0.1-0.1 0.2-0.2 0.2-0.2 0-0.3 0.1-0.3 0.3 0 0.1 0.1 0.2 0.2 0.2 0.1 0 0.3 0 0.5 0 1 0 1.9 0.1 2.7 0.1h1.9c0.5 0 0.7 0 0.9-0.1s0.2-0.1 0.2-0.2c0-0.2-0.1-0.3-0.3-0.3-0.3 0-0.6 0-0.9-0.1-0.1 0-0.2-0.1-0.4-0.1-0.1-0.1-0.3-0.2-0.5-0.4-0.2-0.2-0.4-0.4-0.6-0.8s-0.4-0.8-0.7-1.4c-0.3-0.6-0.6-1.4-0.9-2.3-0.4-0.9-0.8-1.9-1.2-3-0.4-1.1-0.8-2.1-1.3-3.2-0.4-1.1-0.8-2.1-1.2-3-0.4-0.9-0.7-1.7-1-2.4-0.3-0.7-0.5-1.1-0.5-1.4-0.1-0.3-0.2-0.5-0.3-0.6-0.1-0.1-0.2-0.2-0.4-0.2-0.2 0-0.5 0.3-0.7 1l-6.3 15.6c-0.3 0.6-0.5 1.1-0.8 1.5-0.3 0.4-0.7 0.6-1.2 0.7-0.1 0-0.2 0-0.4 0s-0.2 0-0.4 0c-0.2 0-0.3 0.1-0.3 0.3 0 0.2 0.1 0.3 0.4 0.3 0.6 0 1.2 0 1.8 0 0.5 0 0.9 0 1 0 0.4 0 0.8 0 1.3 0 0.5 0 0.9 0 1.3 0 0.3 0 0.4-0.1 0.4-0.3 0-0.1 0-0.1-0.1-0.2 0 0-0.1-0.1-0.3-0.1h-0.4c-0.4 0-0.6-0.1-0.7-0.2-0.1-0.1-0.2-0.3-0.2-0.5 0-0.2 0-0.4 0.1-0.6 0.1-0.3 0.1-0.6 0.3-0.9l1.3-3.3c0-0.1 0.1-0.2 0.2-0.2h5.6v0zm-5.1-1.4c-0.1 0-0.1-0.1-0.1-0.2l2.3-6.3c0 0 0-0.1 0.1-0.1 0-0.1 0-0.1 0.1-0.1s0.1 0 0.1 0.1c0 0.1 0 0.1 0 0.1l2.3 6.3c0 0.1 0 0.1-0.1 0.1h-4.6zm15.7 0.4c0 1.2 0 2.2 0 3.1 0 0.9 0 1.7-0.1 2.2 0 0.4-0.1 0.7-0.2 0.9-0.1 0.2-0.3 0.4-0.5 0.4-0.2 0.1-0.5 0.1-0.8 0.1-0.1 0-0.2 0-0.3 0.1-0.1 0.1-0.1 0.1-0.1 0.2 0 0.2 0.2 0.3 0.5 0.3 0.2 0 0.5 0 0.8 0 0.3 0 0.6 0 0.9 0 0.3 0 0.5 0 0.8 0 0.2 0 0.4 0 0.5 0 0.1 0 0.3 0 0.5 0 0.3 0 0.6 0 0.9 0 0.4 0 0.7 0 1.1 0 0.4 0 0.8 0 1.1 0 0.3 0 0.5-0.1 0.5-0.3 0-0.1 0-0.1-0.1-0.2-0.1-0.1-0.1-0.1-0.2-0.1-0.1 0-0.3 0-0.6 0-0.2 0-0.4 0-0.6-0.1-0.4-0.1-0.6-0.2-0.7-0.4-0.1-0.2-0.2-0.5-0.2-0.9-0.1-0.5-0.1-1.2-0.1-2.2 0-0.9 0-2 0-3.1v-0.3c0-0.1 0.1-0.2 0.2-0.2l2.2 0.1c0.2 0 0.3 0.1 0.4 0.2 0.1 0.1 0.2 0.3 0.3 0.5 0.2 0.2 0.3 0.5 0.5 0.8 0.2 0.3 0.4 0.7 0.7 1 0.2 0.4 0.5 0.7 0.7 1 0.7 1 1.3 1.8 1.7 2.4s1 1 1.5 1.3c0.3 0.2 0.7 0.3 1 0.4 0.4 0.1 0.9 0.1 1.6 0.1h2.3c0.3 0 0.5-0.1 0.5-0.3 0-0.1 0-0.1-0.1-0.2-0.1-0.1-0.1-0.1-0.2-0.1h-0.3c-0.1 0-0.2 0-0.3-0.1-0.1 0-0.2 0-0.4-0.1-0.2 0-0.3-0.1-0.6-0.2s-0.5-0.3-0.7-0.5c-0.3-0.2-0.6-0.5-0.9-0.8-0.7-0.8-1.5-1.7-2.4-2.8-0.9-1.1-1.8-2.4-2.9-3.8 1.2-1 2-1.9 2.5-2.8 0.5-0.9 0.8-1.8 0.8-2.7 0-0.4-0.1-0.8-0.2-1.2-0.1-0.4-0.2-0.7-0.4-1-0.2-0.3-0.4-0.6-0.6-0.8s-0.4-0.4-0.5-0.5c-0.6-0.4-1.4-0.7-2.2-0.9-0.8-0.1-1.6-0.2-2.4-0.2-0.2 0-0.4 0-0.8 0-0.3 0-0.7 0-1.1 0-0.4 0-0.7 0-1.1 0-0.3 0-0.6 0-0.8 0-0.3 0-0.7 0-1.3 0-0.6 0-1.3 0-1.9 0-0.4 0-0.5 0.1-0.5 0.2 0 0.2 0.1 0.3 0.4 0.3 0.2 0 0.4 0 0.5 0 0.2 0 0.3 0 0.4 0.1 0.4 0.1 0.6 0.3 0.8 0.4s0.2 0.5 0.3 0.9c0 0.2 0 0.4 0 0.6 0 0.2 0 0.5 0 0.9v1.5 2.3 4.4h0zm3-9.8c0-0.2 0.1-0.3 0.2-0.3 0.1 0 0.3-0.1 0.6-0.1 0.3 0 0.5 0 0.8 0 0.3 0 0.7 0.1 1.2 0.2 0.4 0.1 0.8 0.4 1.2 0.7 0.4 0.3 0.7 0.8 0.9 1.4 0.2 0.6 0.4 1.3 0.4 2.2 0 1-0.2 1.8-0.5 2.4s-0.7 1-1 1.3c-0.2 0.2-0.4 0.3-0.6 0.3-0.2 0.1-0.6 0.1-1 0.1-0.3 0-0.6 0-1 0-0.3 0-0.6-0.1-0.9-0.2-0.1-0.1-0.2-0.2-0.2-0.4v-7.4zm17.8 9.8c0 1.2 0 2.2 0 3.1 0 0.9 0 1.7-0.1 2.2 0 0.4-0.1 0.7-0.2 0.9-0.1 0.2-0.3 0.4-0.5 0.4-0.2 0.1-0.5 0.1-0.8 0.1-0.1 0-0.2 0-0.3 0.1-0.1 0.1-0.1 0.1-0.1 0.2 0 0.2 0.2 0.3 0.5 0.3 0.2 0 0.5 0 0.8 0 0.3 0 0.6 0 0.9 0s0.6 0 0.8 0 0.4 0 0.6 0c0.3 0 0.9 0 1.6 0 0.7 0 1.5 0 2.3 0 0.3 0 0.5-0.1 0.5-0.3 0-0.1 0-0.1-0.1-0.2-0.1-0.1-0.2-0.1-0.3-0.1-0.2 0-0.4 0-0.6 0-0.2 0-0.4 0-0.6-0.1-0.4-0.1-0.6-0.2-0.7-0.4-0.1-0.2-0.2-0.5-0.2-0.9-0.1-0.5-0.1-1.3-0.1-2.2 0-0.9 0-2 0-3.1v-10l3 0.1c0.5 0 1 0 1.3 0.1 0.4 0.1 0.6 0.2 0.9 0.3 0.2 0.1 0.4 0.3 0.5 0.5 0.1 0.2 0.1 0.3 0.2 0.5l0 0.3c0 0.3 0.1 0.5 0.3 0.5 0.1 0 0.2-0.1 0.2-0.4 0-0.2 0-0.4 0-0.7 0-0.3 0-0.6 0-0.9 0-0.3 0-0.6 0-0.9 0-0.3 0-0.5 0-0.6 0-0.3-0.1-0.5-0.2-0.5 0 0-0.1 0-0.2 0-0.1 0-0.2 0-0.4 0.1-0.2 0-0.4 0.1-0.7 0.1-0.3 0-0.6 0-1 0h-9.7c-0.4 0-0.8 0-1.2 0-0.4 0-0.8 0-1.2-0.1-0.3 0-0.5-0.1-0.7-0.2-0.1-0.1-0.3-0.1-0.4-0.1-0.1 0-0.2 0.2-0.3 0.5 0 0.1-0.1 0.2-0.1 0.5-0.1 0.3-0.1 0.6-0.2 0.9-0.1 0.3-0.1 0.7-0.2 1 0 0.3-0.1 0.5-0.1 0.6 0 0.3 0.1 0.4 0.2 0.4 0.1 0 0.2-0.1 0.3-0.3 0-0.1 0.1-0.2 0.1-0.4s0.1-0.3 0.3-0.5c0.2-0.3 0.4-0.5 0.8-0.6 0.3-0.1 0.8-0.2 1.5-0.2l3.6-0.1v10l0 0z" class="a"/><path d="m186.3 30.5c0.4 0 0.9 0 1.3 0 0.5 0 0.9-0.1 1.3-0.1 0.4 0 0.8-0.1 1.2-0.2 0.4-0.1 0.7-0.2 1-0.3 0.2-0.1 0.4-0.2 0.5-0.3 0.1-0.1 0.2-0.3 0.2-0.5 0.1-0.3 0.1-0.6 0.2-1 0.1-0.4 0.1-0.8 0.2-1.2 0.1-0.4 0.1-0.8 0.1-1.1 0-0.3 0.1-0.5 0.1-0.6 0-0.1 0-0.2-0.1-0.3 0-0.1-0.1-0.1-0.2-0.1-0.1 0-0.2 0-0.2 0.1 0 0.1-0.1 0.2-0.1 0.5-0.1 0.3-0.2 0.6-0.3 1-0.2 0.4-0.4 0.7-0.6 1-0.5 0.7-1.2 1.1-2 1.3-0.8 0.2-1.8 0.3-3 0.3-0.9 0-1.9-0.2-2.9-0.6-1-0.4-1.9-1.1-2.8-1.9-0.8-0.9-1.5-2-2.1-3.3-0.6-1.3-0.8-2.8-0.8-4.6 0-1.4 0.2-2.8 0.5-4.1s1-2.5 2-3.5c0.6-0.6 1.3-1 2.1-1.3 0.8-0.3 1.8-0.5 3-0.5 1.3 0 2.4 0.2 3.4 0.5 1 0.3 1.7 0.8 2.2 1.3 0.3 0.4 0.6 0.8 0.8 1.3 0.2 0.5 0.3 0.9 0.3 1.4 0 0.4 0.1 0.6 0.3 0.6 0.1 0 0.2-0.1 0.2-0.2 0-0.1 0.1-0.3 0.1-0.5 0-0.1 0-0.3 0-0.6 0-0.3 0-0.6 0-0.8 0-0.3 0-0.6 0-0.9 0-0.3 0-0.6 0-0.8 0-0.5 0.1-0.9 0.1-1.1 0-0.2 0-0.4 0-0.5 0-0.2-0.1-0.3-0.4-0.3-0.4 0-0.8-0.1-1.3-0.2s-0.9-0.2-1.4-0.3c-0.6-0.1-1.2-0.2-1.8-0.2-0.6 0-1.3-0.1-2.1-0.1-2 0-3.7 0.3-5.1 0.8-1.4 0.5-2.5 1.3-3.5 2.3-0.7 0.6-1.2 1.3-1.6 2.1s-0.7 1.4-1 2.2c-0.2 0.7-0.4 1.4-0.5 2.1-0.1 0.7-0.1 1.2-0.1 1.7 0 0.7 0 1.4 0.2 2.2 0.1 0.7 0.3 1.5 0.5 2.2 0.3 0.7 0.6 1.5 1 2.2 0.4 0.7 1 1.4 1.7 2 1.3 1.2 2.7 2 4.2 2.5 1.6 0.5 3.3 0.7 5.1 0.7h0zm14.9-11.1c-0.1 0-0.2-0.1-0.2-0.2v-0.5-2.3-1.5c0-0.4 0-0.7 0-1 0-0.2 0-0.5 0-0.7 0-0.4 0.1-0.8 0.2-1 0.1-0.2 0.3-0.3 0.7-0.4 0.3-0.1 0.5-0.1 0.7-0.1 0.3 0 0.4-0.1 0.4-0.3 0-0.2-0.2-0.2-0.5-0.2-0.2 0-0.5 0-0.8 0-0.3 0-0.6 0-0.9 0-0.3 0-0.6 0-0.8 0-0.3 0-0.5 0-0.6 0-0.2 0-0.4 0-0.6 0-0.3 0-0.6 0-0.9 0-0.3 0-0.6 0-1 0-0.3 0-0.7 0-1 0-0.3 0-0.5 0.1-0.5 0.2 0 0.2 0.1 0.3 0.4 0.3 0.2 0 0.4 0 0.5 0 0.2 0 0.3 0 0.4 0.1 0.4 0.1 0.6 0.3 0.8 0.4s0.2 0.5 0.3 0.9c0 0.2 0 0.4 0 0.6 0 0.2 0 0.5 0 0.9v1.5 2.3 4.4c0 1.2 0 2.2 0 3.1 0 0.9 0 1.7-0.1 2.2 0 0.4-0.1 0.7-0.2 0.9-0.1 0.2-0.3 0.4-0.5 0.4-0.2 0.1-0.5 0.1-0.8 0.1-0.1 0-0.2 0-0.3 0.1-0.1 0.1-0.1 0.1-0.1 0.2 0 0.2 0.2 0.3 0.5 0.3 0.2 0 0.5 0 0.8 0 0.3 0 0.6 0 0.9 0 0.3 0 0.6 0 0.8 0s0.4 0 0.6 0c0.3 0 0.9 0 1.6 0 0.7 0 1.5 0 2.3 0 0.3 0 0.5-0.1 0.5-0.3 0-0.1 0-0.1-0.1-0.2-0.1-0.1-0.2-0.1-0.3-0.1-0.2 0-0.4 0-0.6 0-0.2 0-0.4 0-0.6-0.1-0.4-0.1-0.6-0.2-0.7-0.4-0.1-0.2-0.2-0.5-0.2-0.9-0.1-0.5-0.1-1.3-0.1-2.2 0-0.9 0-1.9 0-3.1v-1.9c0-0.1 0.1-0.1 0.2-0.1h9c0.1 0 0.1 0 0.1 0.1v1.9c0 1.2 0 2.2 0 3.1 0 0.9 0 1.6-0.1 2.1 0 0.4-0.1 0.7-0.2 0.9-0.1 0.2-0.3 0.4-0.5 0.4-0.2 0.1-0.5 0.1-0.9 0.1-0.1 0-0.2 0-0.3 0.1-0.1 0.1-0.1 0.1-0.1 0.2 0 0.2 0.2 0.3 0.5 0.3 0.2 0 0.5 0 0.8 0 0.3 0 0.6 0 0.9 0 0.3 0 0.6 0 0.8 0 0.3 0 0.5 0 0.6 0 0.3 0 0.8 0 1.6 0 0.7 0 1.5 0 2.2 0 0.3 0 0.5-0.1 0.5-0.3 0-0.1 0-0.1-0.1-0.2-0.1-0.1-0.2-0.1-0.3-0.1-0.2 0-0.4 0-0.6 0-0.2 0-0.4 0-0.6-0.1-0.4-0.1-0.6-0.2-0.7-0.4-0.1-0.2-0.2-0.5-0.2-0.9-0.1-0.5-0.1-1.3-0.1-2.2 0-0.9 0-2 0-3.1v-4.4-2.3-1.5c0-0.4 0-0.7 0-0.9 0-0.2 0-0.4 0-0.6 0-0.4 0.1-0.8 0.2-1 0.1-0.2 0.3-0.3 0.6-0.4 0.3-0.1 0.5-0.1 0.7-0.1 0.3 0 0.4-0.1 0.4-0.3 0-0.2-0.2-0.2-0.5-0.2-0.2 0-0.5 0-0.8 0-0.3 0-0.6 0-0.9 0-0.3 0-0.6 0-0.8 0-0.3 0-0.5 0-0.6 0-0.2 0-0.4 0-0.7 0-0.3 0-0.6 0-0.9 0s-0.7 0-1 0c-0.4 0-0.7 0-1 0-0.3 0-0.5 0.1-0.5 0.2 0 0.2 0.1 0.3 0.4 0.3 0.2 0 0.3 0 0.5 0s0.3 0 0.4 0.1c0.4 0.1 0.6 0.3 0.8 0.4s0.2 0.5 0.3 0.9c0 0.2 0 0.4 0 0.7 0 0.2 0 0.6 0 1 0 0.4 0 0.9 0 1.5v2.3 0.5c0 0.1 0 0.2-0.1 0.2h-9v0zm20.2 3.5c0 1.2 0 2.2 0 3.1 0 0.9 0 1.7-0.1 2.2 0 0.4-0.1 0.7-0.2 0.9-0.1 0.2-0.3 0.4-0.5 0.4-0.2 0.1-0.5 0.1-0.8 0.1-0.1 0-0.2 0-0.3 0.1-0.1 0.1-0.1 0.1-0.1 0.2 0 0.2 0.2 0.3 0.5 0.3 0.3 0 0.5 0 0.8 0 0.3 0 0.6 0 0.9 0 0.3 0 0.6 0 0.8 0s0.4 0 0.6 0c0.4 0 0.8 0 1.2 0 0.5 0 1 0 1.6 0 1.2 0.1 2.6 0.1 4.4 0.1 0.2 0 0.4 0 0.5 0 0.1 0 0.3 0 0.4-0.1 0.1 0 0.2-0.1 0.2-0.2 0.1-0.1 0.1-0.2 0.1-0.4 0-0.1 0.1-0.3 0.1-0.6 0-0.3 0.1-0.5 0.1-0.8 0-0.3 0.1-0.5 0.1-0.8 0-0.3 0-0.5 0-0.6s0-0.3 0-0.4c0-0.1-0.1-0.2-0.2-0.2-0.1 0-0.2 0.1-0.3 0.4-0.1 0.5-0.2 0.9-0.4 1.2-0.1 0.3-0.4 0.5-0.7 0.7s-0.7 0.2-1.1 0.3c-0.4 0-0.8 0-1.1 0-0.6 0-1.1 0-1.5-0.1-0.4-0.1-0.7-0.2-1-0.3-0.2-0.2-0.4-0.4-0.5-0.6-0.1-0.3-0.2-0.6-0.2-1v-0.8-1-1.1-0.8-2c0-0.2 0-0.3 0.1-0.3 0.1 0 0.4 0 0.8 0 0.4 0 0.8 0 1.2 0 0.4 0 0.8 0 1.1 0 0.3 0 0.6 0 0.7 0 0.5 0 0.8 0.1 1 0.3 0.2 0.2 0.3 0.4 0.4 0.6 0 0.2 0.1 0.3 0.1 0.5 0 0.2 0 0.3 0 0.4 0 0.1 0.1 0.2 0.2 0.2 0.1 0 0.2-0.1 0.2-0.2 0-0.1 0-0.3 0-0.3 0-0.1 0-0.3 0-0.7 0-0.4 0-0.7 0.1-0.9 0.1-0.6 0.1-1.1 0.1-1.3 0-0.3 0-0.4 0-0.5 0-0.2-0.1-0.3-0.2-0.3-0.1 0-0.1 0-0.2 0.1s-0.1 0.1-0.2 0.2c-0.1 0.1-0.3 0.2-0.4 0.3-0.2 0-0.4 0.1-0.7 0.1-0.1 0-0.4 0-0.8 0-0.4 0-0.8 0-1.3 0h-1.3-0.8c-0.1 0-0.2-0.1-0.2-0.3v-6.1c0-0.2 0.1-0.2 0.2-0.2 0.1 0 0.4 0 0.7 0s0.8 0 1.2 0c0.4 0 0.8 0 1.2 0 0.4 0 0.6 0 0.7 0 0.6 0.1 1 0.2 1.2 0.3s0.3 0.4 0.4 0.6c0.1 0.2 0.1 0.3 0.1 0.5 0 0.2 0 0.3 0 0.4 0 0.2 0.1 0.3 0.2 0.3 0.1 0 0.2-0.1 0.2-0.2 0-0.1 0.1-0.2 0.1-0.2 0-0.1 0-0.2 0-0.3 0-0.2 0-0.3 0-0.5s0-0.3 0-0.5c0-0.2 0-0.3 0-0.3 0-0.6 0.1-0.9 0.1-1.2 0-0.2 0.1-0.4 0.1-0.5 0-0.2-0.1-0.2-0.2-0.2-0.1 0-0.1 0-0.2 0-0.1 0-0.1 0.1-0.2 0.1-0.1 0-0.2 0-0.4 0.1-0.2 0-0.4 0.1-0.6 0.1h-0.6-1.1-1.4-1.4-1.2-0.7c-0.3 0-0.8 0-1.5 0-0.7 0-1.3 0-1.9 0-0.4 0-0.5 0.1-0.5 0.2 0 0.2 0.1 0.3 0.4 0.3 0.2 0 0.4 0 0.5 0 0.2 0 0.3 0 0.4 0.1 0.4 0.1 0.6 0.3 0.8 0.4 0.1 0.2 0.2 0.5 0.3 0.9 0 0.2 0 0.4 0 0.6 0 0.2 0 0.5 0 0.9v1.5 2.3 4.4l0 0zm18.9-2c0-0.1 0.1-0.2 0.2-0.2h0.7c0.4 0 0.8 0 1.2 0 0.4 0 0.8 0 1.2 0 0.4 0 0.6 0 0.8 0 0.4 0 0.6 0.2 0.8 0.3 0.2 0.2 0.3 0.4 0.3 0.6 0.1 0.3 0.2 0.5 0.2 0.8 0 0.1 0 0.2 0.1 0.2 0 0.1 0.1 0.1 0.2 0.1 0.1 0 0.2-0.1 0.2-0.2 0-0.1 0-0.3 0-0.3v-0.3c0-0.2 0-0.3 0-0.5 0-0.2 0-0.4 0-0.6 0-0.2 0-0.3 0-0.5 0-0.4 0.1-0.7 0.1-1 0-0.3 0.1-0.5 0.1-0.6 0-0.2 0-0.2-0.1-0.2-0.1 0-0.1 0-0.2 0.1 0 0-0.1 0.1-0.2 0.2-0.1 0.2-0.2 0.3-0.4 0.3-0.2 0.1-0.4 0.1-0.6 0.1-0.2 0-0.4 0-0.5 0h-0.5l-3.3 0c-0.1 0-0.2-0.1-0.2-0.2v-6c0-0.2 0-0.3 0.1-0.3 0 0 0.1-0.1 0.2-0.1l4 0.1c0.5 0 0.8 0.1 1 0.3s0.4 0.3 0.5 0.5c0.1 0.2 0.1 0.3 0.1 0.5v0.4c0 0.3 0.1 0.4 0.3 0.4 0.1 0 0.2-0.1 0.2-0.2 0-0.1 0-0.2 0.1-0.3 0-0.1 0-0.2 0-0.4 0-0.2 0-0.4 0-0.6 0-0.2 0-0.4 0-0.6 0-0.2 0-0.3 0-0.4 0-0.3 0.1-0.6 0.1-0.7 0-0.2 0.1-0.3 0.1-0.4 0-0.2-0.1-0.2-0.2-0.2-0.1 0-0.1 0-0.2 0.1s-0.1 0.1-0.2 0.1c-0.2 0-0.5 0.1-1 0.1h-1.2-2.1-2.2-1.4c-0.3 0-0.8 0-1.5 0-0.7 0-1.3 0-1.9 0-0.4 0-0.6 0.1-0.6 0.2 0 0.1 0 0.2 0.1 0.2s0.2 0.1 0.3 0.1c0.2 0 0.4 0 0.5 0s0.3 0 0.4 0.1c0.4 0.1 0.6 0.2 0.8 0.4 0.1 0.2 0.2 0.5 0.3 0.9 0 0.2 0 0.4 0 0.6 0 0.2 0 0.5 0 0.9v1.5 2.3 4.4c0 1.2 0 2.3 0 3.2 0 0.9 0 1.6-0.1 2.1 0 0.4-0.1 0.7-0.2 0.9-0.1 0.2-0.3 0.4-0.5 0.4-0.2 0.1-0.5 0.1-0.8 0.1-0.1 0-0.2 0-0.3 0.1 0 0.1-0.1 0.1-0.1 0.2 0 0.2 0.2 0.3 0.5 0.3 0.2 0 0.5 0 0.8 0 0.3 0 0.6 0 0.9 0 0.3 0 0.5 0 0.8 0s0.5 0 0.6 0c0.2 0 0.4 0 0.7 0 0.3 0 0.6 0 0.9 0 0.3 0 0.7 0 1.1 0 0.4 0 0.8 0 1.2 0 0.3 0 0.5-0.1 0.5-0.3 0-0.1 0-0.1-0.1-0.2-0.1-0.1-0.2-0.1-0.3-0.1-0.2 0-0.4 0-0.6 0-0.2 0-0.4 0-0.6-0.1-0.4-0.1-0.6-0.2-0.7-0.4-0.1-0.2-0.2-0.5-0.2-0.9-0.1-0.5-0.1-1.2-0.1-2.1s0-1.9 0-3.1v-2l0 0z" class="a"/><path d="m89.8 32.9c5.2 7.8 34.1 3 44.1 1 2.2-0.6 4-0.6 6.3-1 4.8-0.6 7.2 0.5 12.7-1.9 1.9-0.8 11.9-6.3 11.6-6.9-0.2-0.5-7.7 3.1-11.2 4.1-0.6 0.2-2 0.8-2.3 0.3-0.2-0.5 2.6-1.6 4.4-2.3 1.1-0.4 12.6-4.5 12.4-5.2-0.2-0.7-6.2 1.4-7.2 1.7-2.5 0.8-10.7 3.9-11 3.2-0.2-0.7 1.3-1.1 1.9-1.3 4.5-1.6 11.2-3.9 17-6 0.9-0.3 2.1-0.7 1.9-1.2-0.1-0.5-10.1 2.2-15.8 3.6-2.9 0.7-3.5 0.7-6.3 2-2.7 1.3-4.4 3.2-6.8 5.1-2.5 2-3.7 2.3-5.6 3.2-7.7 3.4-51.1 6.6-44.3-7.3 0.7-1.6 2.3-3.4 4.1-4.8-3.8 2.7-9.8 7.9-6 13.5z" fill="#FF2D55"/><path d="m100.5 24.8s12 5.2 30.4 1.4c5.7-1.2 23-6.1 29.3-15.4 0 0-4.7 5.1-16.8 9.2-12.1 4.1-21.5 5.4-31 5.6-9.4 0.2-11.8-0.9-12-0.9z" class="a"/><path d="m117.2 6.5c9.3-3 25.6-5.8 36.5-2 4.3 1.5 4.5 4.8-0.3 9.1 1.4-0.8 4.5-3.4 5.3-5 1.5-3.1-1-5-3.5-5.9-12.6-4.6-45.2 0.8-55.1 11.6 2.5-1.9 7.8-4.7 17.1-7.7z" class="a"/><path d="m121.6 11.3c6.2-2 17.2-3.9 24.5-1.3 2.9 1 3 3.2-0.2 6.1 0.9-0.5 3-2.3 3.6-3.4 1-2.1-0.7-3.4-2.3-4-8.4-3.1-30.4 0.5-37 7.8 1.7-1.3 5.3-3.1 11.5-5.1z" class="a"/></svg>
