<svg width="197" height="31" viewBox="0 0 197 31" fill="none" xmlns="http://www.w3.org/2000/svg">
<path d="M3.75899 23.7265C4.3355 23.7265 4.91418 23.6614 5.49938 23.5334C6.08242 23.4054 6.64804 23.1603 7.19409 22.798C7.58351 22.5268 7.90765 22.2317 8.16654 21.915C8.42542 21.5982 8.63427 21.2663 8.79308 20.9192C8.95189 20.5721 9.06284 20.225 9.12811 19.8778C9.19337 19.5307 9.226 19.1901 9.226 18.8582C9.226 18.3158 9.16509 17.806 9.04326 17.3287C8.92143 16.8536 8.71911 16.3893 8.43847 15.9359C8.15784 15.4825 7.79018 15.0225 7.3355 14.5539C6.88082 14.0853 6.33042 13.595 5.68213 13.083L5.07734 12.6079C4.63136 12.2456 4.25935 11.9223 3.96566 11.6338C3.6698 11.3474 3.43702 11.0784 3.26298 10.8289C3.09111 10.5794 2.96711 10.3343 2.89532 10.0934C2.82353 9.85262 2.78655 9.60314 2.78655 9.34497C2.78655 8.66592 3.0128 8.10619 3.46747 7.66795C3.92215 7.22971 4.55087 7.01059 5.35798 7.01059C5.70388 7.01059 6.00627 7.04748 6.26516 7.12341C6.52404 7.19934 6.74812 7.29263 6.93521 7.40761C7.1223 7.52042 7.27676 7.64192 7.39859 7.76992C7.52042 7.89792 7.62484 8.01507 7.71186 8.12137C7.94246 8.42293 8.09475 8.72232 8.16654 9.0152C8.23833 9.31025 8.27531 9.50985 8.27531 9.61615C8.27531 9.88734 8.3471 10.024 8.49069 10.024C8.57771 10.024 8.63862 9.97411 8.67343 9.87649C8.71041 9.77886 8.72781 9.60097 8.72781 9.34497C8.72781 8.45331 8.74304 7.81548 8.77132 7.43148C8.79961 7.04748 8.81483 6.77846 8.81483 6.62659C8.81483 6.49209 8.71476 6.40097 8.51244 6.35541C8.22528 6.27948 7.84892 6.19704 7.38989 6.10592C6.92868 6.0148 6.34565 5.96924 5.64079 5.96924C4.89242 5.96924 4.21149 6.07554 3.598 6.28599C2.98669 6.49643 2.46022 6.79147 2.02077 7.16897C1.58132 7.54646 1.24412 7.99988 1.00482 8.52707C0.767689 9.05642 0.648037 9.62917 0.648037 10.2475C0.648037 10.7009 0.702424 11.1456 0.809024 11.5839C0.917798 12.0221 1.09619 12.456 1.34855 12.8856C1.6009 13.3151 1.93158 13.7577 2.34275 14.2111C2.75391 14.6646 3.25428 15.1332 3.84384 15.6148L4.83804 16.4305C5.28401 16.7928 5.64732 17.1356 5.92796 17.461C6.20859 17.7843 6.42397 18.0902 6.57625 18.3787C6.72854 18.6651 6.82861 18.9493 6.87865 19.227C6.92868 19.5069 6.95479 19.7824 6.95479 20.0536C6.95479 20.3551 6.89387 20.6589 6.77205 20.9604C6.65022 21.262 6.46965 21.5375 6.23253 21.787C5.9954 22.0365 5.69518 22.2404 5.33622 22.3988C4.97727 22.5572 4.55087 22.6374 4.06138 22.6374C3.38481 22.6374 2.76044 22.4682 2.19264 22.1276C1.62483 21.787 1.21584 21.1947 0.972185 20.3508C0.915623 20.1534 0.867762 19.9516 0.832954 19.739C0.795971 19.5286 0.778567 19.3463 0.778567 19.1944C0.778567 19.1033 0.767689 19.0165 0.745934 18.9341C0.724179 18.8517 0.663266 18.8105 0.561018 18.8105C0.476173 18.8105 0.413084 18.8669 0.378276 18.9797C0.341293 19.0925 0.317362 19.2335 0.302134 19.3984C0.302134 19.4895 0.295607 19.637 0.280379 19.841C0.265151 20.0449 0.252098 20.2835 0.236869 20.5547C0.221641 20.8259 0.212939 21.1166 0.204237 21.4269C0.19771 21.7371 0.193359 22.0495 0.193359 22.3662C0.193359 22.6222 0.219465 22.7958 0.269502 22.8869C0.319538 22.978 0.430488 23.0605 0.604527 23.1364C1.06573 23.3469 1.54869 23.4987 2.05123 23.5898C2.55594 23.681 3.12375 23.7265 3.75682 23.7265H3.75899ZM12.5958 21.4854C12.5523 21.8022 12.4762 22.1189 12.3696 22.4357C12.2608 22.7524 12.0781 22.926 11.8192 22.9563C11.6604 22.9867 11.5386 23.0019 11.4515 23.0019C11.3797 23.0019 11.3079 23.0019 11.2362 23.0019C11.0338 23.0019 10.9338 23.0626 10.9338 23.1841C10.9338 23.336 11.0491 23.4098 11.2797 23.4098C11.5821 23.4098 11.9236 23.3989 12.3065 23.3751C12.6872 23.3534 12.9722 23.3403 13.1593 23.3403C13.3312 23.3403 13.6096 23.3512 13.9903 23.3751C14.371 23.3967 14.7648 23.4098 15.1673 23.4098C15.4697 23.4098 15.6198 23.3338 15.6198 23.1841C15.6198 23.0626 15.5197 23.0019 15.3174 23.0019C15.1586 23.0019 14.9367 22.9715 14.6473 22.9108C14.4885 22.8804 14.3515 22.824 14.2362 22.7416C14.1209 22.6591 14.0643 22.5268 14.0643 22.3445C14.0643 22.1775 14.0686 22.0278 14.0752 21.8911C14.0817 21.7544 14.0991 21.6048 14.1296 21.4377L15.0367 13.9182H15.102C15.2608 14.2502 15.4414 14.6364 15.6415 15.0724C15.8438 15.5107 16.0375 15.9337 16.2246 16.3416C16.4117 16.7494 16.577 17.1117 16.7206 17.4285C16.8642 17.7452 16.9577 17.9492 17.0012 18.0403C17.0578 18.177 17.1818 18.4395 17.3689 18.8321C17.556 19.2248 17.7648 19.6479 17.9954 20.1013C18.226 20.5547 18.4523 20.9951 18.6763 21.4269C18.9004 21.8564 19.0679 22.1862 19.1832 22.4118C19.342 22.7134 19.4791 22.952 19.5944 23.1256C19.7097 23.2991 19.825 23.3859 19.9403 23.3859C20.0556 23.3859 20.1557 23.3186 20.2427 23.182C20.3297 23.0453 20.4798 22.7524 20.6974 22.299L24.7808 13.6926H24.846L25.9055 22.0278C25.9338 22.299 25.9425 22.4964 25.9273 22.6179C25.912 22.7394 25.8772 22.8132 25.8185 22.8435C25.6749 22.8891 25.6031 22.9563 25.6031 23.0475C25.6031 23.1082 25.6379 23.1581 25.7119 23.195C25.7837 23.2319 25.936 23.2601 26.1666 23.2731C26.3537 23.2883 26.643 23.3035 27.0302 23.3187C27.4196 23.3338 27.8221 23.349 28.2398 23.3642C28.6575 23.3794 29.0426 23.3902 29.395 23.3989C29.7474 23.4076 29.9824 23.4098 30.0977 23.4098C30.2413 23.4098 30.3609 23.3902 30.4545 23.3534C30.548 23.3165 30.5959 23.2601 30.5959 23.1841C30.5959 23.0626 30.4958 23.0019 30.2935 23.0019C30.1782 23.0019 30.0368 22.9911 29.8714 22.9672C29.7061 22.9455 29.4864 22.8956 29.2122 22.8197C28.9251 22.7285 28.7184 22.5398 28.5966 22.2534C28.4748 21.9671 28.3703 21.5201 28.2833 20.917L26.556 9.02605C26.5277 8.81561 26.4668 8.65941 26.3711 8.56178C26.2775 8.46415 26.1948 8.41425 26.123 8.41425C25.936 8.41425 25.7706 8.57263 25.627 8.88937L20.5277 19.7607L15.4283 9.02388C15.2978 8.76788 15.1934 8.60083 15.1151 8.5249C15.0367 8.44896 14.9454 8.41209 14.8453 8.41209C14.7735 8.41209 14.7017 8.45331 14.6299 8.53792C14.5581 8.62036 14.5081 8.74619 14.4776 8.91107L12.598 21.4811L12.5958 21.4854ZM39.213 18.5631C39.3131 18.5631 39.3783 18.6087 39.4066 18.6998L40.8751 22.5723C40.9186 22.6938 40.9186 22.7915 40.8751 22.8674C40.8316 22.9433 40.775 22.9889 40.7032 23.0041C40.5444 23.0193 40.4661 23.0865 40.4661 23.208C40.4661 23.2839 40.5161 23.3252 40.6184 23.3317C40.7184 23.3382 40.8555 23.3512 41.0295 23.3664C41.8366 23.3968 42.5632 23.4119 43.2115 23.4119C43.8598 23.4119 44.3493 23.4119 44.68 23.4119C45.0411 23.4119 45.2674 23.3968 45.3609 23.3664C45.4545 23.336 45.5023 23.2839 45.5023 23.208C45.5023 23.0713 45.4153 23.0041 45.2435 23.0041C45.0411 23.0041 44.804 22.9824 44.5299 22.9368C44.4429 22.9216 44.3471 22.8869 44.2384 22.8349C44.1296 22.7806 44.0078 22.683 43.8707 22.5398C43.7337 22.3966 43.5857 22.1927 43.4269 21.928C43.2681 21.6633 43.0962 21.3119 42.9091 20.8758C42.7068 20.392 42.4588 19.7889 42.163 19.0643C41.8671 18.3397 41.5538 17.5652 41.2231 16.7429C40.8925 15.9185 40.5531 15.0898 40.2072 14.2524C39.8613 13.4149 39.5437 12.6361 39.2565 11.9202C38.9693 11.202 38.717 10.5837 38.4994 10.0631C38.284 9.54239 38.1383 9.19093 38.0665 9.01086C37.9664 8.80042 37.8816 8.64422 37.8185 8.54659C37.7532 8.44897 37.6488 8.39907 37.5052 8.39907C37.3334 8.39907 37.1441 8.65507 36.9439 9.16924L31.9751 21.2858C31.7728 21.7696 31.5683 22.1536 31.3595 22.4422C31.1506 22.7285 30.8308 22.9108 30.3979 22.9845C30.3109 22.9845 30.2173 22.9889 30.1173 22.9954C30.0172 23.0019 29.9236 23.0062 29.8366 23.0062C29.693 23.0062 29.6191 23.0735 29.6191 23.2102C29.6191 23.3469 29.7344 23.4141 29.965 23.4141C30.4697 23.4141 30.9374 23.4033 31.3682 23.3794C31.8011 23.3577 32.0665 23.3447 32.1687 23.3447C32.4711 23.3447 32.8192 23.3555 33.2152 23.3794C33.6111 23.4011 33.9679 23.4141 34.2855 23.4141C34.4878 23.4141 34.5879 23.3469 34.5879 23.2102C34.5879 23.1494 34.5705 23.0995 34.5335 23.0626C34.4987 23.0258 34.4226 23.0062 34.3073 23.0062H34.0266C33.7394 23.0062 33.5415 22.9585 33.4327 22.8587C33.3239 22.7611 33.2717 22.6287 33.2717 22.4617C33.2717 22.3402 33.2935 22.1753 33.337 21.9627C33.3805 21.7523 33.4523 21.5245 33.5524 21.2837L34.5683 18.702C34.5966 18.6109 34.6553 18.5653 34.7402 18.5653H39.213V18.5631ZM35.1296 17.4979C35.0426 17.4979 35.0208 17.4523 35.0643 17.3612L36.9004 12.4929C36.9157 12.4625 36.9287 12.4256 36.9439 12.3801C36.9592 12.3345 36.9809 12.3128 37.0092 12.3128C37.0375 12.3128 37.0571 12.3345 37.0636 12.3801C37.0701 12.4256 37.081 12.4625 37.0962 12.4929L38.8888 17.3851C38.9171 17.461 38.8888 17.4979 38.8018 17.4979H35.1296ZM47.5734 17.8147C47.5734 18.7063 47.569 19.509 47.5625 20.2271C47.556 20.9452 47.5299 21.5071 47.4864 21.915C47.4581 22.2014 47.4081 22.4313 47.3341 22.6049C47.2623 22.7784 47.1253 22.8891 46.9229 22.9346C46.7511 22.9802 46.527 23.0019 46.2529 23.0019C46.1376 23.0019 46.0593 23.0236 46.0158 23.0692C45.9722 23.1147 45.9505 23.1603 45.9505 23.2058C45.9505 23.3425 46.0723 23.4098 46.3181 23.4098C46.5052 23.4098 46.7141 23.4054 46.9447 23.3989C47.1753 23.3902 47.4015 23.3837 47.6256 23.3772C47.8497 23.3707 48.0542 23.362 48.2413 23.3555C48.4284 23.349 48.5654 23.3447 48.6524 23.3447C48.7242 23.3447 48.8678 23.349 49.0854 23.3555C49.3007 23.3642 49.5487 23.3707 49.8316 23.3772C50.1122 23.3859 50.4102 23.3924 50.7279 23.3989C51.0455 23.4076 51.3392 23.4098 51.6133 23.4098C51.8722 23.4098 52.0027 23.3425 52.0027 23.2058C52.0027 23.1603 51.9809 23.1147 51.9374 23.0692C51.8939 23.0236 51.8374 23.0019 51.7656 23.0019C51.6503 23.0019 51.5023 22.9976 51.3218 22.9911C51.1412 22.9824 50.9802 22.965 50.8366 22.9346C50.5495 22.8891 50.3602 22.7806 50.2754 22.6049C50.1883 22.4313 50.1318 22.2014 50.1035 21.915C50.06 21.5071 50.0317 20.9496 50.0165 20.238C50.0013 19.5286 49.9947 18.7193 49.9947 17.8147V17.5435C49.9947 17.4372 50.0448 17.3851 50.1448 17.3851L51.8526 17.4307C51.9962 17.4307 52.1115 17.4762 52.1985 17.5673C52.2572 17.6433 52.3464 17.7713 52.4683 17.9513C52.5901 18.1336 52.7358 18.3483 52.899 18.5978C53.0643 18.8473 53.2406 19.112 53.4298 19.3897C53.6169 19.6696 53.804 19.9364 53.9911 20.1946C54.5241 20.9496 54.9853 21.557 55.3747 22.017C55.7641 22.4769 56.1666 22.8132 56.5843 23.0258C56.8301 23.1624 57.1021 23.2601 57.4045 23.3208C57.7068 23.3816 58.1245 23.4119 58.6575 23.4119H60.4719C60.7177 23.4119 60.8396 23.3447 60.8396 23.208C60.8396 23.1624 60.8178 23.1169 60.7743 23.0713C60.7308 23.0258 60.672 23.0041 60.6003 23.0041C60.5285 23.0041 60.4567 23.0041 60.3849 23.0041C60.3261 23.0041 60.2478 22.9889 60.1477 22.9585C60.076 22.9433 59.9781 22.9216 59.8562 22.8913C59.7344 22.8609 59.5865 22.8045 59.4124 22.722C59.2384 22.6396 59.0448 22.5138 58.8294 22.3489C58.614 22.1818 58.3747 21.9627 58.1158 21.6915C57.5393 21.0884 56.9128 20.3551 56.2362 19.4938C55.5596 18.6326 54.796 17.6585 53.9454 16.5715C54.8809 15.7862 55.5553 15.0616 55.9643 14.3977C56.3754 13.7338 56.5799 13.0396 56.5799 12.315C56.5799 11.9983 56.5364 11.6989 56.4494 11.4212C56.3646 11.1413 56.2514 10.8896 56.1144 10.6618C55.9773 10.4362 55.8294 10.2345 55.6706 10.0609C55.5118 9.88734 55.3682 9.755 55.2377 9.66388C54.7329 9.31676 54.1564 9.09331 53.5103 8.99568C52.862 8.89805 52.2355 8.84815 51.6307 8.84815C51.4871 8.84815 51.2826 8.85249 51.015 8.859C50.7496 8.86768 50.4646 8.86985 50.1622 8.86985C49.8751 8.86985 49.5944 8.87418 49.3203 8.88069C49.0462 8.8872 48.8308 8.89154 48.672 8.89154C48.4697 8.89154 48.1151 8.88503 47.6017 8.86985C47.0904 8.85466 46.5835 8.84815 46.0788 8.84815C45.7917 8.84815 45.6459 8.9089 45.6459 9.02822C45.6459 9.1649 45.7547 9.23215 45.9701 9.23215C46.1136 9.23215 46.2572 9.23649 46.4008 9.243C46.5444 9.24951 46.6532 9.26903 46.725 9.29941C47.0274 9.39052 47.2318 9.50334 47.3406 9.64001C47.4494 9.77669 47.5168 10.011 47.5451 10.3429C47.5451 10.4948 47.5495 10.6553 47.556 10.8289C47.5625 11.0025 47.5669 11.2324 47.5669 11.5188C47.5669 11.8052 47.5669 12.1827 47.5669 12.6513C47.5669 13.1047 47.5669 13.6926 47.5669 14.4172V17.8147H47.5734ZM49.9925 10.1824C49.9925 10.0457 50.0513 9.95676 50.1644 9.9112C50.2645 9.88083 50.4168 9.86131 50.6191 9.8548C50.8214 9.84829 51.0433 9.84395 51.2891 9.84395C51.5633 9.84395 51.87 9.89384 52.2072 9.99147C52.5466 10.0891 52.862 10.2713 53.1579 10.5338C53.4538 10.7985 53.6974 11.15 53.8932 11.5882C54.0868 12.0265 54.1847 12.584 54.1847 13.2652C54.1847 14.0658 54.052 14.6884 53.7844 15.1332C53.5168 15.5779 53.2406 15.9077 52.9512 16.1181C52.7924 16.2396 52.6227 16.322 52.4443 16.3676C52.2638 16.4132 51.9875 16.4349 51.6133 16.4349C51.3675 16.4349 51.1151 16.424 50.8562 16.4001C50.5973 16.3785 50.3667 16.3286 50.1644 16.2526C50.0491 16.1919 49.9925 16.0791 49.9925 15.912V10.1824ZM64.1006 17.8147C64.1006 18.7063 64.0963 19.509 64.0897 20.2271C64.0832 20.9452 64.0571 21.5071 64.0136 21.915C63.9853 22.2014 63.9353 22.4313 63.8635 22.6049C63.7917 22.7784 63.6546 22.8891 63.4523 22.9346C63.2935 22.9802 63.0716 23.0019 62.7823 23.0019C62.667 23.0019 62.5886 23.0236 62.5451 23.0692C62.5016 23.1147 62.4799 23.1603 62.4799 23.2058C62.4799 23.3425 62.6017 23.4098 62.8475 23.4098C63.0346 23.4098 63.2522 23.4054 63.4958 23.3989C63.7417 23.3902 63.9831 23.3837 64.2203 23.3772C64.4574 23.3707 64.6749 23.362 64.8686 23.3555C65.0622 23.349 65.2188 23.3447 65.3319 23.3447C65.6061 23.3447 66.0281 23.3555 66.5959 23.3794C67.1659 23.4011 67.7663 23.4141 68.3994 23.4141C68.643 23.4141 68.767 23.3469 68.767 23.2102C68.767 23.1646 68.7453 23.1191 68.7018 23.0735C68.6583 23.0279 68.58 23.0062 68.4647 23.0062C68.3211 23.0062 68.1557 23.0019 67.9665 22.9954C67.7794 22.9867 67.6206 22.9694 67.4922 22.939C67.205 22.8934 67.0179 22.785 66.9309 22.6092C66.8439 22.4357 66.7873 22.2122 66.7591 21.941C66.7156 21.518 66.6873 20.9474 66.672 20.2315C66.6568 19.5134 66.6503 18.7107 66.6503 17.819V10.0284L69.0477 10.0739C69.4784 10.0739 69.8352 10.1108 70.118 10.1867C70.3987 10.2627 70.6249 10.3538 70.799 10.4579C70.9708 10.5642 71.0948 10.6814 71.1666 10.8094C71.2384 10.9374 71.2819 11.0632 71.2971 11.1825L71.3189 11.3865C71.3341 11.6425 71.4059 11.7726 71.5343 11.7726C71.6213 11.7726 71.6779 11.6663 71.7061 11.4559C71.7061 11.3344 71.7105 11.1652 71.717 10.9461C71.7235 10.7269 71.7279 10.497 71.7279 10.254C71.7279 10.0132 71.7322 9.78971 71.7388 9.58578C71.7453 9.38185 71.7496 9.22781 71.7496 9.12151C71.7496 8.85032 71.6996 8.71364 71.5995 8.71364C71.5713 8.71364 71.5169 8.72232 71.4385 8.73534C71.3581 8.75052 71.2406 8.77222 71.0818 8.80259C70.9382 8.83297 70.762 8.85466 70.5531 8.86985C70.3443 8.88503 70.0897 8.89154 69.7873 8.89154H62.0752C61.7576 8.89154 61.4335 8.88503 61.1028 8.86985C60.7721 8.85466 60.461 8.83297 60.1738 8.80259C59.928 8.77222 59.7496 8.72666 59.6343 8.66592C59.519 8.60517 59.4255 8.5748 59.3537 8.5748C59.2536 8.5748 59.1818 8.69629 59.1383 8.9371C59.1231 8.98266 59.0948 9.115 59.0513 9.33412C59.0078 9.55324 58.9621 9.79188 58.9099 10.0479C58.8599 10.3039 58.8163 10.5534 58.7815 10.7964C58.7446 11.0372 58.7271 11.1955 58.7271 11.2715C58.7271 11.4819 58.7859 11.5882 58.899 11.5882C58.9991 11.5882 59.0731 11.5058 59.1166 11.3387C59.1448 11.2628 59.1818 11.1695 59.2253 11.0567C59.2688 10.9439 59.3406 10.818 59.4407 10.6835C59.5843 10.4731 59.7888 10.3256 60.0564 10.241C60.324 10.1585 60.7308 10.1086 61.2768 10.0934L64.1071 10.0262V17.8168L64.1006 17.8147Z" fill="black"/>
<path d="M148.032 23.7263C148.378 23.7263 148.735 23.7154 149.103 23.6916C149.47 23.6699 149.827 23.6395 150.173 23.6004C150.519 23.5636 150.843 23.5093 151.145 23.4421C151.448 23.3748 151.707 23.2945 151.922 23.2034C152.109 23.1275 152.235 23.0494 152.301 22.9648C152.366 22.8823 152.427 22.7413 152.486 22.5461C152.542 22.3486 152.601 22.097 152.657 21.7868C152.716 21.4765 152.766 21.1684 152.81 20.8582C152.853 20.548 152.888 20.2703 152.919 20.0208C152.947 19.7713 152.962 19.6108 152.962 19.5348C152.962 19.4437 152.947 19.3656 152.919 19.2962C152.89 19.2289 152.84 19.1942 152.766 19.1942C152.679 19.1942 152.618 19.2246 152.583 19.2853C152.547 19.3461 152.514 19.4654 152.486 19.6476C152.442 19.8581 152.355 20.1076 152.227 20.3939C152.096 20.6803 151.94 20.9298 151.752 21.1424C151.32 21.6718 150.795 22.0145 150.175 22.1729C149.555 22.3313 148.763 22.4116 147.8 22.4116C147.079 22.4116 146.32 22.2445 145.52 21.9126C144.721 21.5806 143.986 21.0773 143.316 20.407C142.646 19.7344 142.091 18.8927 141.652 17.8817C141.212 16.8707 140.992 15.6927 140.992 14.3476C140.992 13.2455 141.125 12.1846 141.393 11.1649C141.66 10.1453 142.189 9.25143 142.981 8.48126C143.455 8.02784 144.014 7.68072 144.656 7.43991C145.298 7.19909 146.092 7.0776 147.043 7.0776C148.037 7.0776 148.926 7.21428 149.71 7.48547C150.495 7.75666 151.067 8.09076 151.428 8.48126C151.702 8.78282 151.907 9.1191 152.044 9.49008C152.181 9.85889 152.257 10.219 152.27 10.5661C152.27 10.8981 152.342 11.0651 152.486 11.0651C152.586 11.0651 152.651 11.0196 152.679 10.9284C152.707 10.8373 152.729 10.7093 152.744 10.5423C152.76 10.436 152.766 10.2863 152.766 10.0889C152.766 9.87842 152.768 9.6593 152.777 9.4315C152.784 9.20587 152.788 8.97157 152.788 8.72859C152.788 8.48777 152.795 8.27516 152.81 8.0951C152.838 7.70242 152.864 7.42038 152.886 7.24682C152.908 7.07326 152.919 6.94093 152.919 6.84981C152.919 6.68276 152.81 6.59381 152.594 6.57862C152.264 6.54825 151.924 6.49184 151.578 6.4094C151.233 6.32696 150.852 6.25537 150.434 6.19462C149.929 6.11869 149.451 6.06228 148.998 6.0254C148.544 5.98852 147.98 5.96899 147.301 5.96899C145.689 5.96899 144.341 6.1816 143.262 6.60248C142.18 7.02554 141.251 7.61347 140.475 8.36845C139.957 8.86744 139.531 9.39896 139.2 9.96519C138.869 10.5314 138.612 11.089 138.434 11.6422C138.254 12.1933 138.127 12.7248 138.056 13.239C137.984 13.7531 137.947 14.1979 137.947 14.5754C137.947 15.1199 137.986 15.6818 138.066 16.2632C138.145 16.8446 138.286 17.4261 138.488 18.0075C138.691 18.5889 138.963 19.1552 139.309 19.7062C139.655 20.2573 140.094 20.7736 140.627 21.2574C141.621 22.1621 142.733 22.8021 143.964 23.1709C145.196 23.5419 146.553 23.7263 148.037 23.7263H148.032ZM159.828 15.1199C159.741 15.1199 159.697 15.0743 159.697 14.9832V14.5754C159.697 13.8508 159.697 13.2541 159.697 12.7855C159.697 12.3017 159.697 11.9091 159.697 11.6075C159.697 11.2908 159.702 11.0369 159.708 10.8482C159.715 10.6594 159.726 10.4902 159.741 10.3383C159.769 9.99123 159.832 9.74174 159.926 9.58988C160.019 9.43801 160.196 9.34038 160.454 9.29482C160.67 9.24926 160.85 9.22757 160.994 9.22757C161.225 9.22757 161.34 9.16031 161.34 9.02364C161.34 8.90215 161.209 8.84357 160.95 8.84357C160.763 8.84357 160.548 8.84791 160.302 8.85442C160.058 8.86309 159.813 8.86526 159.569 8.86526C159.338 8.86526 159.119 8.8696 158.91 8.87611C158.701 8.88262 158.54 8.88696 158.423 8.88696C158.294 8.88696 158.124 8.88262 157.916 8.87611C157.707 8.86743 157.472 8.86526 157.213 8.86526C156.967 8.86526 156.708 8.86093 156.436 8.85442C156.162 8.84574 155.897 8.84357 155.636 8.84357C155.362 8.84357 155.225 8.90431 155.225 9.02364C155.225 9.16031 155.333 9.22757 155.549 9.22757C155.692 9.22757 155.836 9.23191 155.982 9.23842C156.125 9.24493 156.234 9.26445 156.306 9.29482C156.608 9.38594 156.813 9.49876 156.921 9.63543C157.03 9.77211 157.098 10.0064 157.126 10.3383C157.126 10.4902 157.128 10.6508 157.137 10.8243C157.143 10.9979 157.148 11.2278 157.148 11.5142C157.148 11.8006 157.148 12.1781 157.148 12.6467C157.148 13.1001 157.148 13.688 157.148 14.4126V17.8101C157.148 18.7017 157.143 19.5044 157.137 20.2225C157.128 20.9406 157.104 21.5025 157.061 21.9104C157.032 22.1968 156.982 22.4268 156.911 22.6003C156.839 22.7739 156.702 22.8845 156.499 22.9301C156.328 22.9756 156.103 22.9973 155.829 22.9973C155.714 22.9973 155.636 23.019 155.592 23.0646C155.549 23.1101 155.527 23.1557 155.527 23.2013C155.527 23.3379 155.649 23.4052 155.895 23.4052C156.082 23.4052 156.295 23.4008 156.532 23.3943C156.769 23.3857 157.004 23.3792 157.235 23.3726C157.465 23.3661 157.678 23.3575 157.872 23.351C158.066 23.3444 158.222 23.3401 158.338 23.3401C158.612 23.3401 159.04 23.3509 159.623 23.3748C160.206 23.3965 160.807 23.4095 161.427 23.4095C161.686 23.4095 161.816 23.3423 161.816 23.2056C161.816 23.16 161.795 23.1145 161.751 23.0689C161.708 23.0234 161.629 23.0017 161.514 23.0017C161.37 23.0017 161.205 22.9973 161.016 22.9908C160.829 22.9821 160.67 22.9648 160.541 22.9344C160.254 22.8888 160.067 22.7804 159.98 22.6046C159.893 22.4311 159.837 22.2076 159.808 21.9364C159.765 21.5134 159.737 20.9515 159.721 20.2486C159.706 19.5457 159.7 18.7495 159.7 17.86V16.3869C159.7 16.311 159.743 16.2741 159.83 16.2741H167.003C167.074 16.2741 167.111 16.311 167.111 16.3869V17.86C167.111 18.7516 167.107 19.5478 167.101 20.2486C167.094 20.9515 167.068 21.5047 167.024 21.9126C166.996 22.199 166.946 22.4289 166.872 22.6025C166.8 22.776 166.663 22.8867 166.461 22.9322C166.289 22.9778 166.058 22.9995 165.769 22.9995C165.654 22.9995 165.576 23.0212 165.532 23.0667C165.489 23.1123 165.467 23.1579 165.467 23.2034C165.467 23.3401 165.604 23.4074 165.878 23.4074C166.065 23.4074 166.28 23.403 166.526 23.3965C166.77 23.3878 167.011 23.3813 167.251 23.3748C167.488 23.3683 167.708 23.3596 167.91 23.3531C168.112 23.3466 168.271 23.3423 168.386 23.3423C168.645 23.3423 169.056 23.3531 169.618 23.377C170.179 23.3987 170.771 23.4117 171.388 23.4117C171.647 23.4117 171.778 23.3444 171.778 23.2078C171.778 23.1622 171.752 23.1166 171.702 23.0711C171.652 23.0255 171.576 23.0038 171.475 23.0038C171.317 23.0038 171.147 22.9995 170.969 22.993C170.788 22.9843 170.634 22.967 170.503 22.9366C170.216 22.891 170.024 22.7825 169.931 22.6068C169.837 22.4333 169.776 22.2098 169.746 21.9386C169.702 21.5156 169.679 20.945 169.67 20.2291C169.663 19.511 169.659 18.7082 169.659 17.8166V14.4192C169.659 13.6945 169.659 13.1066 169.659 12.6532C169.659 12.1846 169.659 11.8071 169.659 11.5207C169.659 11.2343 169.663 11.0044 169.67 10.8308C169.676 10.6573 169.687 10.4946 169.702 10.3449C169.731 9.99774 169.792 9.74825 169.885 9.59639C169.979 9.44452 170.148 9.34689 170.392 9.30133C170.623 9.25577 170.81 9.23408 170.953 9.23408C171.184 9.23408 171.299 9.16682 171.299 9.03014C171.299 8.90865 171.162 8.85008 170.888 8.85008C170.701 8.85008 170.492 8.85442 170.262 8.86092C170.031 8.8696 169.8 8.87177 169.57 8.87177C169.339 8.87177 169.124 8.87611 168.921 8.88262C168.719 8.88913 168.56 8.89347 168.447 8.89347C168.317 8.89347 168.145 8.88913 167.929 8.88262C167.712 8.87394 167.475 8.87177 167.216 8.87177C166.957 8.87177 166.687 8.86743 166.407 8.86092C166.126 8.85225 165.856 8.85008 165.597 8.85008C165.323 8.85008 165.186 8.91082 165.186 9.03014C165.186 9.16682 165.295 9.23408 165.51 9.23408C165.641 9.23408 165.778 9.23842 165.921 9.24493C166.065 9.25143 166.174 9.27096 166.246 9.30133C166.548 9.39245 166.752 9.50526 166.861 9.64194C166.97 9.77862 167.037 10.0129 167.066 10.3449C167.066 10.4967 167.068 10.6659 167.077 10.8547C167.083 11.0434 167.092 11.2929 167.098 11.601C167.105 11.9112 167.109 12.3061 167.109 12.7899C167.109 13.2585 167.109 13.8551 167.109 14.5797V14.9876C167.109 15.0787 167.072 15.1242 167 15.1242H159.828V15.1199ZM175.881 17.8144C175.881 18.7061 175.876 19.5088 175.87 20.2269C175.863 20.945 175.837 21.5069 175.794 21.9148C175.766 22.2011 175.716 22.4311 175.644 22.6046C175.572 22.7782 175.435 22.8888 175.233 22.9344C175.061 22.98 174.837 23.0017 174.562 23.0017C174.447 23.0017 174.369 23.0234 174.325 23.0689C174.282 23.1145 174.26 23.16 174.26 23.2056C174.26 23.3423 174.382 23.4095 174.628 23.4095C174.83 23.4095 175.041 23.4052 175.265 23.3987C175.489 23.39 175.716 23.3792 175.946 23.364C176.177 23.364 176.386 23.3596 176.573 23.3531C176.76 23.3466 176.912 23.3423 177.027 23.3423C177.314 23.3423 177.641 23.3466 178 23.3531C178.361 23.3618 178.77 23.3726 179.231 23.3878C180.154 23.4334 181.32 23.4551 182.731 23.4551C182.903 23.4551 183.049 23.4507 183.164 23.4442C183.28 23.4356 183.378 23.4182 183.456 23.3878C183.534 23.3575 183.597 23.3097 183.639 23.2403C183.682 23.1731 183.717 23.0776 183.747 22.9583C183.776 22.8672 183.804 22.724 183.834 22.5287C183.863 22.3313 183.891 22.1295 183.921 21.9169C183.95 21.7065 183.971 21.4982 183.987 21.2943C184.002 21.0903 184.008 20.9363 184.008 20.83C184.008 20.7237 183.998 20.6217 183.976 20.5241C183.954 20.4265 183.908 20.3766 183.834 20.3766C183.734 20.3766 183.663 20.4742 183.619 20.6716C183.547 21.0643 183.454 21.3702 183.338 21.5893C183.223 21.8084 183.043 21.9777 182.799 22.0992C182.555 22.2206 182.255 22.2922 181.903 22.3139C181.55 22.3356 181.252 22.3486 181.006 22.3486C180.517 22.3486 180.11 22.327 179.786 22.2814C179.462 22.2358 179.203 22.1534 179.007 22.0319C178.813 21.9104 178.672 21.7499 178.585 21.5459C178.498 21.342 178.448 21.073 178.435 20.7411C178.435 20.6044 178.435 20.4091 178.435 20.1531C178.435 19.8971 178.435 19.6324 178.435 19.3613C178.435 19.0749 178.435 18.8015 178.435 18.5455C178.435 18.2743 178.435 18.0552 178.435 17.8882V16.3478C178.435 16.2112 178.47 16.1439 178.544 16.1439C178.659 16.1439 178.863 16.1482 179.159 16.1547C179.455 16.1634 179.764 16.1699 180.088 16.1764C180.412 16.1851 180.71 16.1916 180.985 16.1981C181.259 16.2068 181.439 16.2177 181.524 16.2329C181.885 16.2632 182.135 16.3457 182.281 16.4823C182.425 16.619 182.527 16.7839 182.584 16.9813C182.612 17.1028 182.627 17.2221 182.627 17.3436C182.627 17.4651 182.634 17.5779 182.649 17.6842C182.649 17.7905 182.708 17.8426 182.821 17.8426C182.908 17.8426 182.962 17.7884 182.984 17.6842C183.006 17.5779 183.016 17.4868 183.016 17.4131C183.016 17.3371 183.023 17.1527 183.038 16.8577C183.053 16.5626 183.073 16.3175 183.103 16.1222C183.162 15.6384 183.201 15.3 183.221 15.1025C183.243 14.9051 183.254 14.7771 183.254 14.7164C183.254 14.5797 183.204 14.5125 183.103 14.5125C183.06 14.5125 183.016 14.5341 182.973 14.5797C182.929 14.6253 182.873 14.686 182.801 14.7619C182.714 14.8682 182.599 14.9355 182.455 14.9659C182.312 14.9962 182.125 15.0266 181.894 15.057C181.779 15.0722 181.563 15.083 181.246 15.0917C180.928 15.1004 180.591 15.1025 180.23 15.1025C179.869 15.1025 179.525 15.1025 179.192 15.1025C178.874 15.1025 178.665 15.1025 178.565 15.1025C178.478 15.1025 178.437 15.0353 178.437 14.8986V10.1431C178.437 10.0216 178.481 9.96303 178.565 9.96303C178.665 9.96303 178.861 9.96737 179.148 9.97387C179.436 9.98038 179.747 9.98906 180.077 9.99557C180.408 10.0021 180.715 10.0108 180.995 10.0173C181.276 10.0259 181.461 10.0368 181.546 10.052C182.02 10.0975 182.331 10.1843 182.475 10.3123C182.618 10.4403 182.727 10.5878 182.799 10.7549C182.858 10.8764 182.892 11.0044 182.908 11.1411C182.923 11.2777 182.929 11.3819 182.929 11.4578C182.929 11.6249 182.979 11.7073 183.082 11.7073C183.154 11.7073 183.204 11.6661 183.232 11.5815C183.26 11.499 183.282 11.4339 183.297 11.3884C183.312 11.3276 183.323 11.2365 183.33 11.1172C183.336 10.9957 183.347 10.872 183.362 10.744C183.378 10.616 183.388 10.4902 183.395 10.3709C183.402 10.2494 183.406 10.167 183.406 10.1214C183.434 9.68316 183.467 9.38594 183.504 9.22757C183.539 9.0692 183.558 8.95205 183.558 8.87611C183.558 8.75462 183.515 8.69388 183.428 8.69388C183.384 8.69388 183.338 8.70472 183.286 8.72859C183.236 8.75028 183.182 8.76981 183.125 8.78499C183.053 8.80018 182.945 8.81971 182.801 8.8414C182.658 8.8631 182.499 8.88262 182.327 8.89781C182.268 8.89781 182.109 8.89781 181.85 8.89781C181.607 8.89781 181.302 8.89781 180.943 8.89781C180.597 8.89781 180.223 8.89781 179.821 8.89781C179.418 8.89781 179.035 8.89781 178.676 8.89781C178.315 8.89781 177.991 8.89781 177.704 8.89781C177.43 8.89781 177.243 8.89781 177.143 8.89781C176.869 8.89781 176.468 8.8913 175.944 8.87611C175.417 8.86093 174.904 8.85442 174.399 8.85442C174.112 8.85442 173.969 8.91516 173.969 9.03448C173.969 9.17116 174.077 9.23842 174.293 9.23842C174.436 9.23842 174.58 9.24276 174.726 9.24927C174.869 9.25577 174.978 9.2753 175.05 9.30567C175.352 9.39679 175.557 9.5096 175.665 9.64628C175.774 9.78296 175.842 10.0173 175.87 10.3492C175.87 10.5011 175.874 10.6616 175.881 10.8352C175.887 11.0087 175.892 11.2387 175.892 11.5251C175.892 11.8114 175.892 12.1889 175.892 12.6575C175.892 13.111 175.892 13.6989 175.892 14.4235V17.8209L175.881 17.8144ZM190.874 16.2958C190.874 16.1895 190.918 16.1374 191.005 16.1374C191.092 16.1374 191.272 16.1374 191.544 16.1374C191.832 16.1374 192.143 16.1417 192.473 16.1482C192.804 16.1569 193.122 16.1634 193.424 16.1699C193.726 16.1786 193.935 16.1895 194.051 16.2047C194.338 16.235 194.551 16.3261 194.688 16.4758C194.825 16.6277 194.914 16.7709 194.958 16.9054C195.045 17.131 195.086 17.3284 195.086 17.4933C195.086 17.5693 195.101 17.6322 195.13 17.6864C195.158 17.7385 195.201 17.7645 195.26 17.7645C195.36 17.7645 195.421 17.7124 195.445 17.6061C195.467 17.4998 195.478 17.4087 195.478 17.335C195.478 17.3046 195.478 17.2373 195.478 17.131C195.478 17.0095 195.482 16.8772 195.489 16.734C195.495 16.5908 195.504 16.4433 195.51 16.2914C195.517 16.1396 195.528 16.0202 195.543 15.9291C195.571 15.6276 195.604 15.3585 195.641 15.1242C195.678 14.8899 195.695 14.7424 195.695 14.6817C195.695 14.5602 195.658 14.5016 195.586 14.5016C195.53 14.5016 195.486 14.5211 195.458 14.558C195.43 14.5949 195.386 14.6448 195.328 14.7055C195.241 14.827 195.13 14.9095 194.993 14.955C194.855 15.0006 194.701 15.031 194.527 15.0461C194.383 15.0613 194.24 15.0678 194.094 15.0678C193.964 15.0678 193.82 15.0678 193.661 15.0678L191.005 15.0895C190.918 15.0895 190.874 15.0288 190.874 14.9095V10.2429C190.874 10.1214 190.89 10.0476 190.918 10.0173C190.946 9.98689 190.99 9.9717 191.048 9.9717L194.203 10.039C194.564 10.0541 194.836 10.1214 195.023 10.2429C195.21 10.3644 195.341 10.4924 195.412 10.6291C195.484 10.7636 195.521 10.9002 195.521 11.0369C195.521 11.1736 195.521 11.2777 195.521 11.3537C195.521 11.5641 195.6 11.6704 195.758 11.6704C195.83 11.6704 195.878 11.6249 195.9 11.5337C195.921 11.4426 195.939 11.3602 195.954 11.2842C195.954 11.2235 195.958 11.1172 195.965 10.9675C195.972 10.8156 195.982 10.6573 195.998 10.4924C196.013 10.3253 196.024 10.167 196.03 10.0173C196.037 9.8654 196.041 9.76777 196.041 9.72221C196.069 9.46621 196.102 9.27747 196.139 9.15598C196.176 9.03448 196.193 8.93686 196.193 8.86092C196.193 8.73943 196.15 8.67869 196.065 8.67869C196.006 8.67869 195.956 8.69388 195.913 8.72425C195.869 8.75462 195.819 8.77632 195.761 8.7915C195.602 8.82188 195.343 8.85225 194.984 8.88262C194.869 8.88262 194.56 8.88262 194.055 8.88262C193.55 8.88262 192.995 8.88262 192.391 8.88262C191.786 8.88262 191.209 8.88262 190.663 8.88262C190.13 8.88262 189.771 8.88262 189.584 8.88262C189.31 8.88262 188.91 8.87611 188.386 8.86092C187.859 8.84574 187.352 8.83923 186.863 8.83923C186.56 8.83923 186.408 8.89998 186.408 9.0193C186.408 9.09523 186.441 9.1473 186.506 9.17767C186.571 9.20804 186.647 9.22323 186.732 9.22323C186.876 9.22323 187.019 9.22757 187.163 9.23408C187.307 9.24059 187.415 9.26011 187.487 9.29049C187.789 9.36642 187.994 9.47489 188.103 9.62025C188.212 9.76343 188.279 10.0021 188.307 10.334C188.307 10.4859 188.312 10.6464 188.318 10.82C188.325 10.9935 188.329 11.2235 188.329 11.5099C188.329 11.7962 188.329 12.1737 188.329 12.6423C188.329 13.0958 188.329 13.6837 188.329 14.4083V17.8057C188.329 18.743 188.325 19.5565 188.318 20.2529C188.312 20.9472 188.286 21.4982 188.242 21.9061C188.214 22.1924 188.164 22.4224 188.09 22.596C188.018 22.7695 187.881 22.8802 187.679 22.9257C187.507 22.9713 187.283 22.993 187.008 22.993C186.893 22.993 186.817 23.0147 186.782 23.0602C186.745 23.1058 186.728 23.1514 186.728 23.1969C186.728 23.3336 186.856 23.4008 187.117 23.4008C187.289 23.4008 187.491 23.3965 187.722 23.39C187.953 23.3813 188.179 23.3748 188.403 23.3683C188.627 23.3618 188.838 23.3531 189.04 23.3466C189.243 23.3401 189.408 23.3358 189.536 23.3358C189.667 23.3358 189.839 23.3401 190.054 23.3466C190.272 23.3553 190.515 23.3618 190.789 23.3683C191.064 23.377 191.355 23.3835 191.664 23.39C191.973 23.3987 192.28 23.4008 192.582 23.4008C192.856 23.4008 192.993 23.3336 192.993 23.1969C192.993 23.1514 192.967 23.1058 192.917 23.0602C192.867 23.0147 192.784 22.993 192.669 22.993C192.539 22.993 192.384 22.9886 192.206 22.9821C192.025 22.9735 191.871 22.9561 191.74 22.9257C191.453 22.8802 191.262 22.7717 191.168 22.596C191.074 22.4224 191.014 22.1924 190.985 21.9061C190.942 21.4982 190.913 20.958 190.898 20.2855C190.883 19.6129 190.877 18.8102 190.877 17.873V16.2871L190.874 16.2958Z" fill="black"/>
<path fill-rule="evenodd" clip-rule="evenodd" d="M71.4777 25.6126C75.634 31.6619 98.5243 27.8971 106.427 26.3853C108.204 25.9211 109.632 25.8898 111.405 25.6128C115.194 25.1819 117.141 25.9583 121.504 24.1236C122.978 23.5036 130.917 19.2058 130.751 18.7839C130.584 18.3619 124.643 21.2076 121.85 21.9908C121.361 22.1278 120.231 22.6294 120.059 22.2367C119.886 21.844 122.132 21.0165 123.551 20.4799C124.415 20.1588 133.528 16.9972 133.382 16.452C133.236 15.9069 128.458 17.5083 127.695 17.7495C125.712 18.3768 119.18 20.7685 118.983 20.2441C118.786 19.7198 120.046 19.4022 120.452 19.2274C123.986 17.965 129.315 16.2084 133.948 14.5989C134.695 14.3381 135.596 14.0421 135.489 13.6695C135.383 13.2968 127.509 15.3436 122.973 16.4448C120.691 17.0151 120.197 17.0069 118 18.0321C115.839 19.0392 114.505 20.5093 112.563 22.025C110.561 23.5868 109.656 23.8162 108.095 24.5013C102.012 27.1705 67.5784 29.6321 72.9891 18.8814C73.542 17.6665 74.8108 16.228 76.2779 15.1603C73.2371 17.2204 68.4919 21.2668 71.4777 25.6126Z" fill="#FF2D55"/>
<path fill-rule="evenodd" clip-rule="evenodd" d="M79.9465 19.3339C79.9465 19.3339 89.4934 23.3554 104.101 20.4172C108.601 19.5122 122.376 15.6784 127.387 8.51465C127.387 8.51465 123.693 12.4657 114.081 15.6784C104.469 18.8911 96.9792 19.8687 89.4981 20.0058C82.017 20.143 80.1674 19.3339 79.9465 19.3339Z" fill="black"/>
<path d="M93.1694 5.16908C100.512 2.86536 113.487 0.671076 122.155 3.633C125.535 4.78769 125.704 7.35332 121.879 10.6539C122.956 10.0505 125.478 7.99028 126.103 6.74415C127.295 4.36725 125.327 2.86601 123.342 2.15031C113.372 -1.45401 87.455 2.78282 79.615 11.1055C81.6302 9.61198 85.8263 7.4728 93.1694 5.16908Z" fill="black"/>
<path d="M96.7052 8.86348C101.635 7.31679 110.346 5.84357 116.166 7.83218C118.435 8.60742 118.549 10.33 115.981 12.5459C116.704 12.1408 118.397 10.7576 118.816 9.92096C119.617 8.32514 118.295 7.31722 116.963 6.83671C110.269 4.41681 92.8687 7.26137 87.605 12.8492C88.958 11.8464 91.7752 10.4102 96.7052 8.86348Z" fill="black"/>
</svg>
