<svg width="66" height="31" viewBox="0 0 66 31" fill="none" xmlns="http://www.w3.org/2000/svg">
<path fill-rule="evenodd" clip-rule="evenodd" d="M1.28438 25.6126C5.44062 31.6619 28.3309 27.8971 36.2341 26.3853C38.0107 25.9211 39.4384 25.8898 41.2115 25.6128C45.0004 25.1819 46.9479 25.9583 51.3103 24.1236C52.7845 23.5036 60.7238 19.2058 60.5573 18.7839C60.3909 18.3619 54.4493 21.2076 51.6568 21.9908C51.1681 22.1278 50.0381 22.6294 49.8655 22.2367C49.6929 21.844 51.9383 21.0165 53.3578 20.4799C54.2217 20.1588 63.3345 16.9972 63.1887 16.452C63.0428 15.9069 58.2643 17.5083 57.5017 17.7495C55.5187 18.3768 48.9869 20.7685 48.7899 20.2441C48.5928 19.7198 49.8531 19.4022 50.2584 19.2274C53.7924 17.965 59.1212 16.2084 63.7547 14.5989C64.5021 14.3381 65.4026 14.0421 65.296 13.6695C65.1895 13.2968 57.3161 15.3436 52.7795 16.4448C50.4974 17.0151 50.0037 17.0069 47.8069 18.0321C45.6455 19.0392 44.3117 20.5093 42.3701 22.025C40.368 23.5868 39.4624 23.8162 37.9012 24.5013C31.819 27.1705 -2.61494 29.6321 2.79576 18.8814C3.34869 17.6665 4.6174 16.228 6.08457 15.1603C3.04376 17.2204 -1.7015 21.2668 1.28438 25.6126Z" fill="#FF2D55"/>
<path fill-rule="evenodd" clip-rule="evenodd" d="M9.75317 19.3339C9.75317 19.3339 19.3 23.3554 33.9081 20.4172C38.4078 19.5122 52.1831 15.6784 57.1935 8.51465C57.1935 8.51465 53.4996 12.4657 43.8876 15.6784C34.2755 18.8911 26.7859 19.8687 19.3047 20.0058C11.8236 20.143 9.97404 19.3339 9.75317 19.3339Z" fill="black"/>
<path d="M22.976 5.16908C30.3191 2.86536 43.2938 0.671076 51.9619 3.633C55.3412 4.78769 55.5107 7.35332 51.6859 10.6539C52.7625 10.0505 55.2847 7.99028 55.9095 6.74415C57.1012 4.36725 55.1333 2.86601 53.1489 2.15031C43.1785 -1.45401 17.2616 2.78282 9.42163 11.1055C11.4368 9.61198 15.6329 7.4728 22.976 5.16908Z" fill="black"/>
<path d="M26.5119 8.86348C31.442 7.31679 40.153 5.84357 45.9727 7.83218C48.2415 8.60742 48.3553 10.33 45.7874 12.5459C46.5102 12.1408 48.2036 10.7576 48.6231 9.92096C49.4232 8.32514 48.1019 7.31722 46.7697 6.83671C40.0756 4.41681 22.6753 7.26137 17.4116 12.8492C18.7646 11.8464 21.5818 10.4102 26.5119 8.86348Z" fill="black"/>
</svg>
