<svg width="38" height="34" viewBox="0 0 38 34" fill="none" xmlns="http://www.w3.org/2000/svg">
<path d="M33.25 33H5.25C3.05 33 1.25 31.2 1.25 29V11C1.25 8.8 3.05 7 5.25 7H10.25L11.75 2.4C12.05 1.6 12.75 1 13.65 1H24.75C25.65 1 26.35 1.6 26.65 2.4L28.25 7H33.25C35.45 7 37.25 8.8 37.25 11V29C37.25 31.2 35.45 33 33.25 33Z" stroke-miterlimit="10" stroke-linejoin="round"/>
<path d="M19.25 28C24.2206 28 28.25 23.9706 28.25 19C28.25 14.0294 24.2206 10 19.25 10C14.2794 10 10.25 14.0294 10.25 19C10.25 23.9706 14.2794 28 19.25 28Z" stroke-miterlimit="10"/>
</svg>
